  <svg width="158" height="49" viewBox="0 0 49 49" fill="none" xmlns="http://www.w3.org/2000/svg">
    <path
      d="M0 0V48.1493H48.1493V0H0ZM34.5761 11.1983H13.5732L5.73475 3.35987H42.4145L34.5761 11.1983ZM21.6998 24.0747L14.5563 31.2182V16.9331L21.6998 24.0747ZM24.0746 26.4495L31.2181 33.593H16.9312L24.0746 26.4495ZM26.4495 24.0747L33.593 16.9312V31.2163L26.4495 24.0747ZM24.0746 21.6998L16.9312 14.5563H31.2162L24.0746 21.6998ZM11.1983 13.5732V34.578L3.35987 42.4165V5.73475L11.1983 13.5732ZM13.5732 36.951H34.578L42.4164 44.7895H5.73475L13.5732 36.951ZM36.951 34.5761V13.5732L44.7894 5.73475V42.4146L36.951 34.5761Z"
      fill="url(#paint0_linear_139_469)"
    />
    <defs>
      <linearGradient
        id="paint0_linear_139_469"
        x1="47.8986"
        y1="-0.245608"
        x2="1.24714"
        y2="47.3777"
        gradientUnits="userSpaceOnUse"
      >
        <stop stopColor="#00F896" />
        <stop offset="1" stopColor="#0072FF" />
      </linearGradient>
    </defs>
  </svg>

