  <svg width="158" height="49" viewBox="0 0 158 49" fill="none" xmlns="http://www.w3.org/2000/svg">
    <path
      d="M63.3066 16.8556H66.4349V18.1796C66.772 17.7464 68.0244 16.543 70.1657 16.543C73.7742 16.543 76.3261 19.287 76.3261 23.1365C76.3261 27.035 73.9682 29.7527 70.3578 29.7527C68.192 29.7527 66.9415 28.5492 66.6288 28.1405V33.9393H63.3085V16.8556H63.3066ZM69.7552 26.8184C71.6799 26.8184 72.9794 25.3024 72.9794 23.112C72.9794 20.8746 71.631 19.4791 69.7552 19.4791C67.7344 19.4791 66.5309 21.1157 66.5309 23.112C66.5309 25.47 67.9265 26.8184 69.7552 26.8184Z"
      fill="#686868"
    />
    <path
      d="M85.0559 19.9122C82.5775 19.9122 81.664 21.4528 81.664 23.9558V29.4419H78.3438V16.8575H81.5925V18.6862C82.1462 17.4338 83.3967 16.543 85.0578 16.543V19.9122H85.0559Z"
      fill="#686868"
    />
    <path
      d="M92.7377 16.543C96.5873 16.543 99.5234 19.383 99.5234 23.1855C99.5234 26.9879 96.6833 29.7546 92.7377 29.7546C88.8147 29.7546 85.9766 26.9879 85.9766 23.1855C85.9766 19.3586 88.9127 16.543 92.7377 16.543ZM92.7377 26.8184C94.7359 26.8184 96.2031 25.3268 96.2031 23.1855C96.2031 21.0441 94.7359 19.4791 92.7377 19.4791C90.7395 19.4791 89.2969 21.0196 89.2969 23.1855C89.2988 25.325 90.7659 26.8184 92.7377 26.8184Z"
      fill="#686868"
    />
    <path
      d="M101.583 14.21H104.854V16.8561H107.212V19.5511H104.854V24.4101C104.854 26.2878 105.432 26.672 106.707 26.672C106.924 26.672 107.043 26.672 107.308 26.6494V29.4876C107.308 29.4876 106.803 29.6081 105.888 29.6081C102.88 29.6081 101.556 27.9244 101.556 24.508V19.5511H100.232V16.8561H101.581V14.21H101.583Z"
      fill="#686868"
    />
    <path
      d="M114.51 16.543C118.409 16.543 120.621 19.142 120.621 23.2571C120.621 23.4981 120.621 23.7392 120.597 23.9784H111.741C111.813 25.6639 113.162 26.8655 115.013 26.8655C116.721 26.8655 117.708 25.8542 118.069 25.325L120.26 26.986C119.78 27.875 118.094 29.7527 114.966 29.7527C110.924 29.7527 108.35 26.9616 108.35 23.1836C108.351 19.383 110.926 16.543 114.51 16.543ZM117.254 21.8125C117.182 20.272 116.075 19.2625 114.559 19.2625C112.994 19.2625 111.984 20.3699 111.839 21.8125H117.254Z"
      fill="#686868"
    />
    <path
      d="M127.115 25.4953L124.42 29.4409H120.834L125.262 23.0168L121.026 16.8564H124.757L127.115 20.6815L129.473 16.8564H133.202L128.966 23.0168L133.394 29.4409H129.785L127.115 25.4953Z"
      fill="#686868"
    />
    <path
      d="M140.396 25.4953L137.701 29.4409H134.115L138.543 23.0168L134.307 16.8564H138.038L140.396 20.6815L142.754 16.8564H146.483L142.247 23.0168L146.675 29.4409H143.067L140.396 25.4953Z"
      fill="#686868"
    />
    <path
      d="M151.784 21.3794C153.059 21.3794 154.046 21.7636 154.501 22.0762V21.2588C154.501 20.1514 153.684 19.4056 152.217 19.4056C150.966 19.4056 149.812 19.8143 148.872 20.2965L147.62 18.0346C148.752 17.2643 150.652 16.543 152.577 16.543C156.62 16.543 157.822 18.6617 157.822 21.4754V29.44H154.886L154.669 28.6227C154.019 29.3195 153.057 29.7527 151.614 29.7527C149.064 29.7527 146.898 28.1895 146.898 25.5415C146.9 23.0631 148.848 21.3794 151.784 21.3794ZM152.409 27.1782C153.661 27.1782 154.575 26.5039 154.575 25.4455C154.575 24.3381 153.661 23.6883 152.385 23.6883C151.11 23.6883 150.219 24.4097 150.219 25.4455C150.221 26.4813 151.159 27.1782 152.409 27.1782Z"
      fill="#686868"
    />
    <path
      d="M0 0V48.1493H48.1493V0H0ZM34.5761 11.1983H13.5732L5.73475 3.35987H42.4145L34.5761 11.1983ZM21.6998 24.0747L14.5563 31.2182V16.9331L21.6998 24.0747ZM24.0746 26.4495L31.2181 33.593H16.9312L24.0746 26.4495ZM26.4495 24.0747L33.593 16.9312V31.2163L26.4495 24.0747ZM24.0746 21.6998L16.9312 14.5563H31.2162L24.0746 21.6998ZM11.1983 13.5732V34.578L3.35987 42.4165V5.73475L11.1983 13.5732ZM13.5732 36.951H34.578L42.4164 44.7895H5.73475L13.5732 36.951ZM36.951 34.5761V13.5732L44.7894 5.73475V42.4146L36.951 34.5761Z"
      fill="url(#paint0_linear_139_469)"
    />
    <defs>
      <linearGradient
        id="paint0_linear_139_469"
        x1="47.8986"
        y1="-0.245608"
        x2="1.24714"
        y2="47.3777"
        gradientUnits="userSpaceOnUse"
      >
        <stop stopColor="#00F896" />
        <stop offset="1" stopColor="#0072FF" />
      </linearGradient>
    </defs>
  </svg>

