<svg width="162" height="162" viewBox="0 0 162 162" fill="none" xmlns="http://www.w3.org/2000/svg">
<circle cx="81" cy="81" r="75" fill="white" stroke="url(#paint0_linear_1052_3197)" stroke-width="12"/>
<path d="M79.3422 87.9994C78.3118 87.8362 77.2727 87.7159 76.2531 87.5033C73.8268 86.9954 71.6113 85.9827 69.5883 84.5695C66.9988 82.7589 64.9682 80.4533 63.5301 77.6461C61.772 74.2108 61.146 70.5682 61.6153 66.7516C62.0705 63.0467 63.528 59.7552 65.9716 56.9234C66.7468 56.0246 67.6291 55.2073 68.5287 54.4277C69.3742 53.6953 70.3895 53.574 71.4286 54.0164C72.4363 54.4449 73.0115 55.2267 73.1078 56.3134C73.1813 57.1425 72.9142 57.8792 72.325 58.4795C71.5767 59.2419 70.7409 59.9324 70.0727 60.7572C67.6053 63.8027 66.6571 67.2918 67.2637 71.1577C68.1276 76.6614 72.3293 81.0289 77.7831 82.1597C83.0919 83.2604 88.6949 80.9966 91.6489 76.4638C94.3423 72.3326 94.6612 67.9672 92.6501 63.4666C91.9516 61.9041 90.9245 60.5521 89.6572 59.3837C89.215 58.9756 88.7339 58.5847 88.39 58.1015C87.5618 56.9352 87.7607 55.42 88.7879 54.4954C89.8421 53.5471 91.3678 53.5106 92.4868 54.4159C94.1011 55.7217 95.4786 57.2434 96.5837 58.9939C98.9732 62.7782 99.9128 66.9073 99.3971 71.3371C98.5104 78.9488 92.9896 85.2997 85.4999 87.3186C84.3656 87.6247 83.1774 87.731 82.014 87.9307C81.8929 87.9511 81.7739 87.9758 81.6528 87.9994H79.34H79.3422Z" fill="url(#paint1_linear_1052_3197)"/>
<path d="M77.6883 55.2126C77.6883 53.0939 77.6753 50.974 77.6926 48.8553C77.7066 47.0039 79.282 45.7056 81.052 46.0578C82.4003 46.3263 83.2988 47.4667 83.301 48.9476C83.3075 52.311 83.3031 55.6744 83.3031 59.0367C83.3031 59.884 83.3226 60.7324 83.2977 61.5797C83.2621 62.7792 82.7074 63.6899 81.5894 64.1635C80.5254 64.6134 79.5069 64.4384 78.6279 63.6781C77.9651 63.1057 77.6893 62.3507 77.6893 61.4873C77.6893 59.3954 77.6893 57.3035 77.6893 55.2126H77.6883Z" fill="url(#paint2_linear_1052_3197)"/>
<path d="M62.708 100.592C60.564 100.592 59.188 101.888 59.188 103.776C59.188 107.36 64.02 107.04 64.02 108.96C64.02 109.68 63.524 110.112 62.692 110.112C61.684 110.112 61.06 109.424 60.756 108.688L58.852 109.616C59.172 110.528 60.164 112.208 62.564 112.208C64.9 112.208 66.308 110.768 66.308 108.8C66.308 105.328 61.444 105.6 61.444 103.744C61.444 103.136 61.892 102.672 62.66 102.672C63.636 102.672 64.052 103.36 64.292 103.888L66.164 103.04C65.892 102.224 64.964 100.592 62.708 100.592ZM69.8038 112H72.0598V102.832H74.6678V100.8H67.1798V102.832H69.8038V112ZM81.2465 109.12L82.2225 112H84.4945L80.5265 100.8H78.1585L74.1905 112H76.4625L77.4385 109.12H81.2465ZM80.6545 107.248H78.0465L79.3425 103.216L80.6545 107.248ZM85.697 112H87.953V107.616H89.153L91.329 112H93.825L91.169 107.088C92.193 106.528 92.865 105.488 92.865 104.128C92.865 102.288 91.521 100.8 89.073 100.8H85.697V112ZM87.953 105.712V102.752H88.897C89.921 102.752 90.545 103.312 90.545 104.208C90.545 105.2 89.825 105.712 89.009 105.712H87.953ZM96.6319 112H98.8879V102.832H101.496V100.8H94.0079V102.832H96.6319V112Z" fill="url(#paint3_linear_1052_3197)"/>
<defs>
<linearGradient id="paint0_linear_1052_3197" x1="-49.8074" y1="214.575" x2="213.317" y2="-52.8261" gradientUnits="userSpaceOnUse">
<stop stop-color="#0072FF"/>
<stop offset="1" stop-color="#00F896"/>
</linearGradient>
<linearGradient id="paint1_linear_1052_3197" x1="49.7603" y1="99.1117" x2="104.97" y2="36.7312" gradientUnits="userSpaceOnUse">
<stop stop-color="#0072FF"/>
<stop offset="1" stop-color="#00F896"/>
</linearGradient>
<linearGradient id="paint2_linear_1052_3197" x1="75.9536" y1="70.3824" x2="92.8966" y2="65.1194" gradientUnits="userSpaceOnUse">
<stop stop-color="#0072FF"/>
<stop offset="1" stop-color="#00F896"/>
</linearGradient>
<linearGradient id="paint3_linear_1052_3197" x1="44.9721" y1="121.193" x2="61.4611" y2="75.1108" gradientUnits="userSpaceOnUse">
<stop stop-color="#0072FF"/>
<stop offset="1" stop-color="#00F896"/>
</linearGradient>
</defs>
</svg>
