<svg width="170" height="52" viewBox="0 0 170 52" fill="none" xmlns="http://www.w3.org/2000/svg">
<g clip-path="url(#clip0_1890_8858)">
<path d="M109.805 17.1828V9.45325H112.733C113.39 9.45325 113.909 9.56953 114.286 9.8021C114.758 10.0894 114.99 10.5409 114.99 11.1633C114.99 11.6695 114.799 12.0868 114.423 12.4219C114.087 12.7161 113.656 12.9008 113.13 12.976V13.0786C113.677 13.1333 114.115 13.277 114.457 13.5095C114.936 13.8447 115.168 14.3235 115.168 14.9529C115.168 15.6848 114.881 16.2525 114.306 16.6561C113.807 17.0049 113.178 17.176 112.425 17.176H109.805V17.1828ZM111.509 10.1236V12.7913H111.857C112.069 12.7913 112.247 12.7708 112.398 12.7366C112.548 12.6956 112.685 12.6203 112.815 12.5109C112.979 12.3672 113.102 12.1962 113.184 11.991C113.266 11.7858 113.301 11.5669 113.301 11.3343C113.301 10.9376 113.191 10.6298 112.986 10.4109C112.774 10.192 112.473 10.0826 112.09 10.0826C111.905 10.0826 111.714 10.0962 111.509 10.1236ZM111.509 13.448V16.5193H112.076C112.418 16.5193 112.726 16.3825 113 16.1157C113.273 15.8489 113.41 15.4864 113.41 15.0349C113.41 14.4467 113.246 14.0226 112.911 13.7763C112.617 13.5574 112.152 13.448 111.509 13.448Z" fill="white"/>
<path d="M120.503 14.864H117.863C117.624 15.548 117.446 16.0542 117.336 16.3825C117.227 16.704 117.138 16.9913 117.07 17.2376L116.536 17.1829L115.989 17.2376L119.231 9.35071L119.662 9.38491L120.093 9.35071L123.26 17.2376C123.123 17.2376 122.939 17.2307 122.706 17.2102C122.473 17.1897 122.33 17.1829 122.289 17.1829C122.152 17.1829 121.967 17.1897 121.735 17.2102C121.502 17.2307 121.359 17.2376 121.317 17.2376C121.153 16.6972 121.023 16.2936 120.934 16.0268C120.777 15.5822 120.64 15.1992 120.503 14.864ZM118.171 14.1731H120.244L119.231 11.5259L118.171 14.1731Z" fill="white"/>
<path d="M124.259 17.2375V9.45325H126.674C127.193 9.45325 127.576 9.46009 127.823 9.48061C128.062 9.50113 128.295 9.56269 128.514 9.67898C129.17 10.0278 129.499 10.5682 129.499 11.3001C129.499 11.8405 129.341 12.2851 129.02 12.6408C128.705 12.9965 128.274 13.2291 127.727 13.3454C128.021 13.8584 128.431 14.5288 128.965 15.3428C129.321 15.89 129.581 16.2867 129.738 16.533L130.183 17.2375C130.039 17.2375 129.841 17.2307 129.601 17.2102C129.355 17.1896 129.204 17.1828 129.15 17.1828C129.006 17.1828 128.808 17.1896 128.568 17.2102C128.322 17.2307 128.178 17.2375 128.131 17.2375L126.783 14.8571L126.044 13.5985H125.962V17.2375C125.832 17.2375 125.73 17.2307 125.647 17.2238C125.319 17.1965 125.141 17.176 125.114 17.176C124.984 17.176 124.82 17.1828 124.615 17.2033C124.403 17.2307 124.286 17.2375 124.259 17.2375ZM125.962 10.0826V13.1128C126.017 13.1197 126.065 13.1265 126.113 13.1265C126.161 13.1265 126.208 13.1265 126.263 13.1265C127.255 13.1265 127.747 12.5861 127.747 11.4985C127.747 11.3207 127.727 11.1291 127.693 10.9308C127.624 10.5751 127.453 10.3356 127.173 10.2057C126.981 10.1236 126.694 10.0826 126.297 10.0826H125.962Z" fill="white"/>
<path d="M131.236 17.1828V9.45325H134.164C134.82 9.45325 135.34 9.56953 135.716 9.8021C136.188 10.0894 136.421 10.5409 136.421 11.1633C136.421 11.6695 136.229 12.0868 135.853 12.4219C135.518 12.7161 135.087 12.9008 134.56 12.976V13.0786C135.108 13.1333 135.545 13.277 135.887 13.5095C136.366 13.8447 136.599 14.3235 136.599 14.9529C136.599 15.6848 136.311 16.2525 135.737 16.6561C135.238 17.0049 134.608 17.176 133.856 17.176H131.236V17.1828ZM132.939 10.1236V12.7913H133.288C133.5 12.7913 133.678 12.7708 133.828 12.7366C133.979 12.6956 134.116 12.6203 134.246 12.5109C134.41 12.3672 134.533 12.1962 134.615 11.991C134.697 11.7858 134.731 11.5669 134.731 11.3343C134.731 10.9376 134.622 10.6298 134.417 10.4109C134.205 10.192 133.904 10.0826 133.521 10.0826C133.336 10.0826 133.144 10.0962 132.939 10.1236ZM132.939 13.448V16.5193H133.507C133.849 16.5193 134.157 16.3825 134.43 16.1157C134.704 15.8489 134.841 15.4864 134.841 15.0349C134.841 14.4467 134.677 14.0226 134.341 13.7763C134.047 13.5574 133.582 13.448 132.939 13.448Z" fill="white"/>
<path d="M141.934 14.864H139.294C139.054 15.548 138.877 16.0542 138.767 16.3825C138.658 16.704 138.569 16.9913 138.5 17.2376L137.967 17.1829L137.42 17.2376L140.662 9.35071L141.093 9.38491L141.524 9.35071L144.691 17.2376C144.554 17.2376 144.369 17.2307 144.137 17.2102C143.904 17.1897 143.761 17.1829 143.719 17.1829C143.583 17.1829 143.398 17.1897 143.165 17.2102C142.933 17.2307 142.789 17.2376 142.748 17.2376C142.584 16.6972 142.454 16.2936 142.365 16.0268C142.208 15.5822 142.071 15.1992 141.934 14.864ZM139.602 14.1731H141.674L140.662 11.5259L139.602 14.1731Z" fill="white"/>
<path d="M145.799 9.45325H149.677C150.813 9.45325 151.688 9.82946 152.297 10.5751C152.838 11.2317 153.104 12.0731 153.104 13.0923C153.104 14.3509 152.708 15.3496 151.914 16.102C151.155 16.8203 150.177 17.1828 148.973 17.1828H145.799V9.45325ZM147.502 10.1099V16.5193H148.467C149.329 16.5193 149.985 16.2799 150.43 15.8079C150.957 15.2401 151.223 14.3304 151.223 13.0854C151.223 12.0594 150.991 11.3001 150.519 10.8076C150.081 10.3493 149.445 10.1168 148.61 10.1168H147.502V10.1099Z" fill="white"/>
<path d="M162.729 13.2838C162.729 14.433 162.332 15.3906 161.538 16.1636C160.704 16.9708 159.616 17.3743 158.262 17.3743C156.983 17.3743 155.964 17.0186 155.204 16.3072C154.445 15.5959 154.062 14.604 154.062 13.3249C154.062 12.1552 154.452 11.1907 155.232 10.4383C156.046 9.64478 157.147 9.24805 158.536 9.24805C159.999 9.24805 161.108 9.69951 161.846 10.6093C162.435 11.3343 162.729 12.2304 162.729 13.2838ZM158.46 9.93208C157.653 9.93208 157.038 10.2331 156.613 10.835C156.169 11.4711 155.943 12.4083 155.943 13.6532C155.943 14.4809 156.121 15.1718 156.49 15.7258C156.914 16.3688 157.523 16.6903 158.317 16.6903C159.144 16.6903 159.781 16.3209 160.232 15.589C160.642 14.9255 160.848 14.0841 160.848 13.0649C160.848 12.2236 160.663 11.519 160.3 10.9444C159.869 10.2741 159.254 9.93208 158.46 9.93208Z" fill="white"/>
<path d="M167.695 10.9171H167.524C167.407 10.6093 167.243 10.363 167.024 10.192C166.806 10.021 166.539 9.93208 166.217 9.93208C165.793 9.93208 165.479 10.0347 165.273 10.2331C165.068 10.4314 164.965 10.705 164.965 11.0402C164.965 11.4506 165.26 11.8132 165.848 12.1415C166.922 12.7298 167.476 13.0376 167.517 13.0718C168.112 13.5369 168.413 14.1457 168.413 14.8845C168.413 15.6095 168.133 16.2046 167.572 16.6766C167.011 17.1418 166.286 17.3812 165.403 17.3812C165.068 17.3812 164.747 17.3401 164.432 17.2649C164.117 17.1828 163.83 17.0597 163.577 16.8955C163.666 16.5809 163.734 16.3278 163.782 16.1294C163.83 15.931 163.871 15.7121 163.905 15.4659H164.124C164.206 15.8558 164.391 16.1568 164.671 16.3756C164.952 16.5945 165.294 16.704 165.691 16.704C166.067 16.704 166.381 16.6014 166.635 16.3962C166.888 16.191 167.018 15.9037 167.018 15.5206C167.018 15.0349 166.723 14.6382 166.142 14.3167C165.595 14.0294 165.054 13.7421 164.521 13.4548C163.933 13.0102 163.638 12.4014 163.638 11.6285C163.638 10.9444 163.857 10.3835 164.295 9.9526C164.774 9.48746 165.424 9.24805 166.258 9.24805C166.635 9.24805 166.997 9.30277 167.332 9.41905C167.667 9.53534 167.907 9.65846 168.05 9.79527C167.968 10.0142 167.9 10.1988 167.859 10.3425C167.791 10.5956 167.736 10.7871 167.695 10.9171Z" fill="white"/>
<path d="M51.9021 12.5314C52.5656 12.5314 53.1333 12.292 53.6121 11.82C54.0841 11.348 54.3235 10.7803 54.3235 10.1099C54.3235 9.41223 54.0773 8.83764 53.5916 8.37934C53.0991 7.92104 52.5382 7.69531 51.9089 7.69531C51.2454 7.69531 50.6776 7.93472 50.1988 8.4067C49.7268 8.87869 49.4874 9.44643 49.4874 10.1168C49.4874 10.7871 49.7268 11.348 50.1988 11.8269C50.6708 12.292 51.2385 12.5314 51.9021 12.5314Z" fill="white"/>
<path d="M109.88 28.1684V21.1366L110.332 21.164L110.783 21.1366V28.1547L110.332 28.1274L109.88 28.1684Z" fill="white"/>
<path d="M118.739 21.1366V28.1616H118.431L117.89 27.5323L113.465 22.6209H113.362V28.1479L113.075 28.1205L112.788 28.1616V21.1366H113.191L118.055 26.4242L118.164 26.4173V21.1366L118.451 21.164L118.739 21.1366Z" fill="white"/>
<path d="M123.096 21.6291V28.1616L122.645 28.1411L122.193 28.1753V21.6291C121.66 21.6291 121.283 21.6359 121.051 21.6496C120.818 21.6633 120.456 21.6975 119.943 21.7522L119.97 21.4444L119.943 21.1366H125.237L125.21 21.4444L125.237 21.7522C124.984 21.7249 124.662 21.6975 124.279 21.6701C123.896 21.6428 123.5 21.6291 123.096 21.6291Z" fill="white"/>
<path d="M127.262 21.6223V24.1942H128.855C128.985 24.1942 129.156 24.1874 129.375 24.1737C129.594 24.16 129.724 24.1532 129.772 24.1532L129.738 24.4199L129.772 24.7072C129.649 24.7072 129.478 24.7004 129.259 24.6799C129.04 24.6594 128.903 24.6525 128.862 24.6525H127.269V27.6486C127.487 27.6486 127.843 27.6417 128.342 27.628C128.835 27.6144 129.102 27.6075 129.129 27.6075C129.321 27.6075 129.457 27.6007 129.553 27.5938C129.642 27.587 129.813 27.5596 130.073 27.5186L130.046 27.8264L130.073 28.1342H126.366V21.1366H130.011L129.984 21.4307L130.011 21.7317C129.806 21.6907 129.642 21.6633 129.505 21.6428C129.375 21.6291 129.239 21.6154 129.081 21.6154H128.055H127.262V21.6223Z" fill="white"/>
<path d="M137.618 22.3678H137.502C137.221 22.0463 136.879 21.8001 136.469 21.6291C136.065 21.4581 135.634 21.3691 135.19 21.3691C134.294 21.3691 133.575 21.6496 133.042 22.2173C132.501 22.7782 132.235 23.5717 132.235 24.5909C132.235 25.6306 132.495 26.4378 133.021 27.0124C133.548 27.587 134.307 27.8811 135.306 27.8811C135.593 27.8811 135.874 27.8537 136.154 27.7922C136.435 27.7306 136.681 27.6485 136.907 27.5323V24.9056L137.358 24.9329L137.809 24.9056V27.799C136.9 28.1137 135.969 28.271 135.019 28.271C133.774 28.271 132.823 27.929 132.153 27.2381C131.537 26.5951 131.229 25.7333 131.229 24.6456C131.229 23.4828 131.605 22.573 132.371 21.9232C133.097 21.3007 134.054 20.9929 135.231 20.9929C135.901 20.9929 136.503 21.075 137.023 21.2255C137.344 21.3213 137.618 21.4444 137.844 21.588C137.816 21.6633 137.782 21.7727 137.734 21.9232C137.7 22.0668 137.659 22.2173 137.618 22.3678Z" fill="white"/>
<path d="M139.485 28.1684V21.1366H141.661C142.44 21.1366 143.015 21.2666 143.384 21.5197C143.754 21.7727 143.938 22.1695 143.938 22.6962C143.938 23.2503 143.72 23.7017 143.282 24.0506C142.919 24.3379 142.434 24.5362 141.832 24.6457L143.938 27.3202L144.438 27.8948L144.629 28.1547L144.034 28.1274L143.453 28.1684L142.803 27.2724L141.599 25.6991L140.771 24.7278H140.381V28.1616L139.93 28.1342L139.485 28.1684ZM140.388 21.4991V24.3379C140.45 24.3379 140.525 24.3379 140.614 24.3379C140.703 24.3379 140.806 24.3379 140.915 24.3379C141.065 24.3379 141.209 24.3379 141.339 24.331C141.469 24.3242 141.599 24.3037 141.722 24.2763C142.105 24.1942 142.42 24.0232 142.673 23.7701C142.919 23.517 143.042 23.1955 143.042 22.8125C143.042 22.0737 142.666 21.6496 141.907 21.5265C141.763 21.506 141.585 21.4991 141.373 21.4991C141.264 21.4991 141.093 21.4991 140.867 21.4991C140.635 21.4991 140.477 21.4991 140.388 21.4991Z" fill="white"/>
<path d="M148.432 20.9861L151.511 28.1684L150.977 28.1274L150.437 28.1547C150.19 27.4502 149.978 26.8824 149.807 26.4515C149.698 26.1779 149.547 25.8222 149.356 25.3844H146.75C146.353 26.3762 146.127 26.9372 146.086 27.074C145.984 27.3476 145.867 27.7033 145.737 28.1547L145.354 28.1274L144.999 28.1547L148.2 20.9861H148.432ZM149.192 24.9535L148.056 22.3336L146.934 24.9535H149.192Z" fill="white"/>
<path d="M155.027 21.6291V28.1616L154.575 28.1411L154.124 28.1753V21.6291C153.59 21.6291 153.214 21.6359 152.981 21.6496C152.749 21.6633 152.386 21.6975 151.873 21.7522L151.901 21.4444L151.873 21.1366H157.168L157.14 21.4444L157.168 21.7522C156.914 21.7249 156.593 21.6975 156.21 21.6701C155.827 21.6428 155.43 21.6291 155.027 21.6291Z" fill="white"/>
<path d="M159.192 21.6223V24.1942H160.786C160.916 24.1942 161.087 24.1874 161.306 24.1737C161.525 24.16 161.655 24.1532 161.703 24.1532L161.668 24.4199L161.703 24.7072C161.579 24.7072 161.408 24.7004 161.19 24.6799C160.971 24.6594 160.834 24.6525 160.793 24.6525H159.199V27.6486C159.418 27.6486 159.774 27.6417 160.273 27.628C160.765 27.6144 161.032 27.6075 161.06 27.6075C161.251 27.6075 161.388 27.6007 161.484 27.5938C161.573 27.587 161.744 27.5596 162.004 27.5186L161.976 27.8264L162.004 28.1342H158.296V21.1366H161.942L161.915 21.4307L161.942 21.7317C161.737 21.6907 161.573 21.6633 161.436 21.6428C161.306 21.6291 161.169 21.6154 161.012 21.6154H159.986H159.192V21.6223Z" fill="white"/>
<path d="M163.536 28.1274V21.1366H165.868H166.559C167.202 21.1366 167.695 21.1913 168.03 21.3008C168.31 21.3897 168.577 21.5402 168.83 21.7522C169.2 22.0532 169.473 22.4294 169.658 22.8809C169.843 23.3323 169.932 23.8112 169.932 24.3173C169.932 24.9945 169.815 25.5965 169.576 26.1095C169.364 26.5678 169.049 26.9782 168.639 27.3408C168.345 27.5938 167.975 27.7854 167.537 27.9222C167.093 28.059 166.429 28.1205 165.54 28.1205H163.536V28.1274ZM164.439 21.547V27.6622C164.644 27.6622 164.918 27.6691 165.26 27.6759C165.602 27.6828 165.78 27.6896 165.786 27.6896C166.176 27.6896 166.498 27.6691 166.737 27.6349C166.983 27.6007 167.223 27.5254 167.449 27.4092C167.968 27.1492 168.351 26.7456 168.598 26.1984C168.817 25.7128 168.926 25.1382 168.926 24.4678C168.926 23.3871 168.687 22.6209 168.201 22.1763C167.715 21.7317 166.894 21.506 165.732 21.506C165.588 21.506 165.342 21.5128 165 21.5265C164.658 21.5402 164.473 21.547 164.439 21.547Z" fill="white"/>
<path d="M115.011 33.3943H114.915C114.669 33.1139 114.375 32.9018 114.019 32.7513C113.663 32.6008 113.294 32.5256 112.911 32.5256C112.138 32.5256 111.515 32.7719 111.05 33.2575C110.585 33.7432 110.352 34.434 110.352 35.3096C110.352 36.2125 110.578 36.9102 111.03 37.4096C111.481 37.9089 112.145 38.162 113.007 38.162C113.253 38.162 113.499 38.1347 113.738 38.0868C113.978 38.0389 114.197 37.9636 114.395 37.861V35.5832L114.785 35.6106L115.175 35.5832V38.0936C114.388 38.3672 113.581 38.504 112.753 38.504C111.673 38.504 110.845 38.2031 110.27 37.6079C109.737 37.0539 109.47 36.3014 109.47 35.3643C109.47 34.3588 109.798 33.5722 110.455 33.0044C111.084 32.464 111.912 32.1973 112.938 32.1973C113.52 32.1973 114.039 32.2657 114.491 32.4025C114.771 32.4846 115.004 32.5872 115.202 32.7171C115.182 32.7787 115.148 32.8813 115.107 33.0113C115.079 33.1344 115.045 33.2644 115.011 33.3943Z" fill="white"/>
<path d="M119.471 38.5109C118.479 38.5109 117.685 38.2236 117.09 37.6558C116.495 37.0881 116.194 36.322 116.194 35.3712C116.194 34.4204 116.509 33.6474 117.145 33.0523C117.754 32.4846 118.533 32.1973 119.484 32.1973C120.408 32.1973 121.181 32.4367 121.796 32.9155C122.501 33.4696 122.857 34.2357 122.857 35.2344C122.857 36.2194 122.542 37.006 121.913 37.6079C121.29 38.2099 120.476 38.5109 119.471 38.5109ZM121.988 35.3028C121.988 34.8992 121.947 34.5435 121.872 34.2357C121.796 33.9279 121.646 33.6337 121.427 33.3533C121.208 33.0728 120.934 32.8608 120.613 32.7171C120.291 32.5666 119.943 32.4982 119.58 32.4982C118.8 32.4982 118.191 32.7719 117.747 33.3122C117.302 33.8526 117.076 34.5777 117.076 35.4806C117.076 36.3493 117.316 37.0334 117.788 37.5327C118.233 37.991 118.807 38.2236 119.505 38.2236C120.339 38.2236 120.989 37.861 121.454 37.1428C121.81 36.5751 121.988 35.9594 121.988 35.3028Z" fill="white"/>
<path d="M126.906 36.3699L127.843 33.9621L128.377 32.4778L128.438 32.3341L128.767 32.3615L129.088 32.3341C128.979 32.5393 128.739 33.066 128.37 33.9279C127.959 34.8582 127.59 35.7201 127.269 36.5204C126.872 37.478 126.626 38.1142 126.523 38.4288L126.345 38.3946L126.16 38.4288C125.887 37.8679 125.538 37.0881 125.1 36.0963C124.765 35.3302 124.444 34.5709 124.115 33.8116C123.787 33.0523 123.575 32.5598 123.452 32.3341L123.876 32.3615L124.314 32.3341L124.642 33.196L125.237 34.7487L126.331 37.4438H126.414C126.53 37.2044 126.619 37.0266 126.673 36.9103C126.769 36.7051 126.844 36.5272 126.906 36.3699Z" fill="white"/>
<path d="M130.737 32.7514V34.9813H132.118C132.228 34.9813 132.378 34.9745 132.57 34.9608C132.754 34.9471 132.871 34.9403 132.912 34.9403L132.884 35.1728L132.912 35.4191C132.802 35.4191 132.659 35.4123 132.467 35.3917C132.276 35.3712 132.159 35.3644 132.118 35.3644H130.737V37.9637C130.928 37.9637 131.236 37.9568 131.667 37.9432C132.098 37.9295 132.324 37.9226 132.351 37.9226C132.515 37.9226 132.638 37.9158 132.713 37.909C132.789 37.9021 132.939 37.8748 133.165 37.8406L133.138 38.1073L133.165 38.3741H129.957V32.3204H133.117L133.09 32.5735L133.117 32.8335C132.939 32.7993 132.796 32.7719 132.679 32.7582C132.57 32.7445 132.447 32.7377 132.317 32.7377H131.427H130.737V32.7514Z" fill="white"/>
<path d="M134.41 38.422V32.3273H136.298C136.975 32.3273 137.474 32.4367 137.789 32.6624C138.111 32.8882 138.268 33.2234 138.268 33.6817C138.268 34.1605 138.076 34.5504 137.7 34.8582C137.385 35.1044 136.968 35.2823 136.448 35.3712L138.275 37.6901L138.706 38.1894L138.877 38.4151L138.364 38.3878L137.857 38.422L137.29 37.6422L136.243 36.2741L135.525 35.4328H135.19V38.4151L134.8 38.3878L134.41 38.422ZM135.197 32.6419V35.1044C135.251 35.1044 135.313 35.1044 135.395 35.1044C135.47 35.1044 135.559 35.1044 135.655 35.1044C135.785 35.1044 135.908 35.1044 136.024 35.0976C136.141 35.0908 136.25 35.0771 136.353 35.0566C136.688 34.9882 136.961 34.8377 137.173 34.6188C137.385 34.3999 137.495 34.1194 137.495 33.7911C137.495 33.1549 137.167 32.7787 136.51 32.6761C136.387 32.6556 136.229 32.6488 136.045 32.6488C135.949 32.6488 135.805 32.6488 135.607 32.6488C135.409 32.6488 135.272 32.6419 135.197 32.6419Z" fill="white"/>
<path d="M145.094 32.3273V38.422H144.828L144.362 37.8748L140.525 33.6201H140.436V38.4151L140.19 38.3878L139.944 38.422V32.3273H140.292L144.513 36.9103L144.609 36.9034V32.3204L144.855 32.3478L145.094 32.3273Z" fill="white"/>
<path d="M152.516 32.3273H152.701C152.824 33.5106 152.899 34.2357 152.933 34.5025C153.029 35.378 153.104 36.0552 153.166 36.5409C153.228 37.0266 153.31 37.649 153.419 38.422L153.002 38.3878L152.585 38.4151C152.53 37.82 152.482 37.2591 152.441 36.7187C152.393 36.1784 152.345 35.6448 152.29 35.1181C152.236 34.5914 152.181 34.1605 152.133 33.8321C151.771 34.482 151.456 35.0566 151.189 35.5422C150.881 36.11 150.621 36.6025 150.416 37.0197C150.19 37.478 149.985 37.909 149.801 38.3262H149.705L149.219 37.3207C149.007 36.8761 148.816 36.493 148.651 36.1715C148.487 35.85 148.282 35.4533 148.036 34.995C147.831 34.6119 147.625 34.222 147.42 33.839C147.318 34.6872 147.222 35.5422 147.126 36.4109C147.03 37.2797 146.982 37.95 146.982 38.4288L146.668 38.4015L146.346 38.4288C146.469 37.6559 146.633 36.5614 146.832 35.1455C147.03 33.7227 147.153 32.7924 147.194 32.3478H147.427C147.735 32.9497 147.988 33.4491 148.179 33.8321C148.419 34.2904 148.699 34.8103 149.028 35.4054C149.383 36.0484 149.691 36.5819 149.944 37.006C150.813 35.4396 151.661 33.8869 152.516 32.3273Z" fill="white"/>
<path d="M155.444 32.7514V34.9813H156.826C156.935 34.9813 157.086 34.9745 157.277 34.9608C157.462 34.9471 157.578 34.9403 157.619 34.9403L157.592 35.1728L157.619 35.4191C157.51 35.4191 157.366 35.4123 157.174 35.3917C156.983 35.3712 156.867 35.3644 156.826 35.3644H155.444V37.9637C155.635 37.9637 155.943 37.9568 156.374 37.9432C156.805 37.9295 157.031 37.9226 157.058 37.9226C157.222 37.9226 157.345 37.9158 157.421 37.909C157.496 37.9021 157.646 37.8748 157.872 37.8406L157.845 38.1073L157.872 38.3741H154.664V32.3204H157.824L157.797 32.5735L157.824 32.8335C157.646 32.7993 157.503 32.7719 157.387 32.7582C157.277 32.7445 157.154 32.7377 157.024 32.7377H156.135H155.444V32.7514Z" fill="white"/>
<path d="M164.364 32.3273V38.422H164.097L163.632 37.8748L159.794 33.6201H159.705V38.4151L159.459 38.3878L159.213 38.422V32.3273H159.562L163.782 36.9103L163.878 36.9034V32.3204L164.124 32.3478L164.364 32.3273Z" fill="white"/>
<path d="M168.139 32.7582V38.422L167.75 38.4015L167.36 38.4288V32.7582C166.894 32.7582 166.566 32.765 166.375 32.7787C166.183 32.7924 165.862 32.8198 165.417 32.8676L165.444 32.6009L165.417 32.3341H170.007L169.979 32.6009L170.007 32.8676C169.788 32.8471 169.507 32.8198 169.179 32.7992C168.83 32.7719 168.488 32.7582 168.139 32.7582Z" fill="white"/>
<path d="M42.0725 40.4946L41.6826 41.5138H41.1833L42.4556 38.2715H43.037L44.3093 41.5138H43.7963L43.3995 40.4946H42.0725ZM43.2969 40.1731L42.9344 39.2428C42.8523 39.0308 42.7976 38.8392 42.7429 38.6477H42.7292C42.6745 38.8392 42.6129 39.0376 42.5377 39.236L42.1751 40.1731H43.2969Z" fill="white"/>
<path d="M46.6829 41.4316C46.553 41.4864 46.2725 41.5684 45.91 41.5684C45.1028 41.5684 44.5761 41.0896 44.5761 40.3782C44.5761 39.66 45.1439 39.1401 46.0194 39.1401C46.3067 39.1401 46.5598 39.2017 46.6966 39.2633L46.5872 39.5916C46.4709 39.5369 46.2862 39.4822 46.0194 39.4822C45.4038 39.4822 45.0686 39.8789 45.0686 40.3645C45.0686 40.9049 45.4654 41.2333 45.9989 41.2333C46.2793 41.2333 46.4572 41.1717 46.6008 41.117L46.6829 41.4316Z" fill="white"/>
<path d="M49.1317 41.4316C49.0018 41.4864 48.7213 41.5684 48.3588 41.5684C47.5516 41.5684 47.0249 41.0896 47.0249 40.3782C47.0249 39.66 47.5926 39.1401 48.4682 39.1401C48.7555 39.1401 49.0086 39.2017 49.1454 39.2633L49.036 39.5916C48.9197 39.5369 48.735 39.4822 48.4682 39.4822C47.8526 39.4822 47.5174 39.8789 47.5174 40.3645C47.5174 40.9049 47.9141 41.2333 48.4477 41.2333C48.7281 41.2333 48.906 41.1717 49.0496 41.117L49.1317 41.4316Z" fill="white"/>
<path d="M49.9389 40.433C49.9526 41.0075 50.3698 41.2401 50.8623 41.2401C51.2112 41.2401 51.4232 41.1854 51.6079 41.117L51.69 41.418C51.519 41.4864 51.2249 41.5616 50.8008 41.5616C49.9731 41.5616 49.4806 41.0896 49.4806 40.3851C49.4806 39.6805 49.9594 39.1265 50.7392 39.1265C51.6148 39.1265 51.8473 39.7968 51.8473 40.2209C51.8473 40.3098 51.8337 40.3714 51.8337 40.4193H49.9389V40.433ZM51.3685 40.1251C51.3754 39.8584 51.2386 39.4343 50.6913 39.4343C50.1988 39.4343 49.9799 39.831 49.9457 40.1251H51.3685Z" fill="white"/>
<path d="M52.3809 41.0828C52.5245 41.1649 52.7776 41.2538 53.0239 41.2538C53.3796 41.2538 53.5437 41.0965 53.5437 40.9049C53.5437 40.7066 53.4069 40.5903 53.0444 40.474C52.5656 40.3235 52.333 40.0909 52.333 39.8173C52.333 39.4411 52.6819 39.1333 53.2564 39.1333C53.5301 39.1333 53.7695 39.2017 53.9131 39.2769L53.79 39.5848C53.6874 39.53 53.489 39.448 53.2428 39.448C52.9555 39.448 52.7913 39.5916 52.7913 39.7626C52.7913 39.9541 52.9555 40.0431 53.3043 40.1593C53.7695 40.3098 54.0089 40.515 54.0089 40.8639C54.0089 41.2743 53.6463 41.5616 53.0033 41.5616C52.7092 41.5616 52.4356 41.5 52.2509 41.4043L52.3809 41.0828Z" fill="white"/>
<path d="M54.5698 41.0828C54.7134 41.1649 54.9665 41.2538 55.2128 41.2538C55.5685 41.2538 55.7326 41.0965 55.7326 40.9049C55.7326 40.7066 55.5958 40.5903 55.2333 40.474C54.7545 40.3235 54.5219 40.0909 54.5219 39.8173C54.5219 39.4411 54.8708 39.1333 55.4453 39.1333C55.719 39.1333 55.9584 39.2017 56.102 39.2769L55.9789 39.5848C55.8763 39.53 55.6779 39.448 55.4317 39.448C55.1444 39.448 54.9802 39.5916 54.9802 39.7626C54.9802 39.9541 55.1444 40.0431 55.4932 40.1593C55.9584 40.3098 56.1978 40.515 56.1978 40.8639C56.1978 41.2743 55.8352 41.5616 55.1923 41.5616C54.8981 41.5616 54.6245 41.5 54.4398 41.4043L54.5698 41.0828Z" fill="white"/>
<path d="M58.0241 38.3194C58.2362 38.2783 58.5645 38.251 58.9065 38.251C59.3853 38.251 59.7 38.3262 59.9326 38.4835C60.1241 38.6067 60.2404 38.7982 60.2404 39.0581C60.2404 39.3728 60.001 39.6464 59.6111 39.7695V39.7764C59.9668 39.8516 60.384 40.1115 60.384 40.5904C60.384 40.8708 60.254 41.0829 60.0694 41.2402C59.8094 41.4454 59.3853 41.5412 58.7765 41.5412C58.4414 41.5412 58.1883 41.5206 58.0309 41.5001V38.3194H58.0241ZM58.5029 39.6464H58.9407C59.4537 39.6464 59.7479 39.4138 59.7479 39.106C59.7479 38.723 59.4127 38.5793 58.927 38.5793C58.7081 38.5793 58.5782 38.593 58.5029 38.6067V39.6464ZM58.5029 41.1991C58.5987 41.2128 58.7355 41.2197 58.9065 41.2197C59.4059 41.2197 59.8641 41.0623 59.8641 40.5904C59.8641 40.1457 59.4264 39.9611 58.8997 39.9611H58.5029V41.1991Z" fill="white"/>
<path d="M62.4908 41.5137L62.4498 41.2196H62.4361C62.2856 41.4043 61.9983 41.5685 61.6153 41.5685C61.0749 41.5685 60.7944 41.2333 60.7944 40.8981C60.7944 40.3372 61.369 40.0294 62.4087 40.0294V39.9815C62.4087 39.79 62.3472 39.4411 61.8 39.4411C61.5537 39.4411 61.2869 39.5095 61.1023 39.6121L60.9928 39.3317C61.2117 39.2085 61.5332 39.1265 61.8752 39.1265C62.696 39.1265 62.8944 39.6121 62.8944 40.0773V40.946C62.8944 41.1512 62.9081 41.3427 62.9355 41.5069H62.4908V41.5137ZM62.4224 40.3304C61.8889 40.3235 61.2869 40.4056 61.2869 40.8571C61.2869 41.1307 61.499 41.2606 61.7452 41.2606C62.0941 41.2606 62.313 41.0691 62.3951 40.8707C62.4087 40.8297 62.4224 40.7818 62.4224 40.7339V40.3304Z" fill="white"/>
<path d="M63.681 39.9131C63.681 39.6395 63.6742 39.4001 63.6605 39.188H64.0846L64.0983 39.6463H64.1188C64.2419 39.3317 64.5361 39.1333 64.8644 39.1333C64.9191 39.1333 64.9602 39.1401 65.0012 39.147V39.5437C64.9533 39.5369 64.8986 39.53 64.8371 39.53C64.495 39.53 64.2488 39.7558 64.1804 40.0704C64.1667 40.1251 64.1599 40.1935 64.1599 40.2688V41.5069H63.681V39.9131Z" fill="white"/>
<path d="M65.4869 41.5138C65.5006 41.3564 65.5074 41.117 65.5074 40.9118V38.1005H65.9931V39.5643H66.0067C66.1777 39.3044 66.4924 39.1333 66.9233 39.1333C67.5869 39.1333 68.0588 39.6122 68.052 40.3236C68.052 41.1581 67.45 41.5685 66.8481 41.5685C66.4582 41.5685 66.1504 41.4385 65.952 41.1307H65.9383L65.9178 41.5138H65.4869ZM65.9931 40.5835C65.9931 40.6382 66.0067 40.6861 66.0136 40.734C66.1093 41.0281 66.3898 41.2265 66.7455 41.2265C67.2585 41.2265 67.5595 40.8639 67.5595 40.3304C67.5595 39.8653 67.279 39.4617 66.7592 39.4617C66.424 39.4617 66.1162 39.6601 66.0136 39.9815C65.9999 40.0294 65.9862 40.0842 65.9862 40.1526V40.5835H65.9931Z" fill="white"/>
<path d="M70.152 41.5137L70.1109 41.2264H70.0972C69.9468 41.4111 69.6595 41.5753 69.2764 41.5753C68.736 41.5753 68.4556 41.2401 68.4556 40.9049C68.4556 40.344 69.0302 40.0362 70.0699 40.0362V39.9883C70.0699 39.7968 70.0083 39.448 69.4611 39.448C69.2148 39.448 68.9481 39.5164 68.7634 39.619L68.6539 39.3385C68.8728 39.2154 69.1943 39.1333 69.5363 39.1333C70.3572 39.1333 70.5555 39.619 70.5555 40.0841V40.9528C70.5555 41.158 70.5692 41.3496 70.5966 41.5137H70.152ZM70.0767 40.3304C69.5432 40.3235 68.9412 40.4056 68.9412 40.8571C68.9412 41.1307 69.1533 41.2606 69.3995 41.2606C69.7484 41.2606 69.9673 41.0691 70.0494 40.8707C70.063 40.8297 70.0767 40.7818 70.0767 40.7339V40.3304Z" fill="white"/>
<path d="M73.6474 38.1005V40.9187C73.6474 41.1239 73.6542 41.3633 73.6679 41.5206H73.2301L73.2096 41.117H73.1959C73.0454 41.377 72.7171 41.5753 72.2793 41.5753C71.6295 41.5753 71.1301 41.0965 71.1301 40.392C71.1233 39.619 71.6774 39.1402 72.334 39.1402C72.7444 39.1402 73.0181 39.3112 73.1412 39.4959H73.1549V38.1005H73.6474ZM73.1617 40.1389C73.1617 40.0842 73.1549 40.0157 73.1412 39.961C73.0659 39.6943 72.806 39.4685 72.4366 39.4685C71.9304 39.4685 71.6363 39.8516 71.6363 40.3714C71.6363 40.8434 71.9031 41.2333 72.4298 41.2333C72.7581 41.2333 73.0591 41.0486 73.148 40.7271C73.1617 40.6724 73.1685 40.6109 73.1685 40.5425V40.1389H73.1617Z" fill="white"/>
<path d="M76.8828 40.3304C76.8828 41.1922 76.1988 41.5685 75.549 41.5685C74.8239 41.5685 74.263 41.1101 74.263 40.3714C74.263 39.5916 74.8513 39.1333 75.59 39.1333C76.363 39.1333 76.8828 39.619 76.8828 40.3304ZM74.7555 40.3577C74.7555 40.8707 75.0907 41.2538 75.5695 41.2538C76.0346 41.2538 76.3835 40.8707 76.3835 40.3509C76.3835 39.9541 76.1578 39.4548 75.5832 39.4548C75.0086 39.4548 74.7555 39.9131 74.7555 40.3577Z" fill="white"/>
<path d="M77.4301 41.0828C77.5737 41.1649 77.8268 41.2538 78.0731 41.2538C78.4288 41.2538 78.5929 41.0965 78.5929 40.9049C78.5929 40.7066 78.4561 40.5903 78.0936 40.474C77.6148 40.3235 77.3822 40.0909 77.3822 39.8173C77.3822 39.4411 77.731 39.1333 78.3056 39.1333C78.5792 39.1333 78.8187 39.2017 78.9623 39.2769L78.8392 39.5848C78.7366 39.53 78.5382 39.448 78.292 39.448C78.0047 39.448 77.8405 39.5916 77.8405 39.7626C77.8405 39.9541 78.0047 40.0431 78.3535 40.1593C78.8187 40.3098 79.0581 40.515 79.0581 40.8639C79.0581 41.2743 78.6955 41.5616 78.0525 41.5616C77.7584 41.5616 77.4848 41.5 77.3001 41.4043L77.4301 41.0828Z" fill="white"/>
<path d="M28.8639 35.1524V7.20288H37.1133C40.2598 7.20288 42.5719 7.62698 44.0494 8.47518C45.5269 9.32338 46.2656 10.7872 46.2656 12.8667C46.2656 14.6999 45.6568 16.2526 44.4393 17.5249C43.2217 18.7972 41.6689 19.6659 39.781 20.1311C41.6689 20.1311 43.3106 20.6099 44.706 21.5675C46.4298 22.7441 47.2917 24.4131 47.2917 26.5746C47.2917 29.5023 46.0604 31.8143 43.5979 33.5107C42.5308 34.2494 41.1491 34.7283 39.4527 34.9472C38.413 35.084 36.9081 35.1524 34.9381 35.1524H28.8639ZM32.4756 8.72143V19.5154H34.2746C35.4443 19.5154 36.4156 19.4675 37.1749 19.3718C37.941 19.276 38.7139 19.0503 39.5074 18.6946C41.6074 17.7643 42.6539 16.109 42.6539 13.7285C42.6539 11.8953 42.0657 10.6025 40.896 9.85008C39.7263 9.09765 37.9957 8.72143 35.7042 8.72143H32.4756ZM32.4756 21.1161V33.6338H36.5798C38.6045 33.6338 40.2598 33.0456 41.5458 31.869C42.8318 30.6925 43.4748 29.1603 43.4748 27.2723C43.4748 25.0014 42.6813 23.3734 41.0944 22.3884C39.7263 21.5402 37.6879 21.1161 34.9791 21.1161H32.4756Z" fill="white"/>
<path d="M50.3151 14.9666V33.9416L51.9021 33.8253L53.489 33.9826V14.9666L51.9021 15.0897L50.3151 14.9666Z" fill="white"/>
<path d="M81.117 12.1279H80.6655C79.5437 10.8419 78.1688 9.85695 76.5408 9.17292C74.9129 8.48888 73.2096 8.14687 71.4311 8.14687C67.8468 8.14687 64.9807 9.27552 62.8329 11.526C60.685 13.7764 59.6111 16.9435 59.6111 21.0135C59.6111 25.1655 60.6577 28.3942 62.7508 30.7062C64.8439 33.0182 67.8879 34.1674 71.8826 34.1674C73.0318 34.1674 74.1604 34.0511 75.2685 33.8185C76.3767 33.586 77.3822 33.2371 78.2851 32.772V22.2653L80.091 22.3884L81.8968 22.2653V33.8459C78.2578 35.0977 74.5366 35.727 70.7334 35.727C65.7537 35.727 61.9368 34.3452 59.2828 31.5886C56.8202 29.0235 55.589 25.5623 55.589 21.2187C55.589 16.5741 57.1075 12.9419 60.1446 10.3152C63.0449 7.83222 66.8618 6.58728 71.5953 6.58728C74.2767 6.58728 76.6708 6.90193 78.7776 7.53124C80.0636 7.9143 81.1581 8.39312 82.061 8.96771C81.9515 9.26868 81.8079 9.72014 81.63 10.3221C81.4522 10.924 81.2812 11.526 81.117 12.1279Z" fill="white"/>
<path d="M27.2564 47.4922C80.0362 55.3996 97.2943 38.3536 98.6966 27.6553C99.9004 18.5304 93.067 9.13178 79.3795 3.87158C96.5624 8.87185 103.321 19.0023 101.912 28.5719C100.181 40.3373 89.7631 46.0557 83.2785 48.1284C63.0654 54.6061 39.8221 50.584 27.2564 47.4922Z" fill="white"/>
<path d="M28.8024 47.8274C85.6043 56.5009 98.8471 38.764 100.284 28.0452C101.508 18.8998 94.5445 9.47382 80.604 4.20679C98.1152 9.22073 104.997 19.3717 103.56 28.9619C101.795 40.7545 91.1791 46.4799 84.5782 48.5593C63.9752 55.0508 41.6074 50.9261 28.8024 47.8274Z" fill="white"/>
<path d="M76.9376 4.74714C24.917 -3.4065 7.56318 11.6353 5.98307 21.2528C4.63553 29.4543 10.1693 38.0115 23.6037 43.0186C6.70814 38.1757 1.26326 28.9687 2.82285 20.3636C4.74497 9.78844 15.1354 4.83606 21.579 3.09179C41.6758 -2.35994 64.5771 1.71688 76.9376 4.74714Z" fill="white"/>
<path d="M73.989 4.39117C18.6099 -4.5149 5.34658 11.2178 3.75279 20.8626C2.39157 29.0847 9.0335 37.7171 22.5773 42.7311C5.53811 37.8813 -1.00807 28.5922 0.565205 19.9665C2.50101 9.37091 12.9804 4.40485 19.4718 2.65373C39.7328 -2.79799 61.526 1.35408 73.989 4.39117Z" fill="white"/>
</g>
<defs>
<clipPath id="clip0_1890_8858">
<rect width="169.66" height="52" fill="white" transform="translate(0.339844)"/>
</clipPath>
</defs>
</svg>
