<svg width="50" height="50" viewBox="0 0 50 50" fill="none" xmlns="http://www.w3.org/2000/svg">
<path d="M25 50C38.8071 50 50 38.8071 50 25C50 11.1929 38.8071 0 25 0C11.1929 0 0 11.1929 0 25C0 38.8071 11.1929 50 25 50Z" fill="white"/>
<path d="M6.07175 31.0185H2.93518V18.7245H6.07175L9.10648 25.5138L12.2454 18.7245H15.331V31.0185H11.9352V25.2569L9.13194 31.5833L6.12268 25.155L6.07175 31.0185Z" fill="#322F2F"/>
<path d="M24.7963 24.588C24.8472 19.6505 17.0278 22.375 17.0278 22.375L17.9028 24.588C22.2245 22.581 21.8634 25.1528 21.8634 25.1528C21.8634 25.1528 15.6898 23.8657 16.5648 28.4444C17.4398 33.0232 21.9144 30.4514 21.9144 30.4514V31.0694H24.794C24.794 31.0694 24.7431 29.5255 24.794 24.588H24.7963ZM21.7616 28.5995C21.7616 28.5995 19.3958 29.6273 19.3958 27.9051C19.3958 26.1829 21.7616 27.2107 21.7616 27.2107V28.5995Z" fill="#322F2F"/>
<path d="M34.5185 26.1829C34.5185 26.1829 36.7315 26.2847 36.7315 22.2731C36.7315 18.2616 32.7199 18.7245 32.7199 18.7245H26.3403V31.1736H29.8889V26.9074H31.3287L33.1805 31.1736H37.0393L34.5185 26.1852V26.1829ZM32.1528 24.2292H29.6829V21.6273L32.2662 21.5648C32.2662 21.5648 33.3866 21.6273 33.3866 22.6852C33.3866 24.4352 32.1528 24.2292 32.1528 24.2292Z" fill="#322F2F"/>
<path d="M37.5532 29.7314L39.3333 27.0555C39.3333 27.0555 40.4815 28.0833 43.0023 28.0833C44.3403 28.0833 44.4213 27.8356 44.4954 27.4652C44.6065 26.912 44.3403 26.7963 41.4097 26.1273C38.4769 25.4583 37.706 23.2893 37.963 21.6203C38.2199 19.9537 40.3796 18.0694 43.9815 18.7037C47.5833 19.3379 47.6852 20.0069 47.6852 20.0069L45.9352 22.6296C45.9352 22.6296 43.2083 20.3148 41.4074 22.1666C40.9954 22.6805 41.8704 22.9375 43.7732 23.2986C45.6759 23.6597 48.5579 24.9953 47.8889 27.9027C47.2199 30.8102 43.7222 32.9189 37.5486 29.7291L37.5532 29.7314Z" fill="#322F2F"/>
</svg>
