<svg width="206" height="46" viewBox="0 0 206 46" fill="none" xmlns="http://www.w3.org/2000/svg">
<g clip-path="url(#clip0_1890_8841)">
<path d="M41.905 9.50993C40.955 8.19993 38.335 4.76993 33.505 2.43993L33.585 2.21993H33.045C31.395 1.46993 29.505 0.849935 27.335 0.489935C20.045 -0.730066 13.895 2.08993 10.715 4.03993L10.085 2.21993H2.86497L5.26497 8.91993C3.39497 11.2799 1.43497 14.6599 1.04497 18.7999C0.184975 27.8499 5.13497 40.1299 19.575 41.8599C5.94497 40.2299 -1.63503 24.3699 6.34497 11.9499L14.655 35.1999H21.765L27.135 20.1999V45.7999H45.125V40.0199H37.735C45.025 33.9399 51.525 22.7999 41.905 9.50993ZM18.435 26.6299L11.615 6.66993C14.965 4.39993 20.225 2.01993 26.165 3.27993L18.435 26.6299ZM32.405 5.48993C46.925 13.0799 39.695 31.7099 32.865 34.2999V13.6399H29.485L32.405 5.48993Z" fill="white"/>
<path d="M133.985 27.5899C133.985 27.5899 133.775 30.9499 137.295 30.9499H142.795C143.355 30.9499 143.635 31.2799 143.635 31.9399C143.635 32.5999 143.355 32.9299 142.795 32.9299H137.295C130.825 32.7499 130.025 20.8899 136.855 20.5599H141.725C147.235 20.5599 146.365 27.6499 142.025 27.5799L133.985 27.5899ZM134.045 25.8399L141.375 25.8499C144.115 26.0399 144.345 22.7799 141.605 22.5799H136.965C134.205 22.5799 134.045 25.8399 134.045 25.8399Z" fill="white"/>
<path d="M62.245 32.3099C62.095 32.5799 61.955 32.7599 61.805 32.8299C61.655 32.9099 61.495 32.9399 61.315 32.9399C61.135 32.9399 60.985 32.8999 60.855 32.8099C60.725 32.7199 60.595 32.5599 60.455 32.2999L54.825 22.1199C54.735 21.9699 54.675 21.8399 54.645 21.7299C54.615 21.6199 54.605 21.5099 54.605 21.4099C54.605 21.0699 54.685 20.7999 54.855 20.6099C55.025 20.4099 55.245 20.3199 55.525 20.3199C55.715 20.3199 55.875 20.3699 55.985 20.4599C56.105 20.5499 56.215 20.6899 56.315 20.8799L61.325 30.0899L66.385 20.8799C66.485 20.6899 66.595 20.5499 66.715 20.4599C66.835 20.3699 66.985 20.3199 67.175 20.3199C67.445 20.3199 67.665 20.4099 67.835 20.5999C68.005 20.7899 68.085 21.0499 68.085 21.3899C68.085 21.5099 68.075 21.6199 68.045 21.7299C68.015 21.8399 67.955 21.9699 67.865 22.1199L62.245 32.3099Z" fill="white"/>
<path d="M95.275 24.4899C95.275 23.1799 94.435 22.5299 92.765 22.5299H89.395C87.735 22.5299 86.895 23.1799 86.895 24.4899V31.8699C86.895 32.5799 86.595 32.9399 86.005 32.9399C85.415 32.9399 85.115 32.5799 85.115 31.8699V24.4899C85.115 19.7999 84.495 20.4399 89.465 20.4399H92.715C95.615 20.4399 97.065 21.7899 97.065 24.4899V31.8699C97.065 32.5799 96.765 32.9399 96.175 32.9399C95.585 32.9399 95.285 32.5799 95.285 31.8699V24.4899H95.275Z" fill="white"/>
<path d="M102.705 22.5299V31.8699C102.705 32.5799 102.415 32.9399 101.825 32.9399C101.215 32.9399 100.915 32.5799 100.915 31.8699V22.5299H100.225C99.675 22.5299 99.395 22.1999 99.395 21.5399C99.395 20.8799 99.675 20.5499 100.225 20.5499H100.915V18.2099C100.915 17.4999 101.205 17.1399 101.795 17.1399C102.405 17.1399 102.705 17.4999 102.705 18.2099V20.5499H105.605C106.165 20.5499 106.445 20.8799 106.445 21.5399C106.445 22.1999 106.165 22.5299 105.605 22.5299H102.705Z" fill="white"/>
<path d="M124.015 24.4899C124.015 20.2299 123.625 20.4399 128.365 20.4399H129.665C130.235 20.4399 130.525 20.7899 130.525 21.4799C130.525 22.1799 130.235 22.5199 129.665 22.5199H128.295C126.635 22.5199 125.795 23.1599 125.795 24.4299V31.8599C125.795 32.5699 125.495 32.9299 124.905 32.9299C124.315 32.9299 124.015 32.5699 124.015 31.8599V24.4899Z" fill="white"/>
<path d="M110.025 28.8699C110.025 30.1799 110.935 30.8299 112.755 30.8299H116.415C118.225 30.8299 119.125 30.1699 119.125 28.8699L119.115 21.4899C119.115 20.7799 119.435 20.4199 120.085 20.4199C120.735 20.4199 121.055 20.7799 121.055 21.4899L121.065 28.8699C121.075 33.5599 121.735 32.9199 116.345 32.9199H112.815C109.665 32.9199 108.095 31.5799 108.095 28.8799L108.085 21.4999C108.085 20.7899 108.405 20.4299 109.055 20.4299C109.705 20.4299 110.025 20.7899 110.025 21.4999V28.8699Z" fill="white"/>
<path d="M71.985 27.5899C71.985 27.5899 71.775 30.9499 75.295 30.9499H80.795C81.355 30.9499 81.635 31.2799 81.635 31.9399C81.635 32.5999 81.355 32.9299 80.795 32.9299H75.295C68.825 32.7499 68.025 20.8899 74.855 20.5599H79.725C85.235 20.5599 84.365 27.6499 80.025 27.5799L71.985 27.5899ZM72.045 25.8399L79.375 25.8499C82.115 26.0399 82.345 22.7799 79.605 22.5799H74.965C72.205 22.5799 72.045 25.8399 72.045 25.8399Z" fill="white"/>
<path d="M153.495 33.1899C149.995 33.1899 148.245 31.5299 148.245 28.2199V16.5899C148.245 15.8799 148.565 15.5299 149.195 15.5299C149.855 15.5299 150.185 15.8799 150.185 16.5899V28.1399C150.185 30.1199 151.315 31.0999 153.595 31.0999H161.015C161.615 31.0999 161.915 31.4499 161.915 32.1399C161.915 32.8299 161.615 33.1799 161.015 33.1799H153.495V33.1899Z" fill="white"/>
<path d="M177.135 28.4999H168.085L166.235 32.5799C166.005 33.0699 165.695 33.3199 165.305 33.3199C165.005 33.3199 164.765 33.2299 164.585 33.0499C164.405 32.8699 164.315 32.6199 164.315 32.2799C164.315 32.1499 164.325 32.0199 164.355 31.9099C164.375 31.7999 164.435 31.6599 164.515 31.4899L171.615 16.2099C171.725 15.9699 171.865 15.7999 172.035 15.6999C172.205 15.5999 172.395 15.5399 172.605 15.5199C173.025 15.5199 173.335 15.7499 173.555 16.1999L180.675 31.4499C180.765 31.6199 180.835 31.7599 180.865 31.8799C180.895 31.9999 180.905 32.1299 180.905 32.2599C180.905 32.5999 180.815 32.8599 180.635 33.0299C180.455 33.2099 180.215 33.2999 179.915 33.2999C179.535 33.2999 179.225 33.0499 179.005 32.5599L177.135 28.4999ZM168.975 26.5499H176.255L172.595 18.5399L168.975 26.5499Z" fill="white"/>
<path d="M201.145 17.0032V14.8594H200.38V14.4229H202.43V14.8594H201.666V17.0032H201.145ZM202.761 17.0032V14.4229H203.541L204.009 16.183L204.472 14.4229H205.254V17.0032H204.77V14.972L204.257 17.0032H203.756L203.245 14.972V17.0032H202.761Z" fill="white"/>
<path d="M199.345 29.4699C199.345 32.0399 196.805 33.3199 193.735 33.3199H184.515C183.945 33.3199 183.655 32.9899 183.655 32.3299V16.7699C183.655 16.1099 183.945 15.7799 184.515 15.7799H191.445C194.255 15.7799 196.605 16.8999 197.065 19.1399C197.115 19.3999 197.145 19.6699 197.145 19.9599C197.145 19.9599 197.135 20.4099 197.065 20.9399C196.995 21.4799 196.875 22.0899 196.655 22.4199C197.855 22.5599 199.225 23.7199 199.345 25.6899V29.4699ZM192.465 17.8599H185.735C185.635 17.8599 185.595 17.9199 185.595 18.0399V21.5099H192.605C195.815 21.3899 195.675 17.7399 192.465 17.8599ZM197.405 27.5899C197.405 26.1699 197.855 24.4599 193.665 24.4599H185.595V31.0599C185.595 31.1799 185.645 31.2399 185.735 31.2399H193.665C195.495 31.2399 197.405 30.5699 197.405 29.2399V27.5899Z" fill="white"/>
</g>
<defs>
<clipPath id="clip0_1890_8841">
<rect width="204.56" height="45.62" fill="white" transform="translate(0.944977 0.189941)"/>
</clipPath>
</defs>
</svg>
