<svg width="84" height="50" viewBox="0 0 84 50" fill="none" xmlns="http://www.w3.org/2000/svg">
<path d="M2.76927 48.3138H0.388916V43.1798H2.76927V43.6353H1.07514V45.4334H2.59793V45.8889H1.07514V47.8583H2.76927V48.3138Z" fill="white"/>
<path d="M6.36557 48.3138H5.64176L4.77634 46.6799H4.76148L3.88119 48.3138H3.20197L4.44765 46.2324L3.33571 44.2926H4.02193L4.80519 45.763H4.82005L5.61816 44.2926H6.23707L5.11814 46.1808L6.36382 48.3146L6.36557 48.3138Z" fill="white"/>
<path d="M10.1035 46.2394C10.1035 46.9011 9.94443 47.4221 9.62623 47.8024C9.30804 48.1826 8.88232 48.3732 8.34995 48.3732C8.11568 48.3732 7.90675 48.3409 7.72317 48.2762V49.9178H7.07367V44.5006C7.39711 44.3118 7.81496 44.2174 8.32722 44.2174C8.88931 44.2174 9.32552 44.3992 9.63672 44.762C9.94793 45.1248 10.1027 45.6178 10.1027 46.2394H10.1035ZM9.43916 46.2726C9.43916 45.1711 9.05803 44.6195 8.29488 44.6195C8.08683 44.6195 7.89626 44.6571 7.72317 44.7314V47.881C7.86654 47.9405 8.03001 47.9702 8.21358 47.9702C8.61482 47.9702 8.91903 47.8225 9.12709 47.527C9.33514 47.2315 9.43916 46.8137 9.43916 46.2726Z" fill="white"/>
<path d="M13.9988 46.1869L11.469 46.5523C11.5433 47.458 11.9515 47.9108 12.6928 47.9108C13.0853 47.9108 13.4166 47.8339 13.685 47.6791L13.8563 48.1118C13.553 48.2963 13.1474 48.3881 12.6403 48.3881C12.0931 48.3881 11.663 48.2167 11.3492 47.8732C11.0161 47.5104 10.8492 46.9824 10.8492 46.2909C10.8492 45.5995 11.0004 45.1073 11.3046 44.7393C11.5931 44.3914 11.9812 44.2166 12.469 44.2166C13.5032 44.2166 14.0137 44.873 13.9988 46.186V46.1869ZM13.372 45.9107C13.372 45.0654 13.0652 44.6423 12.4507 44.6423C12.1429 44.6423 11.9034 44.7664 11.7295 45.0155C11.5406 45.2839 11.4497 45.6799 11.4541 46.2018L13.372 45.9107Z" fill="white"/>
<path d="M16.6326 44.2244L16.477 44.7245C16.3485 44.6842 16.2174 44.665 16.0845 44.665C15.8721 44.665 15.699 44.7096 15.5662 44.7996V48.3138H14.9018V44.5085C15.31 44.2996 15.887 44.2052 16.6326 44.2253V44.2244Z" fill="white"/>
<path d="M18.0576 43.1579C18.0576 43.2576 18.02 43.3424 17.9457 43.4114C17.8714 43.4805 17.7813 43.5154 17.6773 43.5154C17.5733 43.5154 17.4763 43.4805 17.4011 43.4114C17.3259 43.3424 17.2892 43.2576 17.2892 43.1579C17.2892 43.0582 17.3268 42.9726 17.4011 42.9C17.4754 42.8283 17.568 42.7916 17.6773 42.7916C17.7866 42.7916 17.8714 42.8275 17.9457 42.9C18.02 42.9726 18.0576 43.0582 18.0576 43.1579ZM18.013 48.3137H17.3486V44.2917H18.013V48.3137Z" fill="white"/>
<path d="M22.0944 46.1869L19.5646 46.5523C19.6389 47.458 20.0471 47.9108 20.7884 47.9108C21.1809 47.9108 21.5123 47.8339 21.7806 47.6791L21.952 48.1118C21.6486 48.2963 21.243 48.3881 20.736 48.3881C20.1888 48.3881 19.7587 48.2167 19.4448 47.8732C19.1118 47.5104 18.9448 46.9824 18.9448 46.2909C18.9448 45.5995 19.0961 45.1073 19.4003 44.7393C19.6887 44.3914 20.0769 44.2166 20.5647 44.2166C21.5988 44.2166 22.1093 44.873 22.0944 46.186V46.1869ZM21.4677 45.9107C21.4677 45.0654 21.1608 44.6423 20.5463 44.6423C20.2386 44.6423 19.9991 44.7664 19.8251 45.0155C19.6363 45.2839 19.5454 45.6799 19.5497 46.2018L21.4677 45.9107Z" fill="white"/>
<path d="M25.9145 48.3138H25.2502V45.4264C25.2502 44.9045 24.9713 44.6431 24.4145 44.6431C24.1286 44.6431 23.8777 44.6903 23.6609 44.7847V48.3138H22.9966V44.5006C23.3891 44.3118 23.8795 44.2174 24.4661 44.2174C24.9783 44.2174 25.3586 44.3442 25.6077 44.5977C25.8114 44.8066 25.9137 45.0776 25.9137 45.4106V48.3129L25.9145 48.3138Z" fill="white"/>
<path d="M29.2495 48.1197C29.0502 48.2989 28.7495 48.3881 28.3465 48.3881C27.8989 48.3881 27.5318 48.1992 27.2459 47.8207C26.9601 47.4431 26.8167 46.9352 26.8167 46.2988C26.8167 45.6624 26.9636 45.1397 27.2573 44.762C27.5361 44.3992 27.9042 44.2174 28.3614 44.2174C28.7495 44.2174 29.045 44.3066 29.2495 44.4858L29.093 44.866C28.9191 44.7367 28.7198 44.672 28.496 44.672C27.8194 44.672 27.4811 45.207 27.4811 46.2761C27.4811 46.7682 27.5659 47.159 27.7346 47.4475C27.9085 47.7508 28.1551 47.9029 28.4733 47.9029C28.697 47.9029 28.9007 47.8382 29.0852 47.7088L29.2495 48.1188V48.1197Z" fill="white"/>
<path d="M32.8834 46.1869L30.3535 46.5523C30.4279 47.458 30.8361 47.9108 31.5774 47.9108C31.9708 47.9108 32.3012 47.8339 32.5696 47.6791L32.7409 48.1118C32.4376 48.2963 32.0319 48.3881 31.5249 48.3881C30.9777 48.3881 30.5476 48.2167 30.2338 47.8732C29.9007 47.5104 29.7338 46.9824 29.7338 46.2909C29.7338 45.5995 29.885 45.1073 30.1892 44.7393C30.4777 44.3914 30.8658 44.2166 31.3527 44.2166C32.3877 44.2166 32.8974 44.873 32.8825 46.186L32.8834 46.1869ZM32.2566 45.9107C32.2566 45.0654 31.9498 44.6423 31.3352 44.6423C31.0275 44.6423 30.788 44.7664 30.6141 45.0155C30.4252 45.2839 30.3334 45.6799 30.3387 46.2018L32.2566 45.9107Z" fill="white"/>
<path d="M39.3531 45.6947C39.3531 46.5208 39.1844 47.1668 38.8461 47.6345C38.4833 48.1372 37.951 48.3881 37.249 48.3881C36.6572 48.3881 36.2044 48.2963 35.8906 48.1118V43.3887C36.2341 43.1999 36.6764 43.1055 37.2184 43.1055C37.9151 43.1055 38.4466 43.3389 38.8155 43.8066C39.1739 44.2541 39.3531 44.8835 39.3531 45.6947ZM38.6442 45.6869C38.6442 44.2594 38.1643 43.5452 37.2044 43.5452C36.9509 43.5452 36.7394 43.5801 36.5698 43.6492V47.805C36.7341 47.8697 36.9474 47.902 37.2114 47.902C37.7184 47.902 38.0865 47.7132 38.3155 47.3347C38.534 46.9815 38.6442 46.4317 38.6442 45.686V45.6869Z" fill="white"/>
<path d="M41.0394 43.1579C41.0394 43.2576 41.0018 43.3424 40.9275 43.4114C40.8532 43.4805 40.7632 43.5154 40.6591 43.5154C40.5551 43.5154 40.4581 43.4805 40.3829 43.4114C40.3077 43.3424 40.271 43.2576 40.271 43.1579C40.271 43.0582 40.3086 42.9726 40.3829 42.9C40.4572 42.8283 40.5499 42.7916 40.6591 42.7916C40.7684 42.7916 40.8532 42.8275 40.9275 42.9C41.0018 42.9726 41.0394 43.0582 41.0394 43.1579ZM40.9948 48.3137H40.3304V44.2917H40.9948V48.3137Z" fill="white"/>
<path d="M44.9565 48.3959C44.9565 48.903 44.8193 49.2972 44.5465 49.5787C44.2729 49.8593 43.8944 50 43.4127 50C42.8856 50 42.4704 49.9082 42.167 49.7238L42.3681 49.2832C42.647 49.4423 42.9573 49.5219 43.3008 49.5219C43.9827 49.5219 44.3227 49.1713 44.3227 48.4694V48.1861C44.1287 48.3007 43.8603 48.3575 43.5167 48.3575C43.0342 48.3575 42.6496 48.18 42.3637 47.8242C42.0779 47.4685 41.9345 46.985 41.9345 46.3731C41.9345 45.7166 42.0927 45.193 42.4083 44.8022C42.7239 44.4115 43.1758 44.2166 43.7624 44.2166C44.265 44.2166 44.6628 44.311 44.9565 44.4998V48.3951V48.3959ZM44.3219 47.8068V44.7323C44.1872 44.658 43.9958 44.6204 43.7475 44.6204C42.9713 44.6204 42.5831 45.1991 42.5831 46.3548C42.5831 47.4317 42.9512 47.9702 43.6872 47.9702C43.9311 47.9702 44.1427 47.916 44.321 47.8068H44.3219Z" fill="white"/>
<path d="M46.7617 43.1579C46.7617 43.2576 46.7241 43.3424 46.6498 43.4114C46.5755 43.4805 46.4854 43.5154 46.3814 43.5154C46.2774 43.5154 46.1804 43.4805 46.1052 43.4114C46.03 43.3424 45.9933 43.2576 45.9933 43.1579C45.9933 43.0582 46.0309 42.9726 46.1052 42.9C46.1795 42.8283 46.2721 42.7916 46.3814 42.7916C46.4907 42.7916 46.5755 42.8275 46.6498 42.9C46.7241 42.9726 46.7617 43.0582 46.7617 43.1579ZM46.7171 48.3137H46.0527V44.2917H46.7171V48.3137Z" fill="white"/>
<path d="M49.3885 48.298C49.2539 48.3382 49.135 48.3583 49.0301 48.3583C48.6918 48.3583 48.433 48.2508 48.2538 48.0366C48.1044 47.8522 48.0301 47.6196 48.0301 47.3399V44.6955H47.5676V44.2926H48.0301V43.3677L48.6944 43.1666V44.2934H49.3885V44.6964H48.6944V47.3277C48.6944 47.7175 48.8614 47.9125 49.1962 47.9125C49.2355 47.9125 49.2994 47.9002 49.3885 47.8749V48.2989V48.298Z" fill="white"/>
<path d="M52.873 48.1048C52.5347 48.2937 52.0897 48.3881 51.5372 48.3881C50.5171 48.3881 50.0074 47.9929 50.0074 47.2018C50.0074 46.7097 50.226 46.3417 50.6639 46.0978C51.0119 45.9037 51.5416 45.7691 52.2532 45.6948V45.4482C52.2532 44.9159 51.9568 44.6501 51.365 44.6501C51.0564 44.6501 50.733 44.7349 50.3947 44.9036L50.2382 44.5155C50.601 44.3162 51.0119 44.2166 51.4691 44.2166C52.4044 44.2166 52.8721 44.6519 52.8721 45.5226V48.104L52.873 48.1048ZM52.2541 47.8732V46.0304C51.692 46.1004 51.296 46.207 51.0678 46.3513C50.7793 46.5305 50.6351 46.8093 50.6351 47.187C50.6351 47.7342 50.9533 48.0078 51.5906 48.0078C51.8694 48.0078 52.0906 47.9632 52.2549 47.8732H52.2541Z" fill="white"/>
<path d="M54.6335 48.3137H53.9692V42.4568H54.6335V48.3137Z" fill="white"/>
<path d="M60.8794 44.6571C60.8794 45.1099 60.7396 45.4753 60.4607 45.7542C60.146 46.0628 59.6897 46.2166 59.0909 46.2166C58.9808 46.2166 58.8636 46.2114 58.7386 46.2018L58.507 46.1791V48.3129H57.8426V43.3878C58.1713 43.199 58.5987 43.1046 59.1259 43.1046C59.7081 43.1046 60.1504 43.2515 60.4537 43.5452C60.737 43.8136 60.8794 44.1842 60.8794 44.6571ZM60.2151 44.6458C60.2151 43.887 59.8401 43.5076 59.0909 43.5076C58.8505 43.5076 58.6564 43.5399 58.5061 43.6046V45.7603L58.7307 45.7831C58.8304 45.7935 58.9257 45.7979 59.0157 45.7979C59.8147 45.7979 60.2151 45.4133 60.2151 44.6449V44.6458Z" fill="white"/>
<path d="M64.252 48.1048C63.9137 48.2937 63.4687 48.3881 62.9163 48.3881C61.8961 48.3881 61.3865 47.9929 61.3865 47.2018C61.3865 46.7097 61.605 46.3417 62.043 46.0978C62.3909 45.9037 62.9206 45.7691 63.6322 45.6948V45.4482C63.6322 44.9159 63.3359 44.6501 62.7441 44.6501C62.4355 44.6501 62.112 44.7349 61.7737 44.9036L61.6173 44.5155C61.98 44.3162 62.3909 44.2166 62.8481 44.2166C63.7834 44.2166 64.2511 44.6519 64.2511 45.5226V48.104L64.252 48.1048ZM63.6331 47.8732V46.0304C63.071 46.1004 62.675 46.207 62.4468 46.3513C62.1584 46.5305 62.0141 46.8093 62.0141 47.187C62.0141 47.7342 62.3323 48.0078 62.9696 48.0078C63.2484 48.0078 63.4696 47.9632 63.634 47.8732H63.6331Z" fill="white"/>
<path d="M67.0354 44.2244L66.8798 44.7245C66.7513 44.6842 66.6201 44.665 66.4873 44.665C66.2748 44.665 66.1017 44.7096 65.9689 44.7996V48.3138H65.3045V44.5085C65.7127 44.2996 66.2897 44.2052 67.0354 44.2253V44.2244Z" fill="white"/>
<path d="M70.2505 48.1048C69.9122 48.2937 69.4673 48.3881 68.9148 48.3881C67.8946 48.3881 67.385 47.9929 67.385 47.2018C67.385 46.7097 67.6035 46.3417 68.0415 46.0978C68.3894 45.9037 68.9192 45.7691 69.6307 45.6948V45.4482C69.6307 44.9159 69.3344 44.6501 68.7426 44.6501C68.434 44.6501 68.1106 44.7349 67.7723 44.9036L67.6158 44.5155C67.9786 44.3162 68.3894 44.2166 68.8466 44.2166C69.782 44.2166 70.2496 44.6519 70.2496 45.5226V48.104L70.2505 48.1048ZM69.6316 47.8732V46.0304C69.0695 46.1004 68.6735 46.207 68.4454 46.3513C68.1569 46.5305 68.0127 46.8093 68.0127 47.187C68.0127 47.7342 68.3309 48.0078 68.9681 48.0078C69.247 48.0078 69.4681 47.9632 69.6325 47.8732H69.6316Z" fill="white"/>
<path d="M74.1834 48.1048C73.8748 48.2936 73.4543 48.388 72.9229 48.388C72.3608 48.388 71.9254 48.2062 71.6169 47.8425C71.3083 47.4789 71.1544 46.985 71.1544 46.3626C71.1544 45.7043 71.3161 45.1842 71.6396 44.8004C71.9525 44.4315 72.373 44.2471 72.901 44.2471C73.1099 44.2471 73.3215 44.2794 73.5348 44.3441V42.4568H74.1843V48.1056L74.1834 48.1048ZM73.5339 47.8434V44.7025C73.3494 44.6527 73.1834 44.6282 73.0339 44.6282C72.6012 44.6282 72.2803 44.8004 72.0714 45.144C71.8922 45.4281 71.803 45.8171 71.803 46.311C71.803 47.4081 72.1859 47.9562 72.9517 47.9562C73.2253 47.9562 73.4194 47.9186 73.5339 47.8443V47.8434Z" fill="white"/>
<path d="M75.9885 43.1579C75.9885 43.2576 75.951 43.3424 75.8766 43.4114C75.8023 43.4805 75.7123 43.5154 75.6083 43.5154C75.5043 43.5154 75.4072 43.4805 75.332 43.4114C75.2569 43.3424 75.2202 43.2576 75.2202 43.1579C75.2202 43.0582 75.2577 42.9726 75.332 42.9C75.4063 42.8283 75.499 42.7916 75.6083 42.7916C75.7175 42.7916 75.8023 42.8275 75.8766 42.9C75.951 42.9726 75.9885 43.0582 75.9885 43.1579ZM75.944 48.3137H75.2796V44.2917H75.944V48.3137Z" fill="white"/>
<path d="M79.1749 47.194C79.1749 47.5122 79.0534 47.7858 78.8095 48.0148C78.5508 48.2535 78.2229 48.3732 77.8243 48.3732C77.3811 48.3732 77.0384 48.2815 76.7946 48.097L76.9746 47.6643C77.1643 47.8234 77.4266 47.9029 77.7614 47.9029C77.9808 47.9029 78.1609 47.8374 78.3007 47.7054C78.4406 47.5734 78.5105 47.4082 78.5105 47.2089C78.5105 47.0095 78.4581 46.8531 78.3532 46.7386C78.2483 46.624 78.0787 46.5244 77.8436 46.4405C77.2133 46.2071 76.8986 45.8312 76.8986 45.3137C76.8986 45.0051 77.0096 44.7437 77.2308 44.5304C77.4519 44.3162 77.7422 44.2096 78.0997 44.2096C78.4572 44.2096 78.7658 44.3014 79.0394 44.4858L78.8681 44.881C78.6688 44.7315 78.445 44.6572 78.1967 44.6572C77.9878 44.6572 77.8235 44.7184 77.7046 44.8399C77.5848 44.9614 77.5254 45.1126 77.5254 45.2909C77.5254 45.6039 77.7491 45.846 78.1967 46.0147C78.848 46.2639 79.174 46.6564 79.174 47.194H79.1749Z" fill="white"/>
<path d="M83.0396 46.1869L80.5097 46.5523C80.584 47.458 80.9923 47.9108 81.7336 47.9108C82.1269 47.9108 82.4574 47.8339 82.7257 47.6791L82.8971 48.1118C82.5937 48.2963 82.1881 48.3881 81.6811 48.3881C81.1339 48.3881 80.7038 48.2167 80.39 47.8732C80.0569 47.5104 79.89 46.9824 79.89 46.2909C79.89 45.5995 80.0421 45.1073 80.3454 44.7393C80.6339 44.3914 81.022 44.2166 81.5098 44.2166C82.5448 44.2166 83.0544 44.873 83.0396 46.186V46.1869ZM82.4128 45.9107C82.4128 45.0654 82.106 44.6423 81.4914 44.6423C81.1837 44.6423 80.9442 44.7664 80.7702 45.0155C80.5814 45.2839 80.4905 45.6799 80.4949 46.2018L82.4128 45.9107Z" fill="white"/>
<path d="M47.5475 8.34242C47.5475 9.11081 47.2984 9.73759 46.7984 10.2236C46.2984 10.7097 45.6611 10.9536 44.8848 10.9536C44.0229 10.9536 43.3402 10.7918 42.8367 10.4675L43.1435 9.64842C43.5867 9.92204 44.099 10.0584 44.6794 10.0584C45.1829 10.0584 45.5842 9.90893 45.8823 9.61083C46.1804 9.31274 46.3298 8.9115 46.3298 8.40798C46.3298 8.01548 46.2127 7.69117 45.9776 7.43504C45.7424 7.1789 45.3482 6.94026 44.7939 6.71822C43.5482 6.22344 42.925 5.43844 42.925 4.36322C42.925 3.67175 43.1531 3.08781 43.6094 2.60964C44.0657 2.13147 44.6654 1.89282 45.4076 1.89282C46.1498 1.89282 46.7599 2.05105 47.2127 2.36662L46.9295 3.10879C46.4924 2.83605 46.0256 2.6988 45.5291 2.6988C45.0667 2.6988 44.7065 2.8378 44.4495 3.11491C44.1925 3.39202 44.064 3.76966 44.064 4.24783C44.064 4.66568 44.21 5.00748 44.5011 5.27147C44.7153 5.47603 45.0623 5.67272 45.5413 5.86066C46.8771 6.38167 47.5458 7.20863 47.5458 8.34417L47.5475 8.34242Z" fill="white"/>
<path d="M55.1502 6.33373C55.1502 7.74988 54.86 8.86007 54.2795 9.66168C53.6563 10.5236 52.7436 10.9546 51.5408 10.9546C50.525 10.9546 49.7487 10.7963 49.2111 10.4808V2.37813C49.8003 2.05381 50.5591 1.89209 51.4892 1.89209C52.6842 1.89209 53.5968 2.29333 54.228 3.09494C54.8425 3.86333 55.1493 4.94293 55.1493 6.33373H55.1502ZM53.9342 6.32061C53.9342 3.8712 53.1108 2.64737 51.4638 2.64737C51.0285 2.64737 50.6657 2.70681 50.3755 2.82657V9.9554C50.657 10.0664 51.0241 10.1215 51.4761 10.1215C52.3468 10.1215 52.9779 9.79717 53.3704 9.14854C53.7454 8.54275 53.9334 7.59952 53.9334 6.31974L53.9342 6.32061Z" fill="white"/>
<path d="M62.8944 6.42279C62.8944 7.7795 62.6514 8.85035 62.1645 9.63535C61.6181 10.5148 60.8034 10.9536 59.7194 10.9536C58.6355 10.9536 57.8164 10.5139 57.2622 9.63535C56.7761 8.85035 56.5322 7.7795 56.5322 6.42279C56.5322 5.06608 56.7752 4.00834 57.2622 3.22247C57.8164 2.33519 58.6363 1.89111 59.7194 1.89111C60.8025 1.89111 61.6094 2.33519 62.1645 3.22247C62.6505 4.00747 62.8944 5.07395 62.8944 6.42279ZM61.7038 6.38433C61.7038 3.90956 61.0421 2.67262 59.7194 2.67262C58.3968 2.67262 57.7228 3.91044 57.7228 6.38433C57.7228 8.85822 58.3881 10.0838 59.7194 10.0838C61.0508 10.0838 61.7038 8.85122 61.7038 6.38433Z" fill="white"/>
<path d="M69.3064 10.4676C68.8798 10.7919 68.3037 10.9536 67.5782 10.9536C66.5545 10.9536 65.7389 10.5104 65.1331 9.62224C64.5614 8.78566 64.2756 7.71918 64.2756 6.42192C64.2756 5.12465 64.5614 4.07915 65.1331 3.23471C65.7389 2.33869 66.5536 1.89111 67.5782 1.89111C68.2775 1.89111 68.8492 2.05371 69.2933 2.37715L69.0118 3.06862C68.6359 2.83784 68.2268 2.72332 67.7827 2.72332C66.9977 2.72332 66.4085 3.10708 66.016 3.87547C65.6742 4.5241 65.5038 5.37292 65.5038 6.42279C65.5038 7.47266 65.6786 8.30837 66.0283 8.957C66.4295 9.69917 67.0091 10.0707 67.7687 10.0707C68.2119 10.0707 68.6219 9.9553 68.9978 9.72539L69.3046 10.4676H69.3064Z" fill="white"/>
<path d="M75.0794 10.4676C74.6528 10.7919 74.0767 10.9536 73.3512 10.9536C72.3275 10.9536 71.5119 10.5104 70.9061 9.62224C70.3344 8.78566 70.0486 7.71918 70.0486 6.42192C70.0486 5.12465 70.3344 4.07915 70.9061 3.23471C71.5119 2.33869 72.3267 1.89111 73.3512 1.89111C74.0505 1.89111 74.6222 2.05371 75.0663 2.37715L74.7848 3.06862C74.4089 2.83784 73.9998 2.72332 73.5557 2.72332C72.7707 2.72332 72.1816 3.10708 71.7891 3.87547C71.4473 4.5241 71.2768 5.37292 71.2768 6.42279C71.2768 7.47266 71.4516 8.30837 71.8013 8.957C72.2025 9.69917 72.7821 10.0707 73.5418 10.0707C73.985 10.0707 74.3949 9.9553 74.7708 9.72539L75.0777 10.4676H75.0794Z" fill="white"/>
<path d="M82.7214 10.8259H81.5054L80.6732 8.1894H77.6521L76.7945 10.8259H75.7193L78.702 2.01953H79.7518L82.7214 10.8259ZM80.4818 7.49793L79.4581 4.14725C79.313 3.68569 79.2273 3.32991 79.202 3.08164H79.1766C79.125 3.32116 79.0359 3.67608 78.9074 4.14725L77.8575 7.49793H80.4818Z" fill="white"/>
<path d="M47.9951 22.7653C47.5685 23.0896 46.9925 23.2513 46.2669 23.2513C45.2432 23.2513 44.4276 22.8081 43.8219 21.92C43.2501 21.0834 42.9643 20.0169 42.9643 18.7197C42.9643 17.4224 43.2501 16.3778 43.8219 15.5325C44.4276 14.6364 45.2424 14.188 46.2669 14.188C46.9662 14.188 47.5379 14.3506 47.982 14.674L47.7005 15.3655C47.3246 15.1356 46.9155 15.0202 46.4714 15.0202C45.6864 15.0202 45.0973 15.404 44.7048 16.1723C44.363 16.821 44.1925 17.6698 44.1925 18.7197C44.1925 19.7695 44.3673 20.6061 44.717 21.2539C45.1182 21.996 45.6978 22.3676 46.4575 22.3676C46.9007 22.3676 47.3106 22.2522 47.6865 22.0223L47.9934 22.7644L47.9951 22.7653Z" fill="white"/>
<path d="M54.6003 14.3184L52.1815 19.2207V23.1247H51.004V19.2207L48.6105 14.3184H49.8781L51.6317 18.2993H51.657L53.4744 14.3184H54.6012H54.6003Z" fill="white"/>
<path d="M61.3708 20.7434C61.3708 21.5879 61.0674 22.2286 60.4616 22.6631C59.9065 23.0556 59.1478 23.2523 58.1836 23.2523C57.2194 23.2523 56.374 23.0906 55.777 22.7662V14.6767C56.3399 14.3524 57.104 14.1907 58.0682 14.1907C59.0324 14.1907 59.7448 14.3952 60.2824 14.8052C60.786 15.2065 61.0377 15.7353 61.0377 16.3927C61.0377 16.9731 60.8498 17.4513 60.4747 17.8263C60.1679 18.1506 59.7833 18.3552 59.3226 18.4409V18.4662C59.8174 18.5606 60.2615 18.7905 60.654 19.1577C61.1312 19.6018 61.3708 20.1306 61.3708 20.7452V20.7434ZM59.8987 16.488C59.8987 15.4171 59.2841 14.8813 58.0559 14.8813C57.6381 14.8813 57.2499 14.9451 56.8915 15.0727V18.197H57.4676C58.3549 18.197 58.9825 18.0606 59.3488 17.7887C59.716 17.5169 59.8995 17.0833 59.8995 16.488H59.8987ZM60.1802 20.7565C60.1802 20.0651 59.9669 19.5642 59.5403 19.253C59.1137 18.9418 58.4266 18.7862 57.4799 18.7862H56.8907V22.2933C57.215 22.4297 57.6285 22.4979 58.132 22.4979C59.4974 22.4979 60.1802 21.9174 60.1802 20.7574V20.7565Z" fill="white"/>
<path d="M67.0545 23.1237H62.9713V14.3174H67.0545V15.098H64.1488V18.1829H66.76V18.9636H64.1488V22.3431H67.0545V23.1237Z" fill="white"/>
<path d="M74.068 23.1238H72.7367L69.844 19.0152H69.8187V23.1238H68.6543V14.6628C69.226 14.3472 69.9551 14.189 70.8432 14.189C71.8328 14.189 72.5837 14.4171 73.0959 14.8734C73.6082 15.3298 73.8643 15.9723 73.8643 16.8001C73.8643 17.5423 73.6231 18.1271 73.1414 18.5537C72.6589 18.9803 72.0085 19.2023 71.1894 19.2189L74.0698 23.1229L74.068 23.1238ZM72.6982 16.8517C72.6982 15.5378 72.0714 14.8804 70.817 14.8804C70.3816 14.8804 70.0486 14.9442 69.8187 15.0727V18.7591C69.9891 18.8107 70.2409 18.836 70.574 18.836C71.9901 18.836 72.6991 18.1752 72.6991 16.8517H72.6982Z" fill="white"/>
<path d="M44.4757 35.4844H43.2982V26.6781H44.4757V35.4844Z" fill="white"/>
<path d="M52.8083 35.4844H51.7847L48.0345 29.0593C47.8378 28.7184 47.6507 28.3643 47.4715 27.9972H47.4462C47.4715 28.381 47.4846 28.7437 47.4846 29.0855V35.4853H46.4995V26.679H47.7408L51.338 32.8611C51.5338 33.1941 51.7007 33.5053 51.8371 33.7955H51.8625C51.8371 33.4887 51.824 33.1644 51.824 32.8226V26.679H52.8101V35.4853L52.8083 35.4844Z" fill="white"/>
<path d="M59.5149 35.1261C59.0883 35.4504 58.5122 35.6122 57.7867 35.6122C56.763 35.6122 55.9474 35.1681 55.3416 34.2808C54.7699 33.4442 54.4841 32.3777 54.4841 31.0805C54.4841 29.7832 54.7699 28.7377 55.3416 27.8933C55.9474 26.9973 56.7621 26.5497 57.7867 26.5497C58.486 26.5497 59.0577 26.7123 59.5018 27.0357L59.2203 27.7272C58.8444 27.4964 58.4353 27.3819 57.9912 27.3819C57.2062 27.3819 56.617 27.7656 56.2245 28.534C55.8827 29.1827 55.7123 30.0315 55.7123 31.0814C55.7123 32.1312 55.8871 32.9669 56.2368 33.6156C56.638 34.3577 57.2176 34.7293 57.9772 34.7293C58.4204 34.7293 58.8304 34.6139 59.2063 34.384L59.5131 35.1261H59.5149Z" fill="white"/>
<path d="M62.6505 34.793C62.6505 34.9976 62.5797 35.1724 62.439 35.3175C62.2982 35.4626 62.1251 35.5352 61.9206 35.5352C61.716 35.5352 61.5412 35.4626 61.3961 35.3175C61.251 35.1724 61.1784 34.9976 61.1784 34.793C61.1784 34.5885 61.251 34.4154 61.3961 34.2747C61.5412 34.1339 61.716 34.0631 61.9206 34.0631C62.1251 34.0631 62.2982 34.1339 62.439 34.2747C62.5797 34.4154 62.6505 34.5885 62.6505 34.793Z" fill="white"/>
<path d="M35.6475 33.8787C35.7918 33.8804 35.908 33.9984 35.9071 34.1435C35.9054 34.2878 35.7883 34.4032 35.6449 34.4032H35.6388C35.589 34.4032 35.0426 34.4128 34.7734 34.807C34.4954 35.2126 34.6143 35.8368 35.0435 36.2258C35.151 36.3237 35.1589 36.4889 35.0618 36.5964C35.0103 36.6533 34.9386 36.6821 34.8678 36.6821C34.8048 36.6821 34.7419 36.6603 34.6912 36.6148C34.0618 36.0431 33.9106 35.1392 34.3406 34.5107C34.7664 33.8883 35.5575 33.8795 35.6475 33.8787Z" fill="white"/>
<path d="M35.0557 31.368C35.1572 31.472 35.1545 31.6381 35.0505 31.7395C34.4683 32.3025 33.9989 32.9564 33.6545 33.6837C33.2375 34.5622 33.0128 35.5448 33.0058 36.5256C33.005 36.6698 32.8878 36.7861 32.7436 36.7861H32.7418C32.5967 36.7852 32.4805 36.6663 32.4813 36.5221C32.4892 35.4652 32.7305 34.4057 33.1798 33.459C33.5522 32.6749 34.0583 31.9694 34.6851 31.3628C34.7891 31.2614 34.9552 31.264 35.0557 31.368Z" fill="white"/>
<path d="M33.0679 29.3723C33.213 29.3802 33.324 29.5034 33.3161 29.6477C33.2436 31.0402 32.9044 32.3803 32.3074 33.6321C31.7995 34.6951 31.1202 35.6602 30.288 36.5011C30.2365 36.5527 30.1692 36.5789 30.1018 36.5789C30.0345 36.5789 29.9681 36.5536 29.9174 36.5029C29.8142 36.4015 29.8134 36.2354 29.9156 36.1322C30.7068 35.3332 31.3519 34.4162 31.8336 33.4066C32.4009 32.2177 32.7235 30.9441 32.7925 29.6206C32.8004 29.4755 32.9236 29.3636 33.0679 29.3723Z" fill="white"/>
<path d="M31.796 28.0278C31.9393 28.0471 32.039 28.18 32.0189 28.3233C31.8877 29.2648 31.6753 30.2036 31.3877 31.1119C31.1526 31.8541 30.8309 32.8699 30.1202 34.0675C29.6097 34.9276 28.9864 35.7293 28.2669 36.4504C28.2162 36.5011 28.1489 36.5274 28.0816 36.5274C28.0143 36.5274 27.9479 36.5011 27.8963 36.4504C27.794 36.3482 27.7931 36.1821 27.8954 36.0798C28.5843 35.3901 29.1804 34.6226 29.6691 33.8C30.3492 32.6539 30.6604 31.6714 30.8877 30.9537C31.1666 30.0725 31.3729 29.1634 31.4996 28.2508C31.5197 28.1074 31.6526 28.0077 31.796 28.0278Z" fill="white"/>
<path d="M30.5188 26.8389C30.6604 26.8695 30.7513 27.0085 30.7207 27.1501C30.6228 27.6126 30.4978 28.075 30.3509 28.5243C30.1499 29.138 29.9007 29.7429 29.6114 30.3216C29.5651 30.4134 29.4724 30.4658 29.3762 30.4658C29.3369 30.4658 29.2967 30.4571 29.2591 30.4387C29.1297 30.3732 29.0773 30.2158 29.142 30.0864C29.4199 29.5305 29.6595 28.95 29.8527 28.3608C29.9943 27.9299 30.1132 27.4858 30.2076 27.0409C30.2382 26.8992 30.3772 26.8092 30.5188 26.8389Z" fill="white"/>
<path d="M29.3666 30.736C29.5021 30.7875 29.5695 30.9388 29.5179 31.0743C29.1114 32.1399 28.6175 33.1801 28.0502 34.1679C27.537 35.0605 26.9548 35.925 26.3193 36.7371C26.2677 36.8036 26.1908 36.8376 26.113 36.8376C26.0562 36.8376 25.9994 36.8193 25.9513 36.7826C25.8376 36.6925 25.8175 36.5282 25.9067 36.4137C26.5265 35.6217 27.0938 34.7781 27.5947 33.9066C28.1489 32.9424 28.6315 31.9266 29.0283 30.8872C29.0799 30.7517 29.2312 30.6844 29.3666 30.736Z" fill="white"/>
<path d="M28.9654 26.1142C29.107 26.144 29.197 26.2838 29.1664 26.4254C28.8115 28.0925 28.3185 29.7106 27.7031 31.2342C27.2826 32.2762 26.8744 33.1093 26.4897 33.7125C25.8175 34.7659 24.9801 35.71 24.001 36.5186C23.952 36.5588 23.8926 36.5789 23.834 36.5789C23.758 36.5789 23.6837 36.5465 23.6312 36.4836C23.5394 36.3717 23.5552 36.2065 23.6662 36.1147C24.6033 35.3402 25.404 34.4372 26.0474 33.4301C26.5046 32.7133 26.9356 31.7334 27.2171 31.0384C27.8211 29.5419 28.3045 27.9535 28.6542 26.3162C28.6839 26.1737 28.8238 26.0836 28.9654 26.1142Z" fill="white"/>
<path d="M26.9994 25.1764C27.1436 25.179 27.259 25.2988 27.2555 25.4439C27.2188 27.2394 26.8639 28.9624 26.1995 30.563C26.0186 31.0018 25.6121 31.8926 24.9346 32.9372C24.0089 34.363 22.8576 35.6384 21.5122 36.7276C21.4633 36.7669 21.4056 36.7862 21.347 36.7862C21.271 36.7862 21.1949 36.753 21.1433 36.6891C21.0524 36.5764 21.0699 36.4112 21.1818 36.3202C22.4843 35.2651 23.5989 34.0308 24.494 32.6514C25.1496 31.6417 25.5404 30.7841 25.7152 30.3628C26.3543 28.8216 26.696 27.1634 26.731 25.4325C26.7345 25.2883 26.8517 25.1703 26.9994 25.1764Z" fill="white"/>
<path d="M26.3114 12.9433C26.4312 13.0246 26.4635 13.188 26.3822 13.3078C26.3315 13.383 26.2485 13.4232 26.1646 13.4232C26.1139 13.4232 26.0632 13.4083 26.0177 13.3786C25.5124 13.0368 25.0448 12.6417 24.6278 12.202C24.1671 11.7159 23.9416 11.3628 23.5316 10.7203C23.3812 10.4842 23.2108 10.2168 22.9931 9.88632C22.3733 8.94659 22.0516 8.53311 21.8602 8.28572C21.6591 8.02697 21.5761 7.92032 21.4624 7.603C21.1984 6.86345 21.2255 6.31972 21.2474 5.88351C21.2701 5.43943 21.2858 5.11774 21.0218 4.70251C20.6049 4.04426 19.7123 3.49354 19.0497 3.7217C18.3076 3.97783 18.0672 5.19729 18.0864 5.95344C18.0986 6.41238 18.2149 6.69386 18.4247 7.20525C18.5401 7.48586 18.6835 7.83465 18.8495 8.30845C19.1074 9.04974 19.3198 9.80939 19.4798 10.5682C19.5095 10.7107 19.4186 10.8496 19.277 10.8794C19.1354 10.9091 18.9964 10.8182 18.9667 10.6766C18.8111 9.93964 18.6048 9.20097 18.3539 8.48153C18.193 8.02085 18.0523 7.67905 17.9395 7.40456C17.721 6.87394 17.5768 6.52253 17.5628 5.96743C17.54 5.12561 17.7927 3.60106 18.8784 3.22605C19.805 2.9061 20.9423 3.59757 21.465 4.42103C21.8182 4.977 21.7955 5.43069 21.771 5.90974C21.75 6.33983 21.7273 6.78478 21.9563 7.42641C22.042 7.66506 22.0822 7.71664 22.2745 7.96403C22.4712 8.21753 22.7999 8.6415 23.431 9.59784C23.6513 9.93177 23.8227 10.201 23.9739 10.4388C24.3786 11.0734 24.5823 11.3916 25.008 11.841C25.3988 12.2527 25.8376 12.6233 26.3114 12.9433Z" fill="white"/>
<path d="M26.3411 10.6878C26.4487 10.7849 26.4565 10.951 26.3586 11.0585C26.3071 11.1153 26.2362 11.1442 26.1646 11.1442C26.1016 11.1442 26.0387 11.1214 25.988 11.0751C25.1706 10.3312 24.4739 9.47362 23.918 8.52777C23.4695 7.76375 23.0053 6.97438 22.799 5.85283C22.7055 5.34668 22.7029 4.98653 22.7011 4.69718C22.6985 4.32129 22.6976 4.0739 22.5106 3.69276C22.1067 2.87105 21.3444 2.4768 21.0192 2.30808C20.0244 1.7932 19.0375 1.8439 18.5375 1.91995C18.395 1.94181 18.2604 1.84303 18.2385 1.70054C18.2166 1.55717 18.3154 1.42343 18.4588 1.40157C19.0218 1.3159 20.1337 1.25908 21.2605 1.84215C21.5997 2.01786 22.5009 2.48466 22.9809 3.46198C23.2212 3.94977 23.223 4.29506 23.2256 4.69368C23.2274 4.97691 23.2291 5.29686 23.3148 5.75754C23.5045 6.78818 23.925 7.50413 24.3708 8.26203C24.8996 9.16242 25.5623 9.97889 26.3411 10.6878Z" fill="white"/>
<path d="M26.0352 7.62655C26.1733 7.66938 26.2511 7.81624 26.2083 7.95436C26.1733 8.06713 26.0693 8.13968 25.9574 8.13968C25.9321 8.13968 25.9058 8.13531 25.8805 8.12744C25.564 8.02954 25.2983 7.86607 25.0911 7.63966C24.9189 7.45259 24.7423 7.18247 24.6121 6.4744C24.5299 6.02857 24.5281 5.74622 24.5273 5.51981C24.5273 5.37732 24.5273 5.25493 24.5063 5.11594C24.4346 4.60543 24.1313 4.10016 23.6042 3.615C23.4975 3.51709 23.4905 3.351 23.5893 3.24435C23.6872 3.1377 23.8533 3.13071 23.9599 3.22949C24.578 3.79857 24.9364 4.40874 25.0255 5.04339C25.05 5.21734 25.0509 5.36246 25.0518 5.51718C25.0526 5.73398 25.0535 5.97962 25.1278 6.37911C25.2345 6.95868 25.3647 7.16236 25.4775 7.28562C25.6209 7.4421 25.8088 7.55661 26.0352 7.62655Z" fill="white"/>
<path d="M25.946 14.91C26.0675 14.9895 26.1008 15.1521 26.0212 15.2737C25.9705 15.3497 25.8875 15.3917 25.8018 15.3917C25.7528 15.3917 25.7021 15.3777 25.6576 15.348C25.1453 15.0105 24.6479 14.6381 24.182 14.2413C22.8174 13.0804 22.0132 11.9396 21.0813 10.6178C20.3496 9.58108 19.9825 9.06008 19.7569 8.49187C19.305 7.35546 19.1782 6.10715 19.3784 4.78104C19.4003 4.63855 19.534 4.53977 19.6765 4.56162C19.8199 4.5826 19.9187 4.71635 19.8968 4.85971C19.7106 6.09229 19.8277 7.24881 20.2438 8.29781C20.4466 8.8092 20.8016 9.31272 21.5096 10.3154C22.4214 11.6083 23.2081 12.7246 24.522 13.8418C24.9722 14.2247 25.4512 14.5839 25.946 14.91Z" fill="white"/>
<path d="M25.6899 16.1279C25.8246 16.1803 25.8919 16.3324 25.8394 16.467C25.7992 16.5711 25.7004 16.6349 25.5947 16.6349C25.5632 16.6349 25.5317 16.6296 25.5002 16.6174C24.0028 16.0387 22.6505 15.2021 21.4808 14.1313C20.6967 13.4136 20.0026 12.5945 19.4178 11.6985C19.3391 11.577 19.3732 11.4144 19.4947 11.3357C19.6162 11.2561 19.778 11.2902 19.8575 11.4117C20.4178 12.271 21.0831 13.056 21.8349 13.7449C22.9564 14.7712 24.2528 15.5728 25.6899 16.1279Z" fill="white"/>
<path d="M25.3918 25.0208C25.5369 25.0225 25.6523 25.1423 25.6497 25.2874C25.6243 26.8312 25.3219 28.3269 24.7502 29.7325C24.2309 31.0097 23.6304 31.8646 23.2711 32.3751C22.1434 33.9801 20.7089 35.3788 19.0078 36.5335C18.9632 36.5641 18.9116 36.579 18.8609 36.579C18.777 36.579 18.6948 36.5388 18.6441 36.4636C18.5619 36.3438 18.5934 36.1812 18.7132 36.1C20.3618 34.981 21.7509 33.6261 22.8419 32.0735C23.188 31.5814 23.7676 30.757 24.2641 29.5358C24.8113 28.1896 25.1016 26.7577 25.1252 25.2786C25.1278 25.1335 25.2476 25.019 25.3918 25.0208Z" fill="white"/>
<path d="M24.0438 24.3372C24.0937 25.3119 23.9861 26.2813 23.7239 27.2184C23.4267 28.2788 22.9424 29.2657 22.2833 30.153C22.2317 30.2221 22.1521 30.2588 22.0726 30.2588C22.0175 30.2588 21.9633 30.2422 21.9161 30.2072C21.7999 30.1207 21.7754 29.9563 21.8619 29.84C22.4826 29.0052 22.9389 28.0751 23.2186 27.0768C23.466 26.1948 23.5674 25.2813 23.5202 24.3634C23.5123 24.2192 23.6234 24.0959 23.7685 24.088C23.9127 24.0802 24.036 24.1921 24.0438 24.3372Z" fill="white"/>
<path d="M23.5596 19.5407C23.6129 19.6753 23.5465 19.8274 23.4119 19.8807C23.3804 19.8929 23.3481 19.8991 23.3157 19.8991C23.2108 19.8991 23.112 19.8352 23.0718 19.7321C21.9608 16.9024 20.361 14.4583 18.3155 12.4687C17.43 11.6076 16.3294 10.5359 14.5059 9.7229C12.7873 8.95538 10.8422 8.62232 8.88148 8.76044C8.73637 8.77093 8.61136 8.66166 8.60087 8.51742C8.59126 8.37231 8.69965 8.2473 8.84477 8.23681C10.8912 8.09345 12.9228 8.44137 14.72 9.24385C16.6275 10.0953 17.8146 11.2492 18.6809 12.0928C20.7806 14.1348 22.4223 16.641 23.5596 19.5407Z" fill="white"/>
<path d="M20.6958 17.1786C21.2133 18.114 22.7885 20.9611 22.3847 24.741C22.1102 27.3189 21.1005 29.6101 19.4667 31.3672C17.9649 32.9827 16.3153 33.7196 14.72 34.432C13.6491 34.9102 12.9236 35.2345 12.0075 35.2345C11.9576 35.2345 11.9078 35.2336 11.8571 35.2319C9.71889 35.1506 8.21532 33.4731 7.509 32.48C7.42508 32.362 7.45305 32.1977 7.57106 32.1137C7.68908 32.0298 7.85254 32.0578 7.93646 32.1758C8.58684 33.0902 9.96278 34.6357 11.8772 34.7074C12.7068 34.7389 13.3161 34.4854 14.5058 33.953C16.1248 33.2301 17.6537 32.5473 19.083 31.0097C20.639 29.3365 21.6006 27.1494 21.8637 24.6851C22.2492 21.0695 20.7876 18.4269 20.2369 17.4321C18.0812 13.5342 14.5626 11.7763 12.6578 11.0761C12.5215 11.0262 12.4515 10.875 12.5022 10.7395C12.5521 10.6031 12.7024 10.5332 12.8388 10.5839C14.8127 11.3095 18.4579 13.1312 20.6958 17.1786Z" fill="white"/>
<path d="M21.3444 31.2334C21.4624 31.3182 21.4895 31.4817 21.4047 31.5997C20.6276 32.688 19.7053 33.6645 18.6625 34.501C17.6493 35.314 16.5312 35.988 15.3389 36.5055C15.3048 36.5204 15.269 36.5274 15.2349 36.5274C15.1335 36.5274 15.0364 36.4679 14.9936 36.3691C14.9359 36.2363 14.9971 36.0815 15.13 36.0238C16.2795 35.5256 17.3573 34.8752 18.3338 34.0919C19.3391 33.2851 20.229 32.3445 20.9781 31.2946C21.0621 31.1766 21.2264 31.1495 21.3444 31.2334Z" fill="white"/>
<path d="M20.2526 20.0826C20.5734 21.2181 20.7167 22.3956 20.6765 23.5819C20.6722 23.7235 20.5559 23.8354 20.4152 23.8354H20.4055C20.2613 23.8301 20.1477 23.7095 20.1529 23.5644C20.1905 22.4323 20.0541 21.309 19.7482 20.2259C19.5191 19.4182 19.1957 18.635 18.7866 17.8989C18.7167 17.7722 18.7621 17.6122 18.8889 17.5423C19.0156 17.4714 19.1747 17.5178 19.2455 17.6437C19.6739 18.4155 20.013 19.2364 20.2526 20.0826Z" fill="white"/>
<path d="M20.4143 24.8705C20.5568 24.8984 20.6486 25.0366 20.6197 25.179C20.2395 27.0769 19.395 28.8208 18.1782 30.2204C17.5374 30.9573 15.8354 32.9154 13.1491 33.3123C12.8309 33.3595 12.4454 33.4163 12.0214 33.4163C11.4366 33.4163 10.7784 33.3079 10.1262 32.9154C8.89978 32.1767 8.14538 30.688 8.29136 29.2964C8.43123 27.9624 9.34736 26.8137 11.0144 25.8827C11.5878 25.5628 12.0651 25.4229 12.4498 25.3102C12.9209 25.172 13.2059 25.089 13.4087 24.7769C13.7706 24.2218 13.643 23.3162 13.0311 22.0845C12.9664 21.9542 13.0197 21.7969 13.1491 21.7322C13.2785 21.6684 13.4367 21.7208 13.5005 21.8511C14.2016 23.2611 14.3187 24.3416 13.8484 25.0636C13.539 25.5374 13.1028 25.6659 12.5966 25.8137C12.2199 25.9238 11.7915 26.0497 11.2696 26.3408C9.76084 27.1835 8.93388 28.1967 8.81237 29.3506C8.68736 30.5482 9.33861 31.8288 10.3964 32.4661C11.3614 33.0465 12.3903 32.8944 13.0722 32.7939C15.5662 32.425 17.1187 30.6391 17.7822 29.8768C18.9396 28.5455 19.7429 26.8854 20.1057 25.0759C20.1346 24.9343 20.2727 24.8416 20.4143 24.8705Z" fill="white"/>
<path d="M18.812 22.9926C18.8531 24.0145 18.9501 26.4062 17.3635 28.596C16.1895 30.2167 14.7113 30.868 14.1299 31.0725C13.7165 31.2185 12.8965 31.507 12.0923 31.507C11.5389 31.507 10.9926 31.3706 10.5913 30.9563C10.0931 30.4423 9.83517 29.4422 10.2452 28.7717C10.4925 28.3661 10.8606 28.2848 11.2854 28.1904C11.6228 28.1152 12.0433 28.0226 12.5748 27.7437C13.0346 27.5033 13.6972 27.061 14.2462 26.3179C14.4263 26.0758 14.8669 25.4079 15.0819 24.4481C15.0854 24.4341 15.3853 23.0433 14.9324 21.5791C14.0959 18.877 11.2504 17.7065 10.6884 17.4994C10.5529 17.4495 10.4829 17.2983 10.5336 17.1628C10.5835 17.0264 10.7347 16.9574 10.8702 17.0072C11.4725 17.2292 14.5242 18.4863 15.4333 21.4235C15.929 23.0267 15.6082 24.5014 15.5942 24.5635C15.3651 25.5819 14.9158 26.2952 14.6684 26.63C14.06 27.4526 13.3257 27.943 12.8178 28.2088C12.2243 28.5191 11.7478 28.6249 11.3991 28.7027C10.9899 28.7936 10.8195 28.8382 10.6927 29.0453C10.4445 29.451 10.5765 30.187 10.9681 30.5909C11.719 31.3654 13.4026 30.7727 13.956 30.5786C14.4901 30.3898 15.8512 29.7901 16.9386 28.2892C18.4186 26.2463 18.3268 23.9813 18.2875 23.0145C18.2438 21.9305 17.9203 19.1725 15.8713 16.9652C14.9622 15.987 14.046 15.4625 13.4988 15.1496C12.0914 14.3454 10.5397 13.8506 8.88758 13.681C8.74334 13.6661 8.63931 13.5368 8.6533 13.3934C8.66816 13.2492 8.79754 13.1443 8.94177 13.1591C10.6665 13.3366 12.2872 13.8532 13.7584 14.6942C14.2943 15.001 15.2917 15.5709 16.2559 16.6086C18.4239 18.9435 18.7657 21.851 18.812 22.9926Z" fill="white"/>
<path d="M18.1607 16.1829C18.2656 16.2834 18.27 16.4486 18.1694 16.5535C18.1179 16.6077 18.0488 16.6348 17.9798 16.6348C17.9151 16.6348 17.8495 16.6112 17.7988 16.5623C17.6677 16.4373 14.5714 13.4931 12.4865 12.5717C11.8248 12.2797 11.1892 12.1224 11.1831 12.1206C10.4514 11.9414 9.69353 11.8741 8.93039 11.9205C8.78528 11.9292 8.66202 11.8191 8.6524 11.6748C8.64366 11.5297 8.75381 11.4056 8.89892 11.3968C9.71451 11.347 10.5249 11.4196 11.3081 11.611C11.3361 11.618 11.9935 11.7806 12.698 12.0918C14.8301 13.0333 17.8268 15.8638 18.1607 16.1829Z" fill="white"/>
<path d="M18.0977 9.74916C18.2088 9.84357 18.2219 10.0088 18.1283 10.1189C18.0759 10.1801 18.0025 10.2116 17.9282 10.2116C17.8678 10.2116 17.8075 10.1906 17.7586 10.1486C17.2778 9.74041 16.7655 9.36452 16.2349 9.03147C14.0827 7.68263 11.5843 6.98155 8.80799 6.94833C8.66288 6.94658 8.54661 6.82769 8.54836 6.68258C8.55011 6.53747 8.66637 6.42383 8.81411 6.42383C11.6884 6.45879 14.2785 7.1861 16.5138 8.58739C17.0654 8.93356 17.5986 9.32431 18.0977 9.74916Z" fill="white"/>
<path d="M17.7682 1.56422C17.9072 1.60444 17.9876 1.75042 17.9465 1.88941C17.9133 2.00393 17.8093 2.07823 17.6948 2.07823C17.6712 2.07823 17.6467 2.07474 17.6222 2.06774C17.1939 1.94361 16.7743 1.78102 16.3748 1.5852C15.7672 1.28711 15.199 0.9086 14.6859 0.459279C14.5775 0.363994 14.5661 0.198777 14.6614 0.0895062C14.7567 -0.0197646 14.9228 -0.0302545 15.0312 0.0650296C15.5102 0.482881 16.04 0.836918 16.6064 1.1149C16.978 1.29673 17.3687 1.44796 17.7682 1.56422Z" fill="white"/>
<path d="M17.568 23.193C17.5934 23.5741 17.6336 24.9168 17.082 26.2141C15.9316 28.9196 12.935 29.7929 12.3458 29.9407C12.3239 29.9459 12.3029 29.9485 12.282 29.9485C12.164 29.9485 12.0573 29.869 12.0276 29.7501C11.9926 29.6093 12.0774 29.4669 12.2182 29.4319C12.7645 29.2946 15.5461 28.486 16.5986 26.0087C17.1056 24.818 17.068 23.5793 17.0453 23.2279C16.9762 22.1999 16.6624 21.4403 16.4946 21.0312C16.1458 20.1867 15.6562 19.4104 15.0391 18.7242C14.9429 18.6158 14.9517 18.4506 15.0592 18.3536C15.1667 18.2566 15.3328 18.2653 15.4298 18.3728C16.0863 19.1045 16.6073 19.9315 16.9789 20.8318C17.1589 21.2672 17.4937 22.0793 17.568 23.193Z" fill="white"/>
<path d="M17.5156 3.87023C17.6257 3.96464 17.6388 4.12985 17.5444 4.24C17.4928 4.30032 17.4194 4.33179 17.3451 4.33179C17.2848 4.33179 17.2245 4.31081 17.1747 4.26885C16.5409 3.72686 15.8407 3.2688 15.0941 2.9069C14.1194 2.43397 13.0748 2.12889 11.9917 1.99864C11.8475 1.98203 11.7452 1.8509 11.7627 1.70754C11.7793 1.5633 11.9104 1.46102 12.0538 1.47851C13.1954 1.61488 14.2951 1.93657 15.3232 2.43485C16.1099 2.81686 16.8477 3.2994 17.5156 3.87023Z" fill="white"/>
<path d="M16.8669 6.63175C17.0112 6.64661 17.1161 6.77511 17.1012 6.91935C17.0872 7.05484 16.9736 7.15537 16.8407 7.15537C16.832 7.15537 16.8232 7.1545 16.8136 7.15362C15.9875 7.0697 15.1789 6.87214 14.4123 6.56706C13.8738 6.35201 13.3528 6.08277 12.8641 5.76632C12.7426 5.68765 12.7085 5.52505 12.7872 5.40354C12.8659 5.28203 13.0285 5.24707 13.15 5.32574C13.6089 5.62383 14.0993 5.87734 14.6063 6.07927C15.3284 6.36687 16.0889 6.55307 16.8669 6.63175Z" fill="white"/>
<path d="M16.908 5.25062C17.0287 5.33105 17.061 5.49364 16.9806 5.61428C16.9299 5.68946 16.8468 5.73054 16.7621 5.73054C16.7122 5.73054 16.6615 5.71656 16.6169 5.68596C15.561 4.98051 14.4088 4.4429 13.1928 4.08798C12.1176 3.77503 11.0039 3.60894 9.88237 3.59408C9.73726 3.59146 9.62187 3.47257 9.62362 3.32833C9.62536 3.1841 9.7425 3.06958 9.88587 3.06958H9.88936C11.0581 3.08444 12.219 3.2584 13.3397 3.58446C14.6072 3.95424 15.8075 4.51458 16.908 5.25062Z" fill="white"/>
<path d="M13.9612 17.0081C14.0679 17.1069 14.0749 17.2721 13.977 17.3787C13.9254 17.4356 13.8546 17.4635 13.7838 17.4635C13.7208 17.4635 13.657 17.4408 13.6063 17.3945C13.0434 16.877 12.4052 16.4565 11.7085 16.1462C10.934 15.8 10.1105 15.5981 9.26084 15.5465C9.1166 15.5377 9.00645 15.4136 9.0152 15.2685C9.02394 15.1243 9.14807 15.015 9.29318 15.0229C10.2058 15.0788 11.0905 15.2956 11.9227 15.6671C12.671 16.0011 13.3572 16.4521 13.9612 17.0081Z" fill="white"/>
<path d="M12.3204 5.58464C12.4419 5.66331 12.4769 5.82591 12.3982 5.94741C12.3484 6.02522 12.2636 6.06718 12.1779 6.06718C12.129 6.06718 12.08 6.05406 12.0354 6.02522C11.5197 5.69128 10.9567 5.45963 10.364 5.33637C9.99339 5.26032 9.61313 5.2271 9.23287 5.23847C9.08775 5.24371 8.96799 5.1292 8.96362 4.98408C8.95925 4.83897 9.07289 4.71834 9.21713 4.71397C9.63848 4.70173 10.0598 4.73844 10.4698 4.82324C11.1272 4.95873 11.7496 5.21574 12.3204 5.58464Z" fill="white"/>
<path d="M11.3029 10.4125C11.448 10.4229 11.5564 10.5488 11.5459 10.6931C11.5363 10.8312 11.4209 10.937 11.2845 10.937C11.2784 10.937 11.2723 10.9361 11.2662 10.9361C10.5721 10.8862 9.91211 10.7079 9.30281 10.4037C8.98462 10.2455 8.68215 10.0532 8.40242 9.83113C8.28878 9.74109 8.26955 9.57587 8.35959 9.46223C8.44963 9.34859 8.61397 9.33023 8.72761 9.4194C8.97937 9.61958 9.25124 9.79267 9.53709 9.93428C10.0843 10.207 10.6787 10.3679 11.3029 10.4125Z" fill="white"/>
<path d="M9.27917 35.9513C9.39456 36.0378 9.41817 36.2022 9.33162 36.3184C9.28005 36.3875 9.20137 36.4233 9.12182 36.4233C9.06675 36.4233 9.01168 36.4067 8.96447 36.3709C8.26164 35.8446 7.62001 35.2388 7.05617 34.5692C6.35334 33.7335 5.93112 32.9905 5.78163 32.7099C4.66707 30.6101 4.79907 28.1388 4.97653 26.853C4.99663 26.7087 5.12863 26.6091 5.27287 26.6292C5.41623 26.6484 5.51589 26.7813 5.49666 26.9246C5.32707 28.1476 5.19944 30.4939 6.24494 32.4642C6.38656 32.73 6.78693 33.4345 7.45741 34.2309C7.99502 34.8699 8.60781 35.4486 9.27917 35.9513Z" fill="white"/>
<path d="M9.02219 25.5933C9.10786 25.7095 9.08338 25.8739 8.96712 25.9595C8.55364 26.2646 7.80885 26.943 7.45481 28.0558C6.98451 29.5375 7.50376 30.8007 7.74853 31.2753C7.81497 31.4038 7.76514 31.5621 7.63664 31.6285C7.59817 31.6486 7.55709 31.6574 7.516 31.6574C7.42159 31.6574 7.3298 31.6058 7.2826 31.5157C7.00811 30.9834 6.42504 29.5655 6.95479 27.8967C7.35341 26.6431 8.19086 25.8809 8.65504 25.5382C8.7713 25.4516 8.93565 25.4761 9.02219 25.5933Z" fill="white"/>
<path d="M6.44778 35.8752C6.52033 36.0002 6.4775 36.1611 6.35162 36.2328C6.31053 36.2564 6.26595 36.2677 6.22137 36.2677C6.13046 36.2677 6.04217 36.2214 5.99409 36.1366C5.6182 35.4862 5.21958 34.8271 4.80784 34.1776C4.57969 33.8183 4.41272 33.5631 4.31219 33.411C4.28072 33.362 4.25537 33.3244 4.23963 33.2991C3.62073 32.341 3.24046 30.8872 3.11021 28.9781C3.1006 28.8338 3.20899 28.7088 3.3541 28.6992C3.49922 28.6896 3.62335 28.798 3.63296 28.9431C3.7571 30.7614 4.10938 32.1321 4.68021 33.0141C4.69595 33.0394 4.71955 33.0753 4.75102 33.1234C4.85155 33.2763 5.02027 33.5342 5.25104 33.897C5.66627 34.5517 6.06926 35.2179 6.44778 35.8752Z" fill="white"/>
<path d="M3.99657 36.0457C4.00269 36.1899 3.89079 36.3132 3.74656 36.3193C3.74219 36.3202 3.73781 36.3202 3.73432 36.3202C3.59445 36.3202 3.47906 36.21 3.47207 36.0693C3.43623 35.293 3.26926 34.5386 2.97379 33.8271C2.59091 32.9022 1.98773 32.0577 1.22896 31.3846C1.12056 31.2885 1.11095 31.1224 1.2071 31.014C1.30326 30.9056 1.46935 30.896 1.57688 30.9921C2.3951 31.7177 3.04547 32.6286 3.45896 33.626C3.77715 34.3944 3.9581 35.2082 3.99657 36.0457Z" fill="white"/>
<path d="M1.85315 34.8175C2.0883 35.3883 2.07693 35.9128 2.02536 36.252C2.00525 36.3822 1.89336 36.4749 1.7666 36.4749C1.75349 36.4749 1.7395 36.474 1.72639 36.4723C1.58303 36.4504 1.48512 36.3167 1.5061 36.1733C1.54806 35.8997 1.55768 35.4775 1.36798 35.0177C1.13808 34.4626 0.732465 34.1461 0.511301 34.0071C0.388918 33.9302 0.352203 33.7685 0.42913 33.6452C0.506056 33.5228 0.667777 33.4861 0.79016 33.563C1.06465 33.7353 1.56729 34.1269 1.85315 34.8175Z" fill="white"/>
</svg>
