<svg width="43" height="50" viewBox="0 0 43 50" fill="none" xmlns="http://www.w3.org/2000/svg">
<path d="M0.300064 41.8073V0C14.2758 0 28.253 0 42.2288 0C42.2288 13.8903 42.2288 27.7805 42.2288 41.6694C41.9391 41.708 41.6495 41.7811 41.3599 41.7811C27.9716 41.7867 14.5834 41.7853 1.19519 41.7867C0.897272 41.7867 0.599358 41.8004 0.300064 41.8073H0.300064ZM35.0678 20.8016C30.4501 16.1977 25.8104 11.5718 21.2465 7.0203C16.6661 11.5883 12.0263 16.2143 7.43898 20.7892C12.0277 25.3641 16.6661 29.9901 21.2603 34.5705C25.8559 29.9887 30.4943 25.3627 35.0678 20.8016ZM17.3984 38.6765L17.4398 38.8213C25.1511 37.3883 32.8624 35.9566 40.7047 34.4988C40.5296 32.7058 40.3654 31.0231 40.1917 29.2439C32.4624 32.4423 24.9304 35.5594 17.397 38.6751L17.3984 38.6765ZM3.45023 17.1701L3.31231 17.2087C3.36472 17.5094 3.41575 17.81 3.47092 18.1093C4.8074 25.3062 6.1425 32.5044 7.49967 39.6971C7.53277 39.8764 7.83758 40.1426 8.00722 40.1357C9.57265 40.0695 11.1367 39.9523 12.8801 39.8392C9.67472 32.1334 6.56179 24.6524 3.45023 17.1715V17.1701ZM15.0124 40.0474L15.0082 40.1123H40.5309V35.3098C31.9907 36.8959 23.5015 38.4724 15.0137 40.0474H15.0124ZM40.4661 27.1226L40.5309 27.1351V1.67439H35.7147C37.3049 10.1939 38.8855 18.6583 40.4661 27.1226ZM39.0717 24.5917L39.2138 24.5724C37.7849 16.9273 36.3546 9.28362 34.9009 1.5075C33.13 1.67025 31.4625 1.82197 29.6667 1.9861C32.8596 9.66016 35.9657 17.1246 39.0717 24.5904V24.5917ZM2.05583 14.7633L1.9579 14.7744V40.1247H6.7935C5.21014 31.6438 3.63229 23.2042 2.05583 14.7633ZM1.93997 6.47688C10.4912 4.88801 18.9487 3.31706 27.4062 1.74749L27.3937 1.68404H1.93997V6.47688ZM24.8463 3.15431L24.838 3.03156C24.7029 3.04121 24.5649 3.03707 24.4339 3.0619C20.5472 3.78462 16.6619 4.51147 12.7739 5.23281C9.29129 5.87967 5.80735 6.51964 2.32616 7.17891C2.16893 7.20926 1.9317 7.40373 1.92342 7.53338C1.81584 9.17329 1.96342 10.7884 2.45305 12.4145C9.9547 9.31121 17.3998 6.23138 24.8463 3.15155V3.15431ZM25.3083 3.79427C29.1481 9.67257 32.9327 15.4681 36.7187 21.2637L36.8318 21.2071C34.2127 14.9123 31.5921 8.61745 28.9578 2.28401C27.7248 2.79433 26.5676 3.2743 25.3097 3.79427H25.3083ZM38.3642 24.9062C32.5369 28.6922 26.7689 32.4396 21.001 36.187L21.0755 36.3249C27.3344 33.7347 33.5948 31.1445 39.8841 28.5419C39.3627 27.295 38.8731 26.1241 38.3642 24.9062ZM4.13847 16.817C9.93126 13.0545 15.6578 9.33328 21.3844 5.61348L21.2948 5.45349C15.0813 8.02438 8.86925 10.5939 2.62132 13.18C3.13715 14.4171 3.62402 15.584 4.13709 16.817H4.13847ZM5.92872 20.6816L5.76597 20.7354L13.549 39.4392C14.7862 38.9247 15.9599 38.4365 17.1929 37.9234C13.4097 32.132 9.6692 26.4068 5.92872 20.6816ZM8.74649 23.4842L8.69822 23.5132C11.7063 28.1184 14.7158 32.7237 17.7556 37.3786C18.7873 36.7056 19.7707 36.0642 20.7334 35.4367C16.6978 31.4121 12.7214 27.4481 8.74649 23.4842ZM35.9588 21.5092C31.9714 25.4855 27.9909 29.4535 24.307 33.1278C28.5633 30.3611 33.1824 27.3599 37.8194 24.3462C37.1422 23.3132 36.505 22.3422 35.9588 21.5092ZM18.1418 8.69745L18.1005 8.66297C13.6373 11.5621 9.17406 14.4613 4.68603 17.3783L6.56868 20.2416C10.465 16.3563 14.3034 12.5276 18.1418 8.69883V8.69745ZM33.3534 17.668L33.4279 17.6294C30.5453 13.2172 27.6613 8.80365 24.7484 4.34597C23.7498 4.99559 22.7995 5.61486 21.8699 6.21897C25.718 10.056 29.5357 13.8627 33.352 17.668H33.3534Z" fill="white"/>
<path d="M42.2288 49.9214H36.756V44.5217H42.0564V45.7603H38.389V46.5933H41.8385V47.7795H38.3945V48.6843H42.2288V49.9214Z" fill="white"/>
<path d="M21.4506 47.1933C21.4078 47.6912 21.3816 48.1933 21.3168 48.6884C21.2148 49.4691 20.6837 49.8718 19.961 49.9063C18.7294 49.9642 17.4922 49.9642 16.2605 49.9104C15.4371 49.8746 14.9806 49.4829 14.891 48.6512C14.7889 47.7092 14.8123 46.7437 14.8786 45.7948C14.9323 45.0403 15.4496 44.5838 16.204 44.5562C17.4343 44.5107 18.6714 44.4707 19.8962 44.5549C20.9182 44.6238 21.3347 45.1534 21.3968 46.163C21.4175 46.5051 21.3996 46.8485 21.3996 47.1919L21.4478 47.1947L21.4506 47.1933ZM18.1473 48.6001C19.739 48.5836 19.9169 48.3864 19.7845 46.7864C19.7803 46.7409 19.7693 46.6954 19.7707 46.6499C19.7928 46.1286 19.4714 45.8775 19.019 45.8458C18.4025 45.8017 17.7736 45.7865 17.1653 45.8665C16.9088 45.8996 16.5447 46.1686 16.4771 46.4016C16.0054 48.0333 16.4716 48.6195 18.1473 48.6015V48.6001Z" fill="white"/>
<path d="M35.4236 46.2664C34.7823 46.0733 34.2389 45.8292 33.6748 45.7588C32.9562 45.6706 32.2197 45.7078 31.4928 45.734C31.3921 45.7382 31.199 46.0209 31.2294 46.123C31.2708 46.2678 31.4721 46.454 31.6197 46.4678C32.4183 46.5409 33.221 46.5643 34.0223 46.6085C35.4843 46.6884 36.2098 47.9256 35.4885 49.2193C35.3092 49.5421 34.8278 49.8676 34.4664 49.8897C33.2155 49.9683 31.9521 49.9738 30.7011 49.8897C29.8129 49.8303 29.5591 49.3297 29.7122 48.2746C30.3025 48.3146 30.8253 48.2332 31.4694 48.5739C32.1066 48.9118 33.0624 48.6649 33.8775 48.6359C33.9506 48.6332 34.1065 48.3077 34.0596 48.2056C33.992 48.0567 33.7837 47.8898 33.6237 47.876C32.7796 47.8029 31.93 47.7877 31.0846 47.7284C30.0736 47.6567 29.7067 47.3284 29.6681 46.5091C29.6005 45.0472 29.7895 44.6444 30.9411 44.5465C32.1397 44.4444 33.3603 44.4927 34.5644 44.5851C35.2967 44.6417 35.5105 45.0954 35.425 46.2636L35.4236 46.2664Z" fill="white"/>
<path d="M26.94 44.5148H28.5606C28.5606 45.8761 28.6075 47.1988 28.544 48.5173C28.5026 49.3656 28.0434 49.8387 27.1924 49.8966C26.0779 49.9738 24.9511 49.9738 23.8367 49.8966C22.9609 49.8359 22.5112 49.3145 22.4878 48.4525C22.4533 47.1547 22.4781 45.8554 22.4781 44.5162H24.0339C24.0339 45.4734 24.0312 46.403 24.0339 47.3326C24.0381 48.3463 24.2339 48.5422 25.2256 48.5449C26.3676 48.5486 26.9386 47.9859 26.9386 46.8567C26.9386 46.1037 26.9386 45.3492 26.9386 44.5134L26.94 44.5148Z" fill="white"/>
<path d="M4.95359 49.9049V47.9077H1.98548V49.8924H0.393844C0.393844 48.2718 0.392465 46.6747 0.396602 45.0775C0.396602 44.901 0.426946 44.7245 0.446255 44.5148H1.97031V46.4168H4.94256V44.5134H6.55074C6.55074 45.4334 6.55074 46.3188 6.55074 47.2043C6.55074 48.0898 6.55074 48.978 6.55074 49.9049H4.95359Z" fill="white"/>
<path d="M12.036 47.2084C12.7959 48.1214 13.5062 48.9752 14.2165 49.8276L14.1462 50C13.4869 49.931 12.7201 50.0469 12.1959 49.7448C11.6456 49.4276 11.3298 48.709 10.8719 48.1173C10.6609 48.3752 10.4305 48.5725 10.3092 48.8221C9.71333 50.0427 8.69269 50.1048 7.47483 49.862C8.21962 48.9655 8.94234 48.0966 9.6816 47.207C9.00716 46.3257 8.34651 45.4637 7.68447 44.5989C9.38369 43.9686 10.1216 45.0568 10.8498 46.3215C11.6208 45.1589 12.2746 43.9024 14.0096 44.6127C13.3655 45.4581 12.7118 46.3174 12.0332 47.2084H12.036Z" fill="white"/>
</svg>
