<svg width="32" height="32" viewBox="0 0 32 32" fill="none" xmlns="http://www.w3.org/2000/svg">
<path d="M16.1305 13.5666C17.0417 13.5666 17.7805 12.8279 17.7805 11.9166C17.7805 11.0053 17.0417 10.2666 16.1305 10.2666C15.2192 10.2666 14.4805 11.0053 14.4805 11.9166C14.4805 12.8279 15.2192 13.5666 16.1305 13.5666Z"/>
<path d="M16.132 3.66699C13.8133 3.66688 11.5882 4.58192 9.94039 6.21325C8.29258 7.84458 7.35522 10.0603 7.33203 12.379C7.33203 18.4069 15.087 25.1169 15.417 25.4029C15.6163 25.5733 15.8698 25.667 16.132 25.667C16.3942 25.667 16.6478 25.5733 16.847 25.4029C17.232 25.1169 24.932 18.4069 24.932 12.379C24.9088 10.0603 23.9714 7.84458 22.3236 6.21325C20.6758 4.58192 18.4507 3.66688 16.132 3.66699ZM16.132 15.767C15.3705 15.767 14.6262 15.5412 13.9931 15.1181C13.3599 14.6951 12.8665 14.0938 12.5751 13.3903C12.2837 12.6868 12.2074 11.9127 12.356 11.1659C12.5045 10.419 12.8712 9.73304 13.4097 9.19461C13.9481 8.65618 14.6341 8.28951 15.3809 8.14095C16.1277 7.9924 16.9018 8.06864 17.6053 8.36004C18.3088 8.65144 18.9101 9.1449 19.3332 9.77803C19.7562 10.4112 19.982 11.1555 19.982 11.917C19.982 12.938 19.5764 13.9173 18.8544 14.6393C18.1323 15.3613 17.1531 15.767 16.132 15.767V15.767Z" />
</svg>
