<svg width="22" height="25" viewBox="0 0 22 25" fill="none" xmlns="http://www.w3.org/2000/svg">
<path d="M15.8593 2.20559C16.6292 2.20559 17.3766 2.18916 18.1222 2.20871C19.7334 2.25095 21.0378 3.20359 21.401 4.5997C21.4697 4.8625 21.4957 5.14015 21.4966 5.41155C21.5018 10.6034 21.5027 15.7952 21.4992 20.9862C21.4984 22.8625 20.0184 24.2031 17.9397 24.2055C13.201 24.2102 8.46134 24.2102 3.72259 24.2055C1.65693 24.2031 0.172649 22.8664 0.170911 21.0104C0.166566 15.8092 0.167435 10.6073 0.170911 5.40608C0.17178 3.54616 1.6439 2.21888 3.71303 2.20246C4.49254 2.1962 5.27118 2.20167 6.0559 2.20167C6.09935 1.98268 6.12021 1.77932 6.18017 1.58613C6.42871 0.795397 7.21604 0.229913 8.15371 0.22131C10.0299 0.204103 11.9061 0.205667 13.7823 0.22131C14.7843 0.229913 15.8045 0.905678 15.8593 2.20637V2.20559ZM14.7713 18.2041C14.0995 18.2034 13.4269 18.1979 12.7552 18.2065C12.5735 18.2088 12.3841 18.2276 12.2138 18.28C11.7506 18.4239 11.4516 18.865 11.5029 19.2913C11.5585 19.7536 11.9279 20.1673 12.4293 20.1759C13.9996 20.2033 15.5708 20.1869 17.1411 20.1798C17.2532 20.1798 17.3723 20.1282 17.4757 20.0789C17.9119 19.8709 18.137 19.4157 18.0258 18.9894C17.9006 18.5123 17.5017 18.2182 16.9178 18.2073C16.2026 18.1948 15.4874 18.2041 14.7713 18.2041ZM14.8052 12.906C14.1004 12.906 13.3965 12.9036 12.6917 12.906C12.0017 12.9083 11.4994 13.3275 11.4977 13.8969C11.496 14.4624 12.0026 14.8973 12.6865 14.8996C14.0848 14.9043 15.4821 14.9051 16.8804 14.8996C17.5652 14.8965 18.0623 14.4585 18.0536 13.8868C18.0457 13.3197 17.5617 12.9099 16.8856 12.9067C16.1921 12.9028 15.4986 12.906 14.8052 12.906ZM14.7974 9.23854C15.4908 9.23854 16.1843 9.24401 16.8778 9.23697C17.5773 9.22993 18.0605 8.80993 18.0536 8.23271C18.0466 7.66097 17.5478 7.24331 16.8552 7.24175C15.4682 7.23862 14.0813 7.23784 12.6943 7.24175C12.0069 7.24331 11.502 7.66958 11.4977 8.23741C11.4933 8.80524 11.9913 9.22993 12.6839 9.23697C13.3878 9.24323 14.0926 9.23854 14.7965 9.23854H14.7974ZM5.68483 13.3455C5.61878 13.2908 5.57968 13.2579 5.54057 13.2251C5.04697 12.8113 4.3813 12.798 3.93723 13.193C3.48013 13.5997 3.4949 14.2067 3.97808 14.6533C4.25008 14.9051 4.5273 15.153 4.80538 15.3986C5.34852 15.8773 5.99159 15.8828 6.52865 15.4049C7.12219 14.8762 7.71051 14.3435 8.29536 13.807C8.79244 13.351 8.81503 12.7621 8.36054 12.3475C7.89648 11.9236 7.23863 11.9471 6.71722 12.4109C6.37135 12.7183 6.03157 13.0311 5.68483 13.3455ZM5.68917 7.6946C5.62052 7.63751 5.58837 7.61248 5.55708 7.58589C5.04262 7.14398 4.40216 7.12443 3.93897 7.53661C3.47144 7.95271 3.49317 8.55495 3.99633 9.01485C4.27007 9.26435 4.54468 9.51307 4.82363 9.75788C5.352 10.2217 5.98985 10.224 6.51822 9.75396C7.11871 9.22055 7.71312 8.68009 8.30405 8.13807C8.79331 7.68913 8.80982 7.08923 8.35184 6.68096C7.90517 6.28129 7.21952 6.30397 6.73026 6.7404C6.38526 7.04856 6.04895 7.36376 5.68831 7.6946H5.68917ZM5.68483 18.6476C5.60922 18.5874 5.56838 18.5553 5.52927 18.5225C5.01482 18.0986 4.35002 18.097 3.90508 18.5201C3.47579 18.9292 3.50794 19.5189 3.98764 19.9585C4.26138 20.2088 4.53773 20.4567 4.81581 20.7031C5.34504 21.1716 5.98464 21.1786 6.51213 20.7125C7.11523 20.179 7.71312 19.6401 8.30666 19.0973C8.79418 18.6507 8.80895 18.0422 8.35358 17.6348C7.90517 17.2327 7.22125 17.2546 6.72939 17.6934C6.38352 18.0016 6.0446 18.3176 5.68396 18.6476H5.68483Z"/>
</svg>
