<svg width="32" height="32" viewBox="0 0 32 32" fill="none" xmlns="http://www.w3.org/2000/svg">
<path d="M2 11C2 9.67392 2.52678 8.40215 3.46447 7.46447C4.40215 6.52678 5.67392 6 7 6H25C26.3261 6 27.5979 6.52678 28.5355 7.46447C29.4732 8.40215 30 9.67392 30 11V19C30 19.6566 29.8707 20.3068 29.6194 20.9134C29.3681 21.52 28.9998 22.0712 28.5355 22.5355C28.0712 22.9998 27.52 23.3681 26.9134 23.6194C26.3068 23.8707 25.6566 24 25 24H7C5.67392 24 4.40215 23.4732 3.46447 22.5355C2.52678 21.5979 2 20.3261 2 19V11ZM10.292 12.292L9 13.586L7.708 12.292C7.61502 12.199 7.50465 12.1253 7.38317 12.075C7.26169 12.0246 7.13149 11.9987 7 11.9987C6.86851 11.9987 6.73831 12.0246 6.61683 12.075C6.49535 12.1253 6.38498 12.199 6.292 12.292C6.19902 12.385 6.12527 12.4954 6.07495 12.6168C6.02464 12.7383 5.99874 12.8685 5.99874 13C5.99874 13.1315 6.02464 13.2617 6.07495 13.3832C6.12527 13.5046 6.19902 13.615 6.292 13.708L7.586 15L6.292 16.292C6.19902 16.385 6.12527 16.4954 6.07495 16.6168C6.02464 16.7383 5.99874 16.8685 5.99874 17C5.99874 17.1315 6.02464 17.2617 6.07495 17.3832C6.12527 17.5046 6.19902 17.615 6.292 17.708C6.47977 17.8958 6.73445 18.0013 7 18.0013C7.13149 18.0013 7.26169 17.9754 7.38317 17.925C7.50465 17.8747 7.61502 17.801 7.708 17.708L9 16.414L10.292 17.708C10.385 17.801 10.4954 17.8747 10.6168 17.925C10.7383 17.9754 10.8685 18.0013 11 18.0013C11.1315 18.0013 11.2617 17.9754 11.3832 17.925C11.5046 17.8747 11.615 17.801 11.708 17.708C11.801 17.615 11.8747 17.5046 11.925 17.3832C11.9754 17.2617 12.0013 17.1315 12.0013 17C12.0013 16.8685 11.9754 16.7383 11.925 16.6168C11.8747 16.4954 11.801 16.385 11.708 16.292L10.414 15L11.708 13.708C11.801 13.615 11.8747 13.5046 11.925 13.3832C11.9754 13.2617 12.0013 13.1315 12.0013 13C12.0013 12.8685 11.9754 12.7383 11.925 12.6168C11.8747 12.4954 11.801 12.385 11.708 12.292C11.615 12.199 11.5046 12.1253 11.3832 12.075C11.2617 12.0246 11.1315 11.9987 11 11.9987C10.8685 11.9987 10.7383 12.0246 10.6168 12.075C10.4954 12.1253 10.385 12.199 10.292 12.292ZM18.292 12.292L17 13.586L15.708 12.292C15.615 12.199 15.5046 12.1253 15.3832 12.075C15.2617 12.0246 15.1315 11.9987 15 11.9987C14.8685 11.9987 14.7383 12.0246 14.6168 12.075C14.4954 12.1253 14.385 12.199 14.292 12.292C14.199 12.385 14.1253 12.4954 14.075 12.6168C14.0246 12.7383 13.9987 12.8685 13.9987 13C13.9987 13.1315 14.0246 13.2617 14.075 13.3832C14.1253 13.5046 14.199 13.615 14.292 13.708L15.586 15L14.292 16.292C14.199 16.385 14.1253 16.4954 14.075 16.6168C14.0246 16.7383 13.9987 16.8685 13.9987 17C13.9987 17.1315 14.0246 17.2617 14.075 17.3832C14.1253 17.5046 14.199 17.615 14.292 17.708C14.4798 17.8958 14.7344 18.0013 15 18.0013C15.1315 18.0013 15.2617 17.9754 15.3832 17.925C15.5046 17.8747 15.615 17.801 15.708 17.708L17 16.414L18.292 17.708C18.4798 17.8958 18.7344 18.0013 19 18.0013C19.2656 18.0013 19.5202 17.8958 19.708 17.708C19.8958 17.5202 20.0013 17.2656 20.0013 17C20.0013 16.7344 19.8958 16.4798 19.708 16.292L18.414 15L19.708 13.708C19.8958 13.5202 20.0013 13.2656 20.0013 13C20.0013 12.7344 19.8958 12.4798 19.708 12.292C19.5202 12.1042 19.2656 11.9987 19 11.9987C18.7344 11.9987 18.4798 12.1042 18.292 12.292ZM22 17C22 17.2652 22.1054 17.5196 22.2929 17.7071C22.4804 17.8946 22.7348 18 23 18H25C25.2652 18 25.5196 17.8946 25.7071 17.7071C25.8946 17.5196 26 17.2652 26 17C26 16.7348 25.8946 16.4804 25.7071 16.2929C25.5196 16.1054 25.2652 16 25 16H23C22.7348 16 22.4804 16.1054 22.2929 16.2929C22.1054 16.4804 22 16.7348 22 17Z"/>
</svg>
