<svg width="32" height="32" viewBox="0 0 32 32" fill="none" xmlns="http://www.w3.org/2000/svg">
<path d="M16 6C13.243 6 11 8.243 11 11V14H10C9.46957 14 8.96086 14.2107 8.58579 14.5858C8.21071 14.9609 8 15.4696 8 16V24C8 24.5304 8.21071 25.0391 8.58579 25.4142C8.96086 25.7893 9.46957 26 10 26H22C22.5304 26 23.0391 25.7893 23.4142 25.4142C23.7893 25.0391 24 24.5304 24 24V16C24 15.4696 23.7893 14.9609 23.4142 14.5858C23.0391 14.2107 22.5304 14 22 14H21V11C21 8.243 18.757 6 16 6ZM13 11C13 9.346 14.346 8 16 8C17.654 8 19 9.346 19 11V14H13V11ZM17 21.723V24H15V21.723C14.6504 21.5228 14.3697 21.2213 14.1948 20.8584C14.02 20.4954 13.9593 20.0879 14.0207 19.6898C14.0821 19.2916 14.2627 18.9214 14.5388 18.6279C14.8148 18.3345 15.1733 18.1316 15.567 18.046C15.8594 17.9813 16.1626 17.9832 16.4542 18.0513C16.7459 18.1194 17.0185 18.2521 17.252 18.4397C17.4855 18.6272 17.6739 18.8647 17.8034 19.1348C17.9328 19.4049 18 19.7005 18 20C17.9994 20.3497 17.9067 20.6932 17.7311 20.9956C17.5556 21.2981 17.3034 21.549 17 21.723Z"/>
</svg>
