<svg width="32" height="32" viewBox="0 0 32 32" fill="none" xmlns="http://www.w3.org/2000/svg">
<path d="M29.3346 11.3945V24.1437C29.3346 24.1437 29.3069 24.1891 29.2977 24.2072C28.9653 25.7771 27.8665 26.6663 26.2321 26.6663C19.4085 26.6663 12.5849 26.6663 5.77046 26.6663C5.55809 26.6663 5.33648 26.6663 5.12411 26.621C3.65597 26.3669 2.66797 25.1963 2.66797 23.7172C2.66797 19.7791 2.66797 15.85 2.66797 11.9208C2.66797 10.1151 3.91451 8.881 5.75199 8.881C6.81386 8.881 7.86649 8.881 8.92836 8.881C9.02069 8.881 9.11303 8.881 9.2423 8.881C9.2423 8.57248 9.2423 8.29118 9.2423 8.01896C9.2423 6.43098 10.3503 5.33301 11.957 5.33301C14.6532 5.33301 17.3586 5.33301 20.0549 5.33301C20.3042 5.33301 20.5627 5.35116 20.8028 5.41468C22.0216 5.74134 22.7603 6.7032 22.7695 7.95544C22.7695 8.25488 22.7695 8.54526 22.7695 8.87193C22.8988 8.87193 23.0004 8.87193 23.1019 8.87193C24.2469 8.87193 25.3919 8.85378 26.5369 8.881C27.7742 8.90822 28.8822 9.77934 29.2146 10.9499C29.2608 11.0951 29.2977 11.2403 29.3346 11.3855V11.3945ZM16.0013 24.1709C19.5839 24.1709 22.511 21.2854 22.511 17.7646C22.511 14.2438 19.5839 11.3673 16.0013 11.3673C12.4187 11.3673 9.49161 14.2438 9.49161 17.7646C9.49161 21.2763 12.4279 24.1709 16.0013 24.1619V24.1709Z"/>
<path d="M20.305 17.7735C20.305 20.1056 18.3567 22.0021 15.9836 21.993C13.6198 21.9839 11.69 20.0783 11.6993 17.7644C11.7085 15.4233 13.6475 13.5359 16.0206 13.545C18.3844 13.554 20.305 15.4596 20.305 17.7735V17.7735Z"/>
</svg>
