<svg width="32" height="32" viewBox="0 0 32 32" fill="none" xmlns="http://www.w3.org/2000/svg">
<path d="M25.4296 20.1327L21.0546 18.2577C20.8677 18.178 20.6599 18.1612 20.4627 18.2099C20.2654 18.2585 20.0893 18.3698 19.9608 18.5272L18.0233 20.8944C14.9825 19.4607 12.5354 17.0136 11.1017 13.9728L13.4689 12.0353C13.6266 11.907 13.7382 11.7309 13.7868 11.5336C13.8355 11.3362 13.8185 11.1284 13.7384 10.9415L11.8634 6.56645C11.7755 6.36505 11.6202 6.2006 11.4241 6.10148C11.228 6.00236 11.0034 5.97477 10.7891 6.02347L6.72658 6.96099C6.52 7.00869 6.33569 7.12501 6.20373 7.29095C6.07177 7.45689 5.99995 7.66266 6 7.87468C6 17.8944 14.1212 26 24.1253 26C24.3374 26.0001 24.5433 25.9284 24.7093 25.7964C24.8753 25.6644 24.9917 25.4801 25.0394 25.2734L25.9769 21.2109C26.0253 20.9955 25.9971 20.7701 25.8972 20.5733C25.7974 20.3765 25.632 20.2207 25.4296 20.1327V20.1327Z" />
</svg>
