<svg width="32" height="32" viewBox="0 0 32 32" fill="none" xmlns="http://www.w3.org/2000/svg">
<path d="M9.5 27C8.95 27 8.47933 26.8043 8.088 26.413C7.696 26.021 7.5 25.55 7.5 25V7C7.5 6.45 7.696 5.979 8.088 5.587C8.47933 5.19567 8.95 5 9.5 5H19.5C20.05 5 20.521 5.19567 20.913 5.587C21.3043 5.979 21.5 6.45 21.5 7V11H19.5V10H9.5V22H19.5V21H21.5V25C21.5 25.55 21.3043 26.021 20.913 26.413C20.521 26.8043 20.05 27 19.5 27H9.5ZM20.5 20C19.4 20 18.4583 19.6083 17.675 18.825C16.8917 18.0417 16.5 17.1 16.5 16C16.5 14.9 16.8917 13.9583 17.675 13.175C18.4583 12.3917 19.4 12 20.5 12C21.6 12 22.5417 12.3917 23.325 13.175C24.1083 13.9583 24.5 14.9 24.5 16C24.5 17.1 24.1083 18.0417 23.325 18.825C22.5417 19.6083 21.6 20 20.5 20ZM20.5 18.5C20.7 18.5 20.8957 18.475 21.087 18.425C21.279 18.375 21.4667 18.3 21.65 18.2L18.3 14.85C18.2 15.0333 18.125 15.2207 18.075 15.412C18.025 15.604 18 15.8 18 16C18 16.7 18.2417 17.2917 18.725 17.775C19.2083 18.2583 19.8 18.5 20.5 18.5ZM22.7 17.15C22.8 16.9667 22.875 16.779 22.925 16.587C22.975 16.3957 23 16.2 23 16C23 15.3 22.7583 14.7083 22.275 14.225C21.7917 13.7417 21.2 13.5 20.5 13.5C20.3 13.5 20.1043 13.525 19.913 13.575C19.721 13.625 19.5333 13.7 19.35 13.8L22.7 17.15Z"/>
</svg>
