<svg width="32" height="32" viewBox="0 0 32 32" fill="none" xmlns="http://www.w3.org/2000/svg">
<path d="M10.2665 5.3352C11.061 5.3352 11.8554 5.33246 12.6506 5.3352C14.1128 5.34136 15.1737 6.39728 15.1778 7.85721C15.1826 9.45478 15.1826 11.0523 15.1778 12.6499C15.1737 14.1126 14.1155 15.1733 12.6567 15.1774C11.0589 15.1822 9.46109 15.1815 7.86395 15.1774C6.40173 15.174 5.33948 14.1146 5.33537 12.6568C5.33058 11.0592 5.33127 9.46163 5.33537 7.86406C5.3388 6.40276 6.39968 5.34205 7.8571 5.33589C8.66047 5.33246 9.46315 5.33589 10.2665 5.33589V5.3352Z"/>
<path d="M26.6627 10.2538C26.6627 11.0481 26.6654 11.8432 26.6627 12.6375C26.6572 14.1173 25.6045 15.1759 24.1293 15.1794C22.5315 15.1835 20.9337 15.1842 19.3365 15.1794C17.8907 15.1746 16.8251 14.1132 16.8203 12.6717C16.8148 11.0653 16.8155 9.45947 16.8203 7.853C16.8237 6.40814 17.8853 5.34195 19.3269 5.33784C20.933 5.33236 22.5397 5.33305 24.1457 5.33784C25.5922 5.34195 26.6531 6.40129 26.662 7.84478C26.6668 8.64802 26.6627 9.45126 26.6627 10.2538Z"/>
<path d="M15.1777 21.769C15.1777 22.5551 15.1804 23.3412 15.1777 24.1273C15.1715 25.6051 14.1168 26.6617 12.6395 26.6651C11.0506 26.6685 9.461 26.6685 7.87208 26.6651C6.39616 26.6617 5.33802 25.6023 5.3346 24.1273C5.33118 22.538 5.33118 20.9493 5.3346 19.36C5.33802 17.8843 6.39753 16.8256 7.87277 16.8229C9.46169 16.8195 11.0513 16.8195 12.6402 16.8229C14.1168 16.8263 15.1722 17.8829 15.1777 19.3606C15.1804 20.1639 15.1777 20.9671 15.1777 21.7697V21.769Z"/>
<path d="M26.668 21.7389C26.6701 24.4554 24.4661 26.6638 21.7512 26.6658C19.0357 26.6679 16.8263 24.4629 16.8242 21.7485C16.8222 19.0313 19.0254 16.8243 21.7417 16.8223C24.4593 16.8202 26.666 19.0231 26.6687 21.7389H26.668Z"/>
</svg>
