<svg width="24" height="24" viewBox="0 0 24 24" fill="none" xmlns="http://www.w3.org/2000/svg">
<path d="M11.1439 21.9996C10.7334 21.8642 10.2964 21.7797 9.91816 21.5827C9.0384 21.1243 8.51274 20.3723 8.2832 19.3967H14.7095C14.5992 19.6843 14.5224 19.964 14.3901 20.214C13.8706 21.1977 13.0553 21.7838 11.9526 21.9641C11.9134 21.9706 11.8762 21.9877 11.8382 22H11.1439V21.9996Z" />
<path d="M12.049 2.89478C11.1938 4.92174 11.2665 6.88997 12.4567 8.74197C13.6419 10.5866 15.3921 11.4851 17.56 11.5711C17.6344 12.0006 17.6822 12.4329 17.7871 12.8505C18.0763 14.0023 18.6726 14.9758 19.5744 15.7539C19.9976 16.119 20.2475 16.5586 20.1912 17.1255C20.1111 17.9269 19.4838 18.473 18.6183 18.5203C18.557 18.5236 18.4958 18.5228 18.4345 18.5228C13.7988 18.5228 9.16306 18.5252 4.52774 18.517C4.26144 18.5166 3.97799 18.4759 3.73252 18.3788C2.66405 17.9575 2.42716 16.6292 3.28447 15.8653C3.99146 15.2352 4.55919 14.5113 4.92719 13.6373C5.21513 12.9537 5.37279 12.2404 5.38137 11.499C5.39076 10.6633 5.38259 9.82723 5.38545 8.99116C5.39525 6.17095 7.19563 3.81691 9.91702 3.06404C10.5799 2.88051 11.2559 2.83483 11.9396 2.87643C11.971 2.87847 12.0025 2.88663 12.0495 2.89478H12.049Z" />
<ellipse cx="16.875" cy="5.625" rx="3.375" ry="3.375" fill="#00F896"/>
</svg>
