<svg width="24" height="24" viewBox="0 0 24 24" fill="none" xmlns="http://www.w3.org/2000/svg">
<path d="M15.5086 19.4982C15.0557 21.5028 13.4656 22.4861 12.03 22.4999C10.592 22.5136 8.95472 21.5491 8.48454 19.4982C8.40996 19.4982 8.3294 19.4982 8.24945 19.4982C6.99882 19.4982 5.7476 19.4982 4.49697 19.4982C3.89194 19.4982 3.42415 19.2348 3.15624 18.6625C2.88535 18.0839 2.97843 17.5391 3.34479 17.0187C3.78633 16.3914 4.20221 15.744 4.62227 15.0997C4.79531 14.8345 4.85199 14.5312 4.85139 14.2109C4.84841 12.4783 4.8138 10.7451 4.85796 9.01378C4.9397 5.80129 6.38186 3.46072 9.1731 2.13907C13.2072 0.228842 17.9937 2.78833 18.9562 7.32559C19.0797 7.90667 19.1304 8.51464 19.1387 9.11073C19.1626 10.7958 19.1507 12.4821 19.1441 14.1678C19.1423 14.5656 19.2408 14.9171 19.461 15.2411C19.8846 15.8635 20.3017 16.4902 20.7181 17.1176C21.0439 17.6079 21.0911 18.1346 20.8399 18.6669C20.5875 19.201 20.1549 19.4888 19.5863 19.4944C18.313 19.5069 17.0396 19.4988 15.7663 19.4988C15.6852 19.4988 15.6041 19.4988 15.5092 19.4988L15.5086 19.4982ZM19.5433 17.9882C19.1113 17.3352 18.7008 16.706 18.2813 16.0836C17.8947 15.5101 17.7115 14.8783 17.7145 14.1759C17.7211 12.4984 17.7181 10.8208 17.7145 9.14325C17.7145 8.88618 17.7032 8.62848 17.6781 8.37265C17.3219 4.71107 13.8683 2.24353 10.4834 3.22929C7.99825 3.95298 6.29415 6.27978 6.27983 8.98625C6.27088 10.7182 6.27386 12.4508 6.27983 14.1828C6.28222 14.8852 6.09605 15.5176 5.70941 16.0899C5.33112 16.6503 4.96118 17.2164 4.58826 17.7799C4.54769 17.8412 4.50771 17.9038 4.45222 17.9882H19.5421H19.5433ZM13.9948 19.4982C12.6917 19.4982 11.4059 19.4982 10.1206 19.4982C10.0848 19.4982 10.0484 19.5032 10.0114 19.5063C10.1797 20.2825 11.0443 20.9599 11.9017 20.9937C12.8415 21.0306 13.7281 20.407 13.9954 19.4982H13.9948Z" />
</svg>
