<svg width="24" height="24" viewBox="0 0 24 24" xmlns="http://www.w3.org/2000/svg">
<path d="M11.298 22.0004H2.43067C2.23692 21.9077 2.09369 21.7644 2.00098 21.5707V21.2582C2.10879 21.1144 2.20827 20.9634 2.32546 20.8279C2.77026 20.3118 3.22079 19.8003 3.67549 19.28C3.63747 19.231 3.60361 19.1836 3.56663 19.1399C2.88797 18.3466 2.4213 17.4435 2.17806 16.4289C2.09942 16.1034 2.05879 15.7685 2.00098 15.4377V14.5393C2.01244 14.4893 2.03014 14.4398 2.03535 14.3893C2.09733 13.7424 2.26452 13.1231 2.54005 12.5361C3.40986 10.6824 4.87551 9.47513 6.73961 8.72251C8.35683 8.06989 10.0391 7.89802 11.759 8.17719C13.8533 8.51782 15.6471 9.42461 17.0294 11.0679C18.7914 13.1632 18.9784 15.9971 17.481 18.2852C16.3023 20.0863 14.6137 21.1946 12.5574 21.7603C12.147 21.8733 11.7183 21.9217 11.298 22.0004ZM7.85942 14.8976C7.86255 14.2544 7.34118 13.7247 6.70002 13.7195C6.05626 13.7143 5.52448 14.233 5.51719 14.8737C5.5099 15.5258 6.03647 16.0612 6.68596 16.0617C7.32816 16.0628 7.85682 15.5383 7.85942 14.8976ZM10.2506 13.7195C9.60737 13.7164 9.07715 14.2367 9.07194 14.8778C9.06673 15.5216 9.58549 16.0539 10.2256 16.0617C10.8767 16.0695 11.4137 15.5424 11.4147 14.8929C11.4157 14.2502 10.8928 13.7226 10.2511 13.719L10.2506 13.7195ZM14.9689 14.8846C14.9658 14.2429 14.4392 13.719 13.7965 13.7195C13.146 13.7195 12.6199 14.2539 12.6267 14.9065C12.6335 15.5466 13.1658 16.0669 13.8085 16.0622C14.4486 16.0575 14.9721 15.5268 14.9689 14.8851V14.8846Z"/>
<path d="M22.0015 14.4612C21.8463 14.8008 21.5796 14.9112 21.2145 14.8961C20.7025 14.8747 20.189 14.8909 19.6822 14.8909C19.6275 14.4638 19.5978 14.0481 19.5176 13.6429C19.1905 11.9908 18.3603 10.6179 17.1316 9.484C15.6228 8.09126 13.8269 7.29854 11.806 6.99905C10.1497 6.75374 8.52419 6.89697 6.92989 7.40271C6.90541 7.41052 6.88041 7.41937 6.85541 7.42406C6.84499 7.42614 6.83249 7.41885 6.77051 7.40271C6.89603 7.02718 6.99447 6.64436 7.14916 6.2855C7.77678 4.82714 8.85701 3.78649 10.232 3.03492C11.2956 2.45365 12.4394 2.12813 13.6482 2.03281C13.6988 2.02865 13.7482 2.01146 13.7982 2H14.9311C14.9878 2.01094 15.0446 2.0276 15.1019 2.03177C16.5821 2.15052 17.9509 2.59793 19.1765 3.44326C20.4827 4.34432 21.4151 5.52611 21.8244 7.0803C21.9052 7.38604 21.9437 7.70323 22.0015 8.01522V8.87461C21.9895 8.93086 21.9724 8.98607 21.9661 9.04284C21.8692 9.93713 21.5687 10.7601 21.0807 11.5127C20.9015 11.7892 20.6963 12.0486 20.4947 12.3278C20.6895 12.5559 20.8911 12.7841 21.0848 13.019C21.3932 13.3934 21.6963 13.7716 22.002 14.1487V14.4612H22.0015Z" />
</svg>
