<svg width="24" height="24" viewBox="0 0 24 24" fill="none" xmlns="http://www.w3.org/2000/svg">
<path d="M22.5 18.7583C22.3942 19.1511 22.2118 19.4932 21.8598 19.7126C21.4534 19.9664 21.0285 19.9811 20.5815 19.8218C19.5062 19.4389 18.4257 19.0701 17.3498 18.6877C17.1967 18.6334 17.0713 18.6386 16.9229 18.7081C15.8881 19.1944 14.8004 19.466 13.6603 19.511C13.5149 19.5167 13.4291 19.5768 13.3397 19.688C11.8174 21.5815 9.85521 22.4147 7.46148 22.1713C6.82695 22.1065 6.21863 21.92 5.62983 21.6651C5.53581 21.6244 5.40274 21.6218 5.30461 21.6541C4.54626 21.9085 3.79613 22.1869 3.03675 22.4366C2.23782 22.6994 1.46046 22.1122 1.50156 21.2859C1.50875 21.1365 1.55345 20.985 1.60072 20.8414C1.83398 20.1378 2.06775 19.4347 2.3154 18.7363C2.3827 18.5467 2.37243 18.3895 2.29793 18.2035C1.51697 16.2463 1.60535 14.3282 2.59438 12.464C3.00182 11.6961 3.55311 11.0458 4.22874 10.5078C4.33047 10.4263 4.36849 10.3433 4.37157 10.2127C4.46405 6.12637 7.42449 2.52376 11.3647 1.69584C15.7627 0.771811 20.0631 3.18714 21.5814 7.47455C22.3823 9.7363 22.2744 11.9892 21.3245 14.193C21.2392 14.3909 21.2253 14.5555 21.2967 14.7634C21.698 15.9287 22.0823 17.0998 22.4733 18.2693C22.4774 18.2814 22.4908 18.2897 22.4995 18.2996V18.7583H22.5ZM13.1008 2.76926C12.9292 2.7818 12.6148 2.79433 12.3034 2.82985C11.1073 2.96671 10.0006 3.37309 9.0126 4.06468C7.17222 5.35278 6.04394 7.11465 5.70228 9.37484C5.55533 10.3474 5.5913 11.3159 5.81736 12.2707C6.2027 13.8994 7.02168 15.2664 8.26812 16.3638C9.46987 17.4221 10.8669 18.0395 12.4447 18.2129C13.9362 18.3769 15.3553 18.1011 16.6937 17.4116C16.93 17.2899 17.1541 17.2753 17.4022 17.3646C18.0712 17.6054 18.7437 17.8347 19.4147 18.0693C19.9439 18.2542 20.4716 18.4422 21.0023 18.6219C21.065 18.6433 21.1585 18.6418 21.2083 18.6068C21.2392 18.5848 21.2212 18.4804 21.2135 18.4146C21.2083 18.3675 21.1837 18.3226 21.1678 18.2767C20.7706 17.1024 20.3765 15.9277 19.9747 14.7555C19.891 14.5116 19.8905 14.2859 20.0081 14.053C20.4834 13.1159 20.7588 12.1203 20.8297 11.0678C20.9324 9.54513 20.6247 8.11129 19.8951 6.77983C19.0823 5.29741 17.9124 4.19317 16.3972 3.47547C15.3984 3.00223 14.3447 2.77239 13.1003 2.76874L13.1008 2.76926ZM11.8693 19.4592C7.84425 18.5645 5.3791 16.0943 4.44761 12.0001C4.26984 12.2331 4.0859 12.4473 3.93126 12.6818C3.18061 13.8195 2.90266 15.0695 3.0907 16.4265C3.17034 17.0021 3.34811 17.5464 3.60243 18.0646C3.70981 18.2829 3.72471 18.4971 3.63686 18.7264C3.55003 18.9526 3.48015 19.185 3.40257 19.4143C3.20887 19.9894 3.01517 20.564 2.81172 21.1684C2.90574 21.1391 2.96842 21.1208 3.03059 21.0994C3.74013 20.8518 4.45223 20.6115 5.15818 20.353C5.4274 20.2543 5.66939 20.2626 5.92526 20.3922C6.92046 20.8962 7.97218 21.0571 9.06963 20.8821C10.1465 20.7103 11.0729 20.2271 11.8693 19.4587V19.4592Z"/>
<path d="M13.4014 9.43339C14.7907 9.43339 16.1805 9.4316 17.5698 9.43459C18.0554 9.43519 18.3778 9.73366 18.3754 10.167C18.3737 10.5067 18.1458 10.798 17.817 10.8643C17.7031 10.8875 17.5845 10.8923 17.4682 10.8923C14.7595 10.8935 12.0503 10.8935 9.34158 10.8935C8.77671 10.8935 8.43556 10.6153 8.4385 10.1593C8.44143 9.705 8.78141 9.43399 9.34922 9.43399C10.6997 9.43399 12.0503 9.43399 13.4008 9.43399L13.4014 9.43339Z" />
<path d="M13.417 7.90278C12.0119 7.90278 10.6067 7.90577 9.20161 7.90099C8.6526 7.8992 8.30205 7.41031 8.48936 6.91723C8.58331 6.6701 8.76416 6.5143 9.02311 6.46953C9.13761 6.44983 9.25622 6.44923 9.37307 6.44923C12.0665 6.44804 14.7599 6.44864 17.4527 6.44864C17.5232 6.44864 17.5937 6.44744 17.6635 6.45222C18.0992 6.48266 18.3881 6.78949 18.3746 7.20377C18.3617 7.60193 18.0552 7.89502 17.6324 7.90099C17.2502 7.90696 16.8673 7.90219 16.4851 7.90219C15.4622 7.90219 14.4399 7.90219 13.417 7.90219V7.90278Z" />
<path d="M11.7786 13.8698C10.9043 13.8698 10.0293 13.8776 9.15503 13.8669C8.62774 13.8603 8.29187 13.3439 8.49797 12.8688C8.63126 12.562 8.87905 12.4247 9.20964 12.4258C10.3652 12.4282 11.5208 12.4264 12.6764 12.427C13.2542 12.427 13.832 12.4217 14.4097 12.4312C14.7632 12.4372 15.0433 12.6975 15.0909 13.0353C15.1414 13.3947 14.9441 13.7326 14.6082 13.8346C14.499 13.8681 14.3775 13.8704 14.2612 13.8704C13.4333 13.8734 12.6059 13.8722 11.778 13.8722V13.8704L11.7786 13.8698Z" />
</svg>
