<svg width="24" height="24" viewBox="0 0 24 24"  xmlns="http://www.w3.org/2000/svg">
<path d="M22.4828 19.3418C22.4379 19.426 22.4013 19.5152 22.3477 19.5928C22.1344 19.9002 21.7522 19.9636 21.4486 19.7405C21.3726 19.6847 21.3043 19.6147 21.243 19.5425C19.178 17.1171 16.5787 15.5891 13.4708 14.9176C13.3587 14.8935 13.2914 14.8755 13.292 14.7316C13.2969 12.0191 13.2958 9.30664 13.2958 6.59414C13.2958 6.56734 13.3007 6.54 13.304 6.50938C13.7333 6.39781 14.1654 6.30047 14.5886 6.17359C17.2224 5.38555 19.435 3.94891 21.225 1.8593C21.3518 1.71164 21.5427 1.61867 21.7035 1.5H21.9496C22.2192 1.58586 22.3838 1.77672 22.4828 2.0332V19.3418Z" />
<path d="M1.48242 8.55472C1.64211 8.1812 1.9243 8.04229 2.32789 8.05706C2.91305 8.07839 3.49984 8.06253 4.10742 8.06253C4.10742 7.86292 4.10742 7.68026 4.10742 7.49761C4.10906 7.00651 4.36281 6.75058 4.85117 6.75003C6.90797 6.74948 8.96531 6.75167 11.0221 6.74784C11.3349 6.74729 11.6472 6.71831 11.9709 6.7019V14.6524H9.5882C9.61555 14.7125 9.6418 14.7738 9.67133 14.8328C10.3511 16.1946 11.0314 17.5557 11.7112 18.9169C12.0453 19.5857 11.9589 20.1184 11.4301 20.645C11.009 21.0645 10.5797 21.4763 10.1657 21.9028C9.89937 22.1774 9.61555 22.412 9.23383 22.5H8.82367C8.20898 22.3562 7.88961 21.9389 7.6807 21.3642C7.03758 19.595 6.36602 17.8368 5.70539 16.0742C5.52437 15.5914 5.34172 15.1085 5.16016 14.625C5.03109 14.625 4.92227 14.6261 4.81344 14.625C4.38141 14.619 4.11234 14.3505 4.10797 13.9196C4.10578 13.7232 4.10797 13.5269 4.10797 13.3125C3.50094 13.3125 2.91469 13.2967 2.33008 13.318C1.92703 13.3322 1.64594 13.1906 1.48297 12.8203V8.55472H1.48242Z" />
</svg>
