
  <svg width="32" height="32" viewBox="0 0 32 32" fill="none" xmlns="http://www.w3.org/2000/svg">
    <path
      d="M15.0639 27.9996C14.7277 27.8608 14.3584 27.775 14.0683 27.5768C13.4749 27.1804 13.2178 26.5793 13.1914 25.879C13.1914 25.7535 13.1914 25.628 13.1914 25.5025C13.1914 25.04 13.2375 24.5974 12.8485 24.2077C12.5321 23.8906 12.4859 23.4281 12.4859 22.9789C12.4859 21.9682 12.1496 21.1028 11.4375 20.3629C8.21337 16.9938 9.5782 11.4513 14.009 9.99132C16.6266 9.12592 19.4551 10.0244 21.0837 12.244C22.6727 14.4174 22.7518 17.2052 21.2881 19.4645C21.0639 19.8146 20.7804 20.1383 20.4903 20.4422C19.8244 21.1623 19.5145 22.0078 19.5145 22.9789C19.5145 23.4348 19.409 23.8575 19.1518 24.2407C19.1386 24.2605 19.132 24.2869 19.1123 24.3002C18.7628 24.5446 18.809 24.9079 18.8024 25.2646C18.7958 25.6676 18.8024 26.0838 18.7035 26.467C18.4727 27.3125 17.8793 27.8014 17.0222 27.9599C16.9958 27.9599 16.9628 27.9798 16.9364 27.993H15.0639V27.9996ZM15.9936 23.7783C16.4222 23.7783 16.8507 23.7783 17.2793 23.7783C17.8331 23.7783 18.0705 23.514 18.1167 22.9657C18.1628 22.4174 18.2353 21.8625 18.3738 21.334C18.5914 20.495 19.1452 19.8542 19.7057 19.2134C20.82 17.9319 21.1892 16.4257 20.7606 14.8006C20.2266 12.7857 18.8815 11.5504 16.8244 11.1606C14.2331 10.6717 11.7013 12.3893 11.1936 14.9723C10.9233 16.353 11.1606 17.6478 11.9782 18.8039C12.2485 19.1936 12.598 19.5239 12.8947 19.9005C13.6002 20.8055 13.8903 21.8493 13.8969 22.9789C13.8969 23.514 14.1738 23.7783 14.7079 23.7849C15.1364 23.7849 15.565 23.7849 15.9936 23.7849V23.7783ZM17.4046 25.1854H14.5958C14.5958 25.4562 14.5826 25.7006 14.5958 25.9385C14.6156 26.3018 14.8991 26.5793 15.2683 26.5859C15.7496 26.5991 16.2375 26.5991 16.7189 26.5859C17.0947 26.5793 17.3782 26.2952 17.398 25.9187C17.4112 25.6874 17.398 25.4496 17.398 25.1854H17.4046Z"
      fill="#0072FF"
    />
    <path
      d="M4 15.8118C4.18462 15.4089 4.50769 15.2767 4.94286 15.29C5.80659 15.3098 6.67692 15.29 7.54066 15.2966C8.06154 15.2966 8.3978 15.7854 8.21319 16.2478C8.1011 16.5253 7.88352 16.6904 7.58681 16.6971C6.61758 16.7037 5.65495 16.6971 4.68571 16.6971C4.33626 16.6971 4.14505 16.4658 4 16.1818V15.8052V15.8118Z"
      fill="#0072FF"
    />
    <path
      d="M28.0006 16.188C27.816 16.5909 27.493 16.7231 27.0578 16.7098C26.1941 16.69 25.3237 16.7098 24.46 16.7032C23.9391 16.7032 23.6028 16.2144 23.7875 15.752C23.8995 15.4745 24.1171 15.3093 24.4138 15.3027C25.3831 15.2961 26.3457 15.3027 27.3149 15.3027C27.6644 15.3027 27.8556 15.534 28.0006 15.818V16.1946V16.188Z"
      fill="#0072FF"
    />
    <path
      d="M15.2949 6.13377C15.2949 5.67795 15.2949 5.22874 15.2949 4.77291C15.3015 4.31709 15.5916 4 16.0004 4C16.4092 4 16.6993 4.31709 16.7059 4.77291C16.7059 5.67795 16.7059 6.58299 16.7059 7.48803C16.7059 7.94385 16.4158 8.26094 16.007 8.26094C15.5982 8.26094 15.3081 7.94385 15.3015 7.48803C15.3015 7.0322 15.3015 6.58299 15.3015 6.12717L15.2949 6.13377Z"
      fill="#0072FF"
    />
    <path
      d="M10.7443 9.93856C10.7245 10.3085 10.5993 10.5331 10.3355 10.6586C10.0718 10.7841 9.81465 10.7577 9.59048 10.5661C9.39927 10.3944 9.22125 10.2094 9.03663 10.0244C8.54212 9.53559 8.05421 9.04674 7.55971 8.55128C7.35531 8.34649 7.28278 8.09546 7.38168 7.818C7.47399 7.55376 7.6652 7.39521 7.94212 7.34897C8.17289 7.30933 8.37729 7.3886 8.54212 7.54715C9.20806 8.20776 9.87399 8.86837 10.5267 9.5422C10.6454 9.66111 10.6916 9.84608 10.7443 9.93856Z"
      fill="#0072FF"
    />
    <path
      d="M22.0602 10.7386C21.7041 10.7254 21.4865 10.6131 21.3547 10.3753C21.2228 10.1374 21.2294 9.89962 21.3679 9.6618C21.3942 9.62216 21.4206 9.58252 21.4536 9.54949C22.1195 8.88228 22.7855 8.20845 23.458 7.54784C23.6624 7.34305 23.9195 7.2836 24.1964 7.38929C24.4602 7.48839 24.6448 7.68657 24.6382 7.96403C24.6382 8.1556 24.5657 8.40003 24.4404 8.53215C23.7942 9.21258 23.1283 9.87319 22.4558 10.5206C22.3371 10.6395 22.1525 10.6923 22.0668 10.7386H22.0602Z"
      fill="#0072FF"
    />
    <path
      d="M16.698 13.1959C16.698 13.5922 16.3947 13.8763 15.9398 13.8895C15.1947 13.9159 14.6013 14.2396 14.1991 14.8672C14.0936 15.0258 14.0343 15.2174 13.9618 15.4023C13.8035 15.8317 13.4343 16.0365 13.0453 15.8978C12.6695 15.7657 12.4914 15.3825 12.6233 14.9597C13.0783 13.4866 14.3903 12.5022 15.9266 12.4824C16.3684 12.4824 16.698 12.7797 16.6914 13.1893L16.698 13.1959Z"
      fill="#0072FF"
    />
  </svg>
