
  <svg width="66" height="66" viewBox="0 0 66 66" fill="none" xmlns="http://www.w3.org/2000/svg">
    <rect width="66" height="66" rx="33" fill="#0072FF" />
    <path
      d="M32.9969 44.999C29.5165 44.999 26.0362 44.999 22.5566 44.999C20.4699 44.9983 19 43.5424 19 41.4751C19 37.0529 19 32.6306 19 28.2092C19 26.148 20.4738 24.696 22.5651 24.6953C23.7605 24.6953 24.9567 24.6899 26.152 24.6999C26.3504 24.7014 26.4437 24.6499 26.502 24.4568C26.6288 24.0338 26.7735 23.6155 26.929 23.2017C27.4236 21.8812 28.661 21.0144 30.0858 21.0075C32.0302 20.9975 33.9745 20.9975 35.9188 21.0075C37.3444 21.0152 38.574 21.8796 39.0726 23.2071C39.2211 23.6024 39.3595 24.0031 39.4785 24.4084C39.5423 24.626 39.6372 24.706 39.8806 24.7029C41.0861 24.6876 42.2916 24.6945 43.4971 24.696C45.5083 24.6991 46.9969 26.1673 46.9977 28.1569C47 32.6176 47 37.0775 46.9977 41.5382C46.9969 43.5262 45.506 44.9975 43.4955 44.9983C39.9957 45.0006 36.4959 44.9983 32.9969 44.9983V44.999ZM32.9844 43.1532C36.464 43.1532 39.9428 43.1532 43.4224 43.1532C44.4996 43.1532 45.1319 42.5341 45.1319 41.4782C45.1319 37.0575 45.1319 32.636 45.1319 28.2153C45.1319 27.1694 44.5019 26.5418 43.452 26.541C41.9751 26.5395 40.4974 26.5418 39.0204 26.5403C38.469 26.5403 38.1758 26.3334 37.9977 25.8173C37.7846 25.1998 37.5816 24.5791 37.3693 23.9615C37.1197 23.2363 36.5822 22.8518 35.8138 22.8502C33.9379 22.8479 32.0621 22.8479 30.1869 22.8502C29.4178 22.851 28.8803 23.2363 28.6315 23.9608C28.423 24.5699 28.2232 25.1813 28.0147 25.7904C27.8273 26.3388 27.5395 26.5403 26.9516 26.5403C25.4941 26.541 24.0358 26.5403 22.5784 26.5403C21.488 26.5403 20.8681 27.1579 20.8681 28.2423C20.8681 32.6437 20.8681 37.046 20.8681 41.4474C20.8681 42.5441 21.488 43.1517 22.6056 43.1517C26.0657 43.1517 29.5251 43.1517 32.9852 43.1517L32.9844 43.1532Z"
      fill="white"
    />
    <path
      d="M26 34.3897C25.9977 30.5766 29.1358 27.4633 32.9802 27.4648C36.8681 27.4664 40.0039 30.5704 39.9992 34.4127C39.9938 38.2158 36.8447 41.3137 32.9879 41.3083C29.1335 41.3037 26.0023 38.2035 26 34.3904V34.3897ZM38.1319 34.3881C38.1249 31.5902 35.8282 29.3083 33.0229 29.3114C30.1477 29.3145 27.8596 31.5848 27.8666 34.4273C27.8736 37.2007 30.1881 39.4633 33.0175 39.4625C35.8251 39.4618 38.1381 37.1661 38.1311 34.3889L38.1319 34.3881Z"
      fill="white"
    />
    <path
      d="M42.3388 28.3877C42.8459 28.3916 43.2636 28.8092 43.2628 29.3106C43.2628 29.8236 42.8265 30.2435 42.3077 30.232C41.803 30.2205 41.3908 29.7951 41.3985 29.2937C41.4071 28.79 41.8286 28.3839 42.3388 28.3877Z"
      fill="white"
    />
  </svg>

