<svg width="18" height="16" viewBox="0 0 18 16" fill="none" xmlns="http://www.w3.org/2000/svg">
<path fill-rule="evenodd" clip-rule="evenodd" d="M8.79934 0.207929C8.56772 0.256922 8.36319 0.37689 8.2224 0.546317C8.03559 0.771131 0.380523 14.1216 0.303034 14.3578C0.131982 14.8791 0.387054 15.4695 0.890359 15.7174L1.0835 15.8125H9H16.9165L17.1096 15.7174C17.6129 15.4695 17.868 14.8791 17.697 14.3578C17.6606 14.2468 15.9386 11.2082 13.7692 7.42654C10.8135 2.27432 9.86579 0.649583 9.73413 0.508746C9.49547 0.253438 9.13405 0.137134 8.79934 0.207929ZM9.23596 4.84199C9.47109 4.89497 9.67367 5.05739 9.75988 5.26202C9.82602 5.41905 9.82858 5.47096 9.80659 6.2024C9.79377 6.62818 9.7687 7.29982 9.75089 7.69492C9.73304 8.09002 9.7038 8.88623 9.68585 9.46423C9.64857 10.6657 9.64724 10.6712 9.36156 10.8208C9.06169 10.9777 8.62555 10.9194 8.43719 10.6971C8.35587 10.6011 8.3412 10.3928 8.26508 8.25166C8.15887 5.26342 8.16051 5.45102 8.23851 5.26583C8.32137 5.06914 8.50066 4.91569 8.72031 4.85359C8.92306 4.79623 9.02291 4.794 9.23596 4.84199ZM9.27795 11.7906C9.77339 11.968 10.0029 12.5488 9.77274 13.0429C9.45502 13.725 8.57138 13.7312 8.24234 13.0538C7.89969 12.3483 8.56588 11.5358 9.27795 11.7906Z" />
</svg>
