<svg width="16" height="16" viewBox="0 0 16 16" fill="none" xmlns="http://www.w3.org/2000/svg">
<path d="M3.06582 13.3335C2.76507 13.2383 2.66621 13.0261 2.667 12.721C2.67247 10.2086 2.67013 7.69602 2.67013 5.18368C2.67013 4.79433 2.85506 4.6084 3.24242 4.6084C4.81112 4.6084 6.37957 4.6084 7.94828 4.6084C8.21981 4.6084 8.40214 4.73644 8.46787 4.96932C8.54404 5.23922 8.36197 5.5253 8.08522 5.56728C8.02392 5.57667 7.9608 5.57928 7.89872 5.57928C6.52799 5.58006 5.15726 5.5798 3.78627 5.5798C3.74193 5.5798 3.69785 5.5798 3.64698 5.5798V12.3572H10.4239C10.4239 12.3144 10.4239 12.2711 10.4239 12.2278C10.4239 10.8431 10.4239 9.45862 10.4239 8.07389C10.4239 7.80711 10.5327 7.62717 10.738 7.54972C11.0309 7.43915 11.3439 7.62665 11.389 7.94141C11.3964 7.99252 11.3953 8.0452 11.3953 8.0971C11.3956 9.63804 11.3919 11.1787 11.3987 12.7197C11.4 13.024 11.3006 13.237 11.0009 13.3335H3.06582Z" fill="#0056C0"/>
<path d="M13.3328 7.12712C13.296 7.19701 13.2681 7.27342 13.2209 7.33496C13.1006 7.49221 12.8967 7.55115 12.7073 7.49456C12.5234 7.43954 12.3919 7.28124 12.3711 7.08618C12.3651 7.03116 12.3632 6.97535 12.3632 6.92006C12.3627 6.10461 12.363 5.28889 12.363 4.47344V4.33053C12.3163 4.37486 12.2876 4.40094 12.2602 4.42832C10.6503 6.03785 9.03984 7.64712 7.43123 9.25795C7.29037 9.39877 7.13622 9.48743 6.93015 9.44258C6.58114 9.36669 6.43142 8.95283 6.6534 8.67354C6.68783 8.63025 6.72748 8.59087 6.7666 8.55176C8.36635 6.95162 9.9661 5.35148 11.5666 3.75212C11.5956 3.72318 11.6331 3.70336 11.6668 3.67937L11.648 3.63999C11.6091 3.63999 11.5703 3.63999 11.5314 3.63999C10.7056 3.63999 9.8795 3.64155 9.05367 3.6379C8.95872 3.63738 8.85699 3.62539 8.77013 3.59018C8.56537 3.50699 8.45921 3.29081 8.49651 3.07123C8.53329 2.85557 8.70988 2.69284 8.93081 2.67328C8.97229 2.66963 9.01402 2.67041 9.05576 2.67041C10.2773 2.67041 11.4988 2.67485 12.7203 2.66702C13.0253 2.66494 13.2381 2.76482 13.3331 3.06602V7.12712H13.3328Z" fill="#0056C0"/>
</svg>
