<svg width="24" height="24" viewBox="0 0 24 24" fill="none" xmlns="http://www.w3.org/2000/svg">
<path d="M11.3 2.25909L5.3 4.50909C4.52 4.80909 4 5.54909 4 6.38909V11.0991C4 16.1491 7.41 20.8591 12 22.0091C16.59 20.8591 20 16.1491 20 11.0991V6.38909C19.9993 5.98215 19.8745 5.58511 19.6422 5.25098C19.4099 4.91684 19.0812 4.66152 18.7 4.51909L12.7 2.26909C12.25 2.08909 11.75 2.08909 11.3 2.25909ZM10.23 14.8291L8.11 12.7091C8.01742 12.6165 7.94398 12.5066 7.89387 12.3856C7.84377 12.2647 7.81798 12.135 7.81798 12.0041C7.81798 11.8732 7.84377 11.7435 7.89387 11.6225C7.94398 11.5016 8.01742 11.3917 8.11 11.2991C8.20258 11.2065 8.31249 11.1331 8.43346 11.083C8.55442 11.0329 8.68407 11.0071 8.815 11.0071C8.94593 11.0071 9.07558 11.0329 9.19654 11.083C9.31751 11.1331 9.42742 11.2065 9.52 11.2991L10.93 12.7091L14.47 9.16909C14.5626 9.07651 14.6725 9.00307 14.7935 8.95296C14.9144 8.90286 15.0441 8.87707 15.175 8.87707C15.3059 8.87707 15.4356 8.90286 15.5565 8.95296C15.6775 9.00307 15.7874 9.07651 15.88 9.16909C15.9726 9.26167 16.046 9.37158 16.0961 9.49255C16.1462 9.61351 16.172 9.74316 16.172 9.87409C16.172 10.005 16.1462 10.1347 16.0961 10.2556C16.046 10.3766 15.9726 10.4865 15.88 10.5791L11.64 14.8191C11.26 15.2191 10.62 15.2191 10.23 14.8291Z"/>
</svg>
