<svg width="16" height="16" viewBox="0 0 16 16" fill="none" xmlns="http://www.w3.org/2000/svg">
<circle cx="8" cy="8" r="8" fill="#6AA0FF"/>
<path d="M7.35377 9.66391H8.82862V9.21212C8.82862 8.14325 10.6667 7.79063 10.6667 6.13774C10.6667 4.88154 9.63208 4 8.21226 4C6.83648 4 6.20912 4.93664 6 5.5427L7.21069 6.08264C7.33176 5.79614 7.58491 5.39945 8.19025 5.39945C8.77359 5.39945 9.11478 5.79614 9.11478 6.2259C9.11478 7.29477 7.35377 7.63636 7.35377 9.12397V9.66391ZM8.0912 12C8.6195 12 9.02673 11.5813 9.02673 11.0744C9.02673 10.5565 8.6195 10.1267 8.0912 10.1267C7.56289 10.1267 7.15566 10.5565 7.15566 11.0744C7.15566 11.5813 7.56289 12 8.0912 12Z" fill="white"/>
</svg>
