<svg width="32" height="32" viewBox="0 0 32 32" fill="none" xmlns="http://www.w3.org/2000/svg">
<g clip-path="url(#clip0_3078_1217)">
<g clip-path="url(#clip1_3078_1217)">
<path d="M16.2033 24.4832C13.6818 24.4832 11.1594 24.4455 8.63897 24.4987C7.36714 24.5258 6.32645 23.4735 6.62048 22.0624C7.23173 19.128 8.79082 16.8716 11.3635 15.3251C11.7746 15.0775 11.9554 15.1007 12.292 15.4266C14.5803 17.6385 17.9094 17.6405 20.1842 15.4237C20.455 15.1597 20.72 15.0842 21.0546 15.2844C23.725 16.8841 25.3557 19.2054 25.876 22.2791C26.081 23.4909 25.2202 24.4745 23.9842 24.4794C21.3902 24.4881 18.7963 24.4823 16.2023 24.4823L16.2033 24.4832Z" fill="white"/>
<path d="M19.9644 11.5465C19.8677 13.6695 18.1239 15.3437 16.1092 15.2469C14.0327 15.1473 12.4021 13.4025 12.5046 11.3918C12.611 9.30364 14.3345 7.68652 16.352 7.78131C18.414 7.87802 20.0534 9.58702 19.9634 11.5465H19.9644Z" fill="white"/>
<path d="M10.3435 0.0144993V2.26995C10.2139 2.27769 10.0872 2.29123 9.96052 2.29123C8.87535 2.2951 7.79018 2.27673 6.70598 2.30187C4.5308 2.3512 2.78214 3.81937 2.38366 5.95393C2.28501 6.48104 2.30822 7.0333 2.30049 7.57492C2.28791 8.40476 2.29758 9.23556 2.29758 10.0944H0.0759796C0.0663079 10.0828 0.0392269 10.0635 0.0392269 10.0461C0.0740453 8.41249 -0.161946 6.76346 0.228794 5.14827C0.936767 2.22063 3.50365 0.12379 6.51157 0.0212695C7.77374 -0.0222534 9.03977 0.0144993 10.3435 0.0144993Z" fill="white"/>
<path d="M22.1455 2.29239V0.0504723C22.1977 0.0340303 22.2316 0.0137196 22.2645 0.0137196C23.6872 0.0311288 25.1157 -0.0269018 26.5316 0.0843235C29.4486 0.312577 32.0871 2.86882 32.3628 5.78003C32.4972 7.19984 32.386 8.6419 32.386 10.0985H30.2059C30.1992 9.95049 30.1885 9.81122 30.1866 9.67098C30.175 8.56163 30.2195 7.44744 30.144 6.34292C29.9941 4.15033 28.1439 2.38717 25.9455 2.3098C24.8246 2.27014 23.7017 2.29626 22.5798 2.29335C22.4492 2.29335 22.3177 2.29335 22.1445 2.29335L22.1455 2.29239Z" fill="white"/>
<path d="M10.3389 29.7065V31.9494C10.2857 31.9658 10.2528 31.9861 10.22 31.9851C8.80884 31.9687 7.39193 32.0277 5.98856 31.9174C3.00868 31.6834 0.387636 29.1252 0.113925 26.1463C-0.0137423 24.7497 0.0916799 23.3318 0.0916799 21.9004H2.27847C2.28524 22.0493 2.29588 22.1886 2.29781 22.3288C2.30845 23.4382 2.26299 24.5524 2.3394 25.6569C2.49125 27.8505 4.34145 29.6107 6.53888 29.6891C7.65984 29.7287 8.78273 29.7026 9.90465 29.7065C10.0352 29.7065 10.1668 29.7065 10.3389 29.7065Z" fill="white"/>
<path d="M22.1367 31.9842V29.7277C22.2731 29.72 22.4008 29.7074 22.5284 29.7074C23.6146 29.7036 24.7007 29.7248 25.7859 29.6968C27.9678 29.6397 29.7203 28.1696 30.0946 26.0273C30.2184 25.3222 30.1682 24.5853 30.1817 23.8628C30.1943 23.2148 30.1846 22.5668 30.1846 21.8984H32.4575C32.4575 22.3453 32.4691 22.7766 32.4555 23.207C32.4188 24.3144 32.4923 25.4412 32.3046 26.5235C31.7688 29.6107 29.113 31.8623 25.9687 31.9784C24.7055 32.0248 23.4395 31.9861 22.1367 31.9861V31.9842Z" fill="white"/>
</g>
</g>
<defs>
<clipPath id="clip0_3078_1217">
<rect width="32" height="32" fill="white"/>
</clipPath>
<clipPath id="clip1_3078_1217">
<rect width="32.4623" height="32" fill="white"/>
</clipPath>
</defs>
</svg>
