<svg width="23" height="12" viewBox="0 0 23 12" fill="none" xmlns="http://www.w3.org/2000/svg">
<path d="M11.5397 6.82H11.4603C10.0307 6.82 8.85921 6.5 8.00541 6C8.85921 5.5 10.0307 5.18 11.4603 5.18H11.5397C12.9693 5.18 14.1408 5.5 14.9946 6C14.1408 6.48 12.9693 6.82 11.5397 6.82ZM18.4296 6C20.8321 5.02 22.4206 3.56 22.5 1.92C22.5 1.92 21.8646 1.46 19.7996 0.76C17.9928 0.14 16.6227 0 16.6227 0V3.64C16.6227 4.18 16.3845 4.74 15.9477 5.22C14.5776 4.92 13.0686 4.74 11.5 4.74C9.91155 4.74 8.40253 4.92 7.05235 5.22C6.61552 4.72 6.37726 4.18 6.37726 3.64V0C6.37726 0 5.00722 0.14 3.20036 0.76C1.13538 1.46 0.5 1.92 0.5 1.92C0.579422 3.56 2.16787 5.02 4.5704 6C2.16787 6.98 0.579422 8.44 0.5 10.08C0.5 10.08 1.13538 10.54 3.20036 11.24C5.00722 11.86 6.37726 12 6.37726 12V8.36C6.37726 7.82 6.61552 7.26 7.05235 6.78C8.42238 7.08 9.93141 7.26 11.5 7.26C13.0884 7.26 14.5975 7.08 15.9477 6.78C16.3845 7.28 16.6227 7.82 16.6227 8.36V12C16.6227 12 17.9928 11.86 19.7996 11.24C21.8448 10.54 22.5 10.08 22.5 10.08C22.4206 8.44 20.8321 6.98 18.4296 6Z" fill="#0070BF"/>
</svg>
