<svg width="17" height="18" viewBox="0 0 17 18" fill="none" xmlns="http://www.w3.org/2000/svg">
<path d="M0.687895 1.52873C1.00865 1.21317 1.34824 0.916839 1.70452 0.641881C1.82814 0.548923 1.98479 0.512238 2.13647 0.540019C4.23722 0.88799 6.3607 1.07711 8.48987 1.10561C10.6229 1.06785 12.75 0.868401 14.8532 0.509389C15.0052 0.480896 15.1619 0.517937 15.2852 0.611251C15.6457 0.896181 15.9885 1.20248 16.3121 1.52873C16.4162 1.61634 16.4833 1.74029 16.5 1.87527V3.11864C16.5 3.11864 16.5 3.99515 16.4695 4.50482C16.3302 7.9856 15.6546 11.4236 14.4667 14.6971C14.4355 14.7837 14.3833 14.8606 14.3144 14.9215C12.6981 16.333 10.1871 17.5001 8.48951 17.5001C6.79193 17.5001 4.30151 16.3383 2.67498 14.9215C2.60606 14.861 2.55349 14.7837 2.52259 14.6971C1.3383 11.4229 0.666227 7.98489 0.530179 4.50482C0.530179 3.99515 0.49963 3.54674 0.49963 3.12362V1.88026C0.51526 1.74314 0.582396 1.61741 0.68754 1.52873H0.687895ZM9.69938 11.1302L9.72993 11.1811C10.3654 12.3126 11.392 12.4551 12.5457 11.9963C13.6995 11.5376 14.66 10.5899 14.2586 9.26494C13.8774 8.0725 12.0221 8.55653 11.1632 8.75527C9.95372 9.05587 9.03371 9.77461 9.67913 11.0689C9.65356 11.0383 9.64361 11.0283 9.69938 11.1302ZM2.72613 10.3046C3.02096 11.5123 4.2255 12.1442 5.41476 12.2717C6.50741 12.3839 7.47324 11.3239 7.51373 10.2333V10.1518C7.47821 8.86247 5.58242 8.62278 4.62689 8.53623C3.36623 8.41406 2.37517 8.84716 2.72613 10.3046Z" fill="#FCB316"/>
</svg>
