<svg width="21" height="20" viewBox="0 0 21 20" fill="none" xmlns="http://www.w3.org/2000/svg">
<rect x="0.5" width="20" height="20" rx="10" fill="url(#paint0_radial_130_790)"/>
<rect x="0.5" width="20" height="20" rx="10" fill="url(#paint1_radial_130_790)"/>
<g clip-path="url(#clip0_130_790)">
<path d="M10.5 5.0813C12.1022 5.0813 12.2918 5.08749 12.9246 5.11631C13.5095 5.14298 13.8272 5.24063 14.0387 5.3228C14.3188 5.43165 14.5187 5.56169 14.7287 5.77152C14.9388 5.98158 15.0688 6.18141 15.1774 6.4615C15.2596 6.67299 15.3573 6.99071 15.3839 7.57566C15.4128 8.20824 15.4189 8.39806 15.4189 10.0002C15.4189 11.6024 15.4128 11.792 15.3839 12.4248C15.3573 13.0098 15.2596 13.3275 15.1774 13.539C15.0686 13.8191 14.9386 14.0189 14.7287 14.229C14.5187 14.439 14.3188 14.5691 14.0387 14.6777C13.8272 14.7598 13.5095 14.8575 12.9246 14.8842C12.292 14.913 12.1022 14.9192 10.5 14.9192C8.89783 14.9192 8.708 14.913 8.07542 14.8842C7.49047 14.8575 7.17275 14.7598 6.96126 14.6777C6.68117 14.5688 6.48134 14.4388 6.27128 14.229C6.06121 14.0189 5.93117 13.8191 5.82256 13.539C5.74039 13.3275 5.64274 13.0098 5.61607 12.4248C5.58725 11.7922 5.58106 11.6024 5.58106 10.0002C5.58106 8.39806 5.58725 8.20848 5.61607 7.57566C5.64274 6.99071 5.74039 6.67299 5.82256 6.4615C5.93141 6.18141 6.06145 5.98158 6.27128 5.77152C6.48111 5.56145 6.68117 5.43141 6.96126 5.3228C7.17275 5.24063 7.49047 5.14298 8.07542 5.11631C8.708 5.08749 8.89783 5.0813 10.5 5.0813ZM10.5 4.00024C8.87044 4.00024 8.66608 4.00715 8.02612 4.03644C7.38758 4.0655 6.95125 4.16696 6.5697 4.31534C6.17506 4.46872 5.84043 4.67379 5.50699 5.00746C5.17331 5.34114 4.96824 5.67553 4.81486 6.07018C4.66672 6.45173 4.56526 6.88782 4.5362 7.52636C4.50691 8.16632 4.5 8.37067 4.5 10.0002C4.5 11.6298 4.50691 11.8342 4.5362 12.4741C4.56526 13.1127 4.66672 13.549 4.8151 13.9305C4.96848 14.3252 5.17355 14.6598 5.50722 14.9933C5.8409 15.3269 6.17529 15.532 6.56994 15.6854C6.95149 15.8338 7.38782 15.9352 8.02636 15.9643C8.66632 15.9936 8.87067 16.0005 10.5002 16.0005C12.1298 16.0005 12.3342 15.9936 12.9741 15.9643C13.6127 15.9352 14.049 15.8338 14.4305 15.6854C14.8252 15.532 15.1598 15.3269 15.4933 14.9933C15.8269 14.6596 16.032 14.3252 16.1854 13.9305C16.3338 13.549 16.4352 13.1127 16.4643 12.4741C16.4936 11.8342 16.5005 11.6298 16.5005 10.0002C16.5005 8.37067 16.4936 8.16632 16.4643 7.52636C16.4352 6.88782 16.3338 6.45149 16.1854 6.06994C16.032 5.67529 15.8269 5.34066 15.4933 5.00722C15.1596 4.67355 14.8252 4.46848 14.4305 4.3151C14.049 4.16672 13.6127 4.06526 12.9741 4.0362C12.3342 4.00691 12.1298 4 10.5002 4L10.5 4.00024Z" fill="white"/>
<path d="M10.4989 6.91895C8.79722 6.91895 7.41797 8.29843 7.41797 9.99992C7.41797 11.7014 8.79745 13.0809 10.4989 13.0809C12.2004 13.0809 13.5799 11.7014 13.5799 9.99992C13.5799 8.29843 12.2004 6.91895 10.4989 6.91895ZM10.4989 12.0001C9.39431 12.0001 8.49903 11.1046 8.49903 10.0002C8.49903 8.89576 9.39455 8.00024 10.4989 8.00024C11.6033 8.00024 12.4989 8.89576 12.4989 10.0002C12.4989 11.1046 11.6033 12.0001 10.4989 12.0001Z" fill="white"/>
<path d="M13.7044 7.51713C14.102 7.51713 14.4244 7.19478 14.4244 6.79714C14.4244 6.3995 14.102 6.07715 13.7044 6.07715C13.3067 6.07715 12.9844 6.3995 12.9844 6.79714C12.9844 7.19478 13.3067 7.51713 13.7044 7.51713Z" fill="white"/>
</g>
<defs>
<radialGradient id="paint0_radial_130_790" cx="0" cy="0" r="1" gradientUnits="userSpaceOnUse" gradientTransform="translate(17.4 22.7) rotate(-105.945) scale(26.2084 38.982)">
<stop offset="0.197635" stop-color="#F50B5E"/>
<stop offset="0.52034" stop-color="#DF0897"/>
<stop offset="0.768785" stop-color="#962FBF"/>
<stop offset="0.933441" stop-color="#4F5BD5"/>
</radialGradient>
<radialGradient id="paint1_radial_130_790" cx="0" cy="0" r="1" gradientUnits="userSpaceOnUse" gradientTransform="translate(7.2 20) rotate(-54.9721) scale(13.0668 14.2925)">
<stop offset="0.09375" stop-color="#FEDA75"/>
<stop offset="0.475046" stop-color="#FA7E1E"/>
<stop offset="1" stop-color="#FA7E1E" stop-opacity="0"/>
</radialGradient>
<clipPath id="clip0_130_790">
<rect width="12" height="12" fill="white" transform="translate(4.5 4)"/>
</clipPath>
</defs>
</svg>
