<svg width="18" height="20" viewBox="0 0 18 20" fill="none" xmlns="http://www.w3.org/2000/svg">
<g clip-path="url(#clip0_1386_4196)">
<path d="M4.64389 15.5707L4.72568 15.6504C4.94171 15.8183 5.09481 16.0533 5.31294 16.2211C6.23996 16.9324 7.25508 17.0667 8.29536 16.5674C9.33145 16.0722 9.87676 15.1993 9.87886 14.039C9.88725 9.79857 9.88305 5.55812 9.88305 1.31767C9.88305 1.00294 10.0431 0.845572 10.3633 0.845572C10.873 0.845572 11.3827 0.845572 11.8923 0.845572C11.9888 0.845572 12.0895 0.830885 12.1734 0.900125C12.1817 0.90642 12.188 0.912714 12.1964 0.916911C12.295 1.02392 12.2929 1.16869 12.3307 1.29668C12.5718 2.11498 12.9976 2.81578 13.6163 3.40117C13.7023 3.48091 13.7778 3.57113 13.8617 3.65296L14.1428 3.9572C14.2497 4.03063 14.3462 4.11666 14.4343 4.21108C15.0593 4.86991 15.8164 5.30004 16.6952 5.52245C16.7707 5.54133 16.8504 5.54973 16.9092 5.60638C16.9134 5.61267 16.9175 5.62107 16.9217 5.62736C16.9784 5.7008 16.9721 5.78682 16.9721 5.87075C16.9721 6.45825 16.9721 7.04574 16.9721 7.63533C16.9721 7.9018 16.9301 7.95006 16.6638 7.93538C15.5983 7.87872 14.5685 7.66471 13.5975 7.20311C13.1067 6.97021 12.6285 6.71842 12.1922 6.37432C12.1293 6.45615 12.1545 6.53588 12.1545 6.60932C12.1545 8.83131 12.1545 11.0512 12.1545 13.2732C12.1545 14.6622 11.6847 15.8854 10.808 16.9513C9.79496 18.183 8.47993 18.8901 6.90482 19.0957C5.79323 19.2405 4.71939 19.0789 3.69169 18.6215C3.35821 18.4725 3.02054 18.3277 2.7395 18.0864C2.68706 18.0508 2.64302 18.0025 2.60317 17.9522L2.4249 17.7864C2.36827 17.736 2.31583 17.6773 2.26759 17.6206C1.81457 17.0898 1.51884 16.4729 1.32169 15.8099C0.921099 14.465 0.979825 13.1368 1.51465 11.8401C1.99074 10.684 2.76676 9.7692 3.81753 9.08938C4.63969 8.55854 5.54365 8.2606 6.51262 8.15569C6.6846 8.1368 6.86288 8.11162 7.03276 8.18296C7.03696 8.18926 7.04325 8.19555 7.04954 8.20185C7.10617 8.26899 7.09778 8.34872 7.09778 8.42635C7.09778 9.03903 7.09778 9.6538 7.09778 10.2665C7.09778 10.5308 7.06422 10.556 6.81254 10.4994C5.81211 10.2707 4.92283 10.5078 4.18876 11.2086C3.35402 12.0038 3.09605 13.2081 3.59102 14.3076C3.77978 14.7272 4.04824 15.0797 4.41527 15.3588C4.49917 15.4217 4.56628 15.5015 4.64389 15.5728V15.5707Z" fill="white"/>
<path d="M2.72887 18.0466C3.56361 18.5837 4.46337 18.9488 5.45542 19.0495C7.37449 19.2426 9.04607 18.6823 10.4114 17.3101C11.5503 16.1645 12.1103 14.765 12.1082 13.1452C12.104 10.9295 12.1019 8.71592 12.0998 6.50022C12.0998 6.42888 12.0998 6.35754 12.0998 6.28411C12.1837 6.26732 12.2194 6.33446 12.2676 6.37013C13.482 7.24508 14.8347 7.74235 16.3281 7.85775C16.5168 7.87244 16.7559 7.96266 16.8776 7.85985C17.0034 7.75494 16.9153 7.50316 16.9174 7.31852C16.9237 6.7562 16.9216 6.19389 16.9237 5.63367C17.1754 5.66724 17.4271 5.7113 17.6829 5.70501C17.7962 5.70291 17.8235 5.74487 17.8235 5.85398C17.8193 6.78767 17.8172 7.72347 17.8235 8.65717C17.8235 8.80404 17.7522 8.79355 17.6557 8.78935C16.1812 8.74739 14.818 8.34034 13.57 7.54932C13.3834 7.43182 13.2051 7.30173 13.0205 7.17584C12.9786 7.24298 12.9996 7.30803 12.9996 7.36887C13.0163 9.551 13.0289 11.7331 13.0541 13.9152C13.0877 16.922 11.0784 19.3999 8.11485 19.9056C6.02799 20.2602 4.22218 19.637 2.72677 18.1305C2.71419 18.1179 2.7058 18.099 2.69531 18.0823C2.69951 18.0655 2.71209 18.055 2.72887 18.0508V18.0466Z" fill="#E0E0E0"/>
<path d="M12.1733 0.902227C11.4937 0.902227 10.8142 0.912718 10.1367 0.902227C9.96895 0.900128 9.93958 0.948387 9.93958 1.10785C9.94378 5.41335 9.94378 9.71884 9.93958 14.0222C9.93958 15.4112 9.05241 16.5296 7.7122 16.8464C6.59013 17.1108 5.25621 16.5778 4.72559 15.6525C5.15974 15.854 5.60647 16.005 6.09305 16.0092C7.7164 16.0239 8.99158 14.7797 8.99788 13.1557C9.00417 11.6597 8.99997 10.1637 9.00207 8.66765C9.00207 5.85187 9.00207 3.03609 8.99788 0.220313C8.99788 0.0566537 9.02304 2.41213e-06 9.20551 0.00210061C10.1074 0.0125916 11.0071 0.0104934 11.909 0.00210061C12.0516 0.00210061 12.0978 0.0335735 12.1019 0.182545C12.1082 0.42174 12.1481 0.663032 12.1733 0.902227Z" fill="#A3A3A3"/>
<path d="M7.0328 8.18505C6.08061 8.20603 5.17875 8.42424 4.32723 8.85437C2.17325 9.94334 0.883387 12.329 1.15394 14.7272C1.2714 15.7616 1.63004 16.6953 2.24247 17.5346C2.26554 17.5661 2.28232 17.5997 2.30329 17.6332C2.32217 17.6542 2.32007 17.6773 2.30119 17.6962C1.24832 16.8233 0.579272 15.7155 0.302422 14.3768C-0.379215 11.1015 1.86494 7.87452 5.15987 7.36885C5.73874 7.28073 6.31551 7.27024 6.89648 7.33108C7.01393 7.34367 7.05378 7.37934 7.04748 7.49684C7.037 7.72554 7.03909 7.95215 7.0349 8.18085L7.0328 8.18505Z" fill="#A3A3A3"/>
<path d="M4.64391 15.5707C3.88887 15.1196 3.44004 14.4503 3.32678 13.59C3.12334 12.0394 4.07763 10.7344 5.60869 10.4154C6.03026 10.3273 6.45392 10.3441 6.8671 10.4616C7.0202 10.5057 7.04747 10.47 7.04537 10.3189C7.03908 9.61393 7.04537 8.90684 7.04747 8.20184C7.32222 8.17876 7.59278 8.21653 7.86753 8.23961C7.96191 8.248 7.98498 8.28787 7.98498 8.37599C7.98289 9.38103 7.98498 10.384 7.98498 11.4058C7.59488 11.3072 7.21526 11.2526 6.82305 11.2862C4.79282 11.4624 3.61412 13.6383 4.5768 15.4322C4.60197 15.4784 4.62294 15.5245 4.64391 15.5707Z" fill="#E0E0E0"/>
<path d="M13.8617 3.65507C13.6121 3.53757 13.4485 3.32146 13.2765 3.12213C12.7207 2.48637 12.3516 1.7541 12.1985 0.919022C12.4376 0.914826 12.6788 0.912728 12.9179 0.906433C12.985 0.906433 13.029 0.916924 13.0311 0.998754C13.0416 1.96183 13.3562 2.82838 13.8659 3.63409C13.868 3.63828 13.8659 3.64668 13.8659 3.65297L13.8617 3.65507Z" fill="#E0E0E0"/>
<path d="M16.9113 5.61056C16.0116 5.4553 15.2418 5.04195 14.5728 4.42928C14.4155 4.2866 14.2582 4.14183 14.1428 3.95928C14.2288 3.95509 14.2896 4.00754 14.3547 4.04741C15.0887 4.50901 15.892 4.7503 16.7582 4.77968C16.882 4.78387 16.9302 4.81325 16.9218 4.94334C16.9092 5.16365 16.9134 5.38606 16.9113 5.60846V5.61056Z" fill="#A3A3A3"/>
<path d="M2.29702 17.6983C2.29702 17.6773 2.29702 17.6563 2.29912 17.6353C2.35155 17.6773 2.39769 17.7235 2.42076 17.7906C2.35784 17.7885 2.32428 17.7465 2.29492 17.6983H2.29702Z" fill="#34FEF9"/>
<path d="M2.72901 18.0466L2.69545 18.078C2.64722 18.0487 2.61156 18.0109 2.60107 17.9543C2.66399 17.9543 2.68077 18.0256 2.72901 18.0466Z" fill="#EF0044"/>
</g>
<defs>
<clipPath id="clip0_1386_4196">
<rect width="17.6471" height="20" fill="white" transform="translate(0.176514)"/>
</clipPath>
</defs>
</svg>
