<svg width="20" height="20" viewBox="0 0 20 20" fill="none" xmlns="http://www.w3.org/2000/svg">
<rect width="20" height="20" rx="10" fill="white"/>
<g clip-path="url(#clip0_1386_4189)">
<path d="M10 5.08087C11.6022 5.08087 11.7918 5.08706 12.4246 5.11588C13.0095 5.14255 13.3272 5.2402 13.5387 5.32237C13.8188 5.43122 14.0187 5.56126 14.2287 5.77109C14.4388 5.98115 14.5688 6.18098 14.6774 6.46107C14.7596 6.67256 14.8573 6.99028 14.8839 7.57523C14.9128 8.20781 14.9189 8.39764 14.9189 9.99981C14.9189 11.602 14.9128 11.7916 14.8839 12.4244C14.8573 13.0093 14.7596 13.3271 14.6774 13.5386C14.5686 13.8186 14.4386 14.0185 14.2287 14.2285C14.0187 14.4386 13.8188 14.5686 13.5387 14.6772C13.3272 14.7594 13.0095 14.8571 12.4246 14.8837C11.792 14.9126 11.6022 14.9188 10 14.9188C8.39783 14.9188 8.208 14.9126 7.57542 14.8837C6.99047 14.8571 6.67275 14.7594 6.46126 14.6772C6.18117 14.5684 5.98134 14.4384 5.77128 14.2285C5.56121 14.0185 5.43117 13.8186 5.32256 13.5386C5.24039 13.3271 5.14274 13.0093 5.11607 12.4244C5.08725 11.7918 5.08106 11.602 5.08106 9.99981C5.08106 8.39764 5.08725 8.20805 5.11607 7.57523C5.14274 6.99028 5.24039 6.67256 5.32256 6.46107C5.43141 6.18098 5.56145 5.98115 5.77128 5.77109C5.98111 5.56102 6.18117 5.43098 6.46126 5.32237C6.67275 5.2402 6.99047 5.14255 7.57542 5.11588C8.208 5.08706 8.39783 5.08087 10 5.08087ZM10 3.99981C8.37044 3.99981 8.16608 4.00672 7.52612 4.03601C6.88758 4.06507 6.45125 4.16653 6.0697 4.31491C5.67506 4.46829 5.34043 4.67336 5.00699 5.00704C4.67331 5.34071 4.46824 5.6751 4.31486 6.06975C4.16672 6.4513 4.06526 6.88739 4.0362 7.52593C4.00691 8.1659 4 8.37025 4 9.99981C4 11.6294 4.00691 11.8337 4.0362 12.4737C4.06526 13.1122 4.16672 13.5486 4.3151 13.9301C4.46848 14.3248 4.67355 14.6594 5.00722 14.9928C5.3409 15.3265 5.67529 15.5316 6.06994 15.6849C6.45149 15.8333 6.88782 15.9348 7.52636 15.9638C8.16632 15.9931 8.37067 16.0001 10.0002 16.0001C11.6298 16.0001 11.8342 15.9931 12.4741 15.9638C13.1127 15.9348 13.549 15.8333 13.9305 15.6849C14.3252 15.5316 14.6598 15.3265 14.9933 14.9928C15.3269 14.6591 15.532 14.3248 15.6854 13.9301C15.8338 13.5486 15.9352 13.1122 15.9643 12.4737C15.9936 11.8337 16.0005 11.6294 16.0005 9.99981C16.0005 8.37025 15.9936 8.1659 15.9643 7.52593C15.9352 6.88739 15.8338 6.45107 15.6854 6.06952C15.532 5.67487 15.3269 5.34024 14.9933 5.0068C14.6596 4.67312 14.3252 4.46805 13.9305 4.31467C13.549 4.16629 13.1127 4.06483 12.4741 4.03577C11.8342 4.00648 11.6298 3.99957 10.0002 3.99957L10 3.99981Z" fill="#0072FF"/>
<path d="M9.99992 6.91904C8.29819 6.91904 6.91895 8.29852 6.91895 10C6.91895 11.7015 8.29843 13.081 9.99992 13.081C11.7014 13.081 13.0809 11.7015 13.0809 10C13.0809 8.29852 11.7014 6.91904 9.99992 6.91904ZM9.99992 12.0002C8.89529 12.0002 8 11.1047 8 10.0003C8 8.89585 8.89553 8.00033 9.99992 8.00033C11.1043 8.00033 11.9998 8.89585 11.9998 10.0003C11.9998 11.1047 11.1043 12.0002 9.99992 12.0002Z" fill="#0072FF"/>
<path d="M13.2029 7.51707C13.6005 7.51707 13.9229 7.19472 13.9229 6.79708C13.9229 6.39944 13.6005 6.07709 13.2029 6.07709C12.8053 6.07709 12.4829 6.39944 12.4829 6.79708C12.4829 7.19472 12.8053 7.51707 13.2029 7.51707Z" fill="#0072FF"/>
</g>
<defs>
<clipPath id="clip0_1386_4189">
<rect width="12" height="12" fill="white" transform="translate(4 4)"/>
</clipPath>
</defs>
</svg>
