<svg width="17" height="18" viewBox="0 0 17 18" fill="none" xmlns="http://www.w3.org/2000/svg">
<path d="M7.97462 0.499939C8.31794 0.499939 8.66126 0.499939 9.00458 0.499939C9.11902 0.51325 9.23305 0.527394 9.34749 0.540289C10.9933 0.72249 12.4669 1.32192 13.774 2.34275C16.6367 4.57866 17.7574 8.55712 16.4711 11.9528C14.9559 15.9529 10.8477 18.1967 6.67042 17.3061C3.35622 16.5993 0.700375 13.8355 0.133583 10.501C0.0807325 10.1911 0.0441116 9.8787 0 9.56713V9.53385H5.83687C5.83687 9.61705 5.83687 9.67695 5.83687 9.73685C5.83687 10.1799 5.83438 10.6225 5.83771 11.0655C5.84062 11.4544 6.04786 11.6591 6.43488 11.6591C7.80816 11.6599 9.18145 11.6599 10.5547 11.6591C10.9318 11.6591 11.1498 11.4536 11.1507 11.0784C11.1548 9.69442 11.1548 8.31086 11.1507 6.92688C11.1494 6.55167 10.9313 6.34617 10.5547 6.34617C9.18145 6.34534 7.80816 6.34534 6.43488 6.34617C6.04786 6.34617 5.84062 6.55125 5.83771 6.93978C5.83438 7.38821 5.83687 7.83664 5.83687 8.28507C5.83687 8.34414 5.83687 8.40279 5.83687 8.47143H0V8.43815C0.00998752 8.39531 0.0249688 8.35329 0.0287141 8.31003C0.156055 6.75259 0.667499 5.33159 1.58469 4.06825C2.94216 2.19798 4.76072 1.04197 7.04204 0.630558C7.3504 0.574816 7.66334 0.542785 7.97462 0.499939Z" fill="white"/>
</svg>
