<svg width="16" height="18" viewBox="0 0 16 18" fill="none" xmlns="http://www.w3.org/2000/svg">
<path d="M0.188139 1.52867C0.508899 1.21311 0.848487 0.916778 1.20477 0.64182C1.32838 0.548862 1.48503 0.512177 1.63671 0.539958C3.73746 0.887929 5.86095 1.07705 7.99011 1.10554C10.1232 1.06779 12.2502 0.86834 14.3535 0.509328C14.5055 0.480835 14.6621 0.517875 14.7854 0.61119C15.1459 0.89612 15.4887 1.20242 15.8123 1.52867C15.9164 1.61628 15.9835 1.74023 16.0002 1.87521V3.11858C16.0002 3.11858 16.0002 3.99509 15.9697 4.50476C15.8305 7.98554 15.1548 11.4236 13.967 14.6971C13.9357 14.7836 13.8835 14.8605 13.8146 14.9215C12.1984 16.3329 9.68734 17.5001 7.98976 17.5001C6.29218 17.5001 3.80176 16.3383 2.17522 14.9215C2.10631 14.8609 2.05374 14.7836 2.02283 14.6971C0.838541 11.4229 0.166471 7.98483 0.0304232 4.50476C0.0304232 3.99509 -0.000125885 3.54668 -0.000125885 3.12356V1.8802C0.0155039 1.74308 0.0826397 1.61735 0.187784 1.52867H0.188139ZM9.19963 11.1301L9.23017 11.181C9.86566 12.3126 10.8922 12.455 12.046 11.9963C13.1997 11.5376 14.1602 10.5898 13.7588 9.26488C13.3777 8.07244 11.5224 8.55647 10.6635 8.75521C9.45396 9.05581 8.53395 9.77454 9.17938 11.0688C9.1538 11.0382 9.14386 11.0282 9.19963 11.1301ZM2.22637 10.3045C2.5212 11.5123 3.72574 12.1441 4.915 12.2716C6.00765 12.3838 6.97348 11.3239 7.01398 10.2333V10.1517C6.97846 8.86241 5.08267 8.62271 4.12713 8.53617C2.86647 8.414 1.87542 8.8471 2.22637 10.3045Z" fill="white"/>
</svg>
