<svg width="22" height="12" viewBox="0 0 22 12" fill="none" xmlns="http://www.w3.org/2000/svg">
<path d="M11.0397 6.82H10.9603C9.53069 6.82 8.35921 6.5 7.50541 6C8.35921 5.5 9.53069 5.18 10.9603 5.18H11.0397C12.4693 5.18 13.6408 5.5 14.4946 6C13.6408 6.48 12.4693 6.82 11.0397 6.82ZM17.9296 6C20.3321 5.02 21.9206 3.56 22 1.92C22 1.92 21.3646 1.46 19.2996 0.76C17.4928 0.14 16.1227 0 16.1227 0V3.64C16.1227 4.18 15.8845 4.74 15.4477 5.22C14.0776 4.92 12.5686 4.74 11 4.74C9.41155 4.74 7.90253 4.92 6.55235 5.22C6.11552 4.72 5.87726 4.18 5.87726 3.64V0C5.87726 0 4.50722 0.14 2.70036 0.76C0.635379 1.46 0 1.92 0 1.92C0.0794224 3.56 1.66787 5.02 4.0704 6C1.66787 6.98 0.0794224 8.44 0 10.08C0 10.08 0.635379 10.54 2.70036 11.24C4.50722 11.86 5.87726 12 5.87726 12V8.36C5.87726 7.82 6.11552 7.26 6.55235 6.78C7.92238 7.08 9.43141 7.26 11 7.26C12.5884 7.26 14.0975 7.08 15.4477 6.78C15.8845 7.28 16.1227 7.82 16.1227 8.36V12C16.1227 12 17.4928 11.86 19.2996 11.24C21.3448 10.54 22 10.08 22 10.08C21.9206 8.44 20.3321 6.98 17.9296 6Z" fill="white"/>
</svg>
