<svg width="17" height="18" viewBox="0 0 17 18" fill="none" xmlns="http://www.w3.org/2000/svg">
<path d="M0 9.53125C0 9.17708 0 8.82292 0 8.46875C0.024349 8.26643 0.045599 8.06412 0.0739323 7.86224C0.317865 6.12771 1.0169 4.60036 2.19495 3.30456C3.50669 1.86221 5.12612 0.961745 7.0519 0.628385C7.3556 0.575703 7.66284 0.5425 7.96875 0.5H9.03125C9.07375 0.509297 9.11581 0.523906 9.15919 0.527005C10.4767 0.626615 11.7096 1.0038 12.8363 1.6931C15.0415 3.04247 16.393 4.98995 16.8698 7.53508C16.9278 7.84365 16.9575 8.15708 17 8.46875V9.53125C16.9907 9.57419 16.9761 9.61625 16.9726 9.65964C16.8601 11.1228 16.4068 12.473 15.5855 13.6878C14.2313 15.6907 12.3613 16.924 9.98042 17.3685C9.66698 17.427 9.34779 17.4571 9.03125 17.5004H7.96875C7.92625 17.4911 7.88419 17.4765 7.84125 17.473C6.14789 17.3389 4.62409 16.7571 3.28932 15.7088C1.57073 14.3585 0.511328 12.6036 0.127057 10.4485C0.0730469 10.1448 0.0416146 9.83716 0 9.53125ZM8.77271 4.63977C8.77271 4.76195 8.77536 4.85891 8.77227 4.95586C8.76031 5.32552 8.77669 5.69961 8.72711 6.0644C8.60094 6.99099 8.12281 7.67542 7.25245 8.06057C6.95273 8.19339 6.90138 8.1801 6.81151 7.8587C6.72562 7.55102 6.66409 7.23581 6.61096 6.92016C6.58661 6.77628 6.52729 6.76477 6.42503 6.82453C6.32542 6.88297 6.21961 6.94141 6.14081 7.02331C5.923 7.24997 5.69677 7.4731 5.51128 7.725C4.5382 9.04826 4.55901 10.7704 5.56971 12.0184C6.34445 12.9751 7.36622 13.381 8.5912 13.3509C10.621 13.3014 12.2188 11.6788 12.2055 9.65255C12.1913 7.55943 10.7645 5.45523 8.77271 4.63977Z" fill="white"/>
</svg>
