<svg width="15" height="20" viewBox="0 0 15 20" fill="none" xmlns="http://www.w3.org/2000/svg">
<path d="M6.35474 0.205901C6.30964 0.115139 6.30433 -0.0529059 6.12304 0.0162889C5.43237 1.42714 4.74524 2.8398 4.04926 4.24706C2.87309 6.62754 1.6925 9.00443 0.513672 11.3831L3.90423 11.3957C4.66476 9.89588 5.42618 8.39606 6.20794 6.8549C6.99677 8.41043 8.22933 10.5065 8.98633 12H12.4063C12.0137 11.2173 11.0444 9.65774 10.6553 8.87323C9.22177 5.98412 7.79002 3.09411 6.35474 0.205901Z" fill="white"/>
<path d="M14.4815 11.6696L14.4847 11.6631L6.13477 11.7467C6.62381 12.7325 7.11638 13.7156 7.601 14.7023C8.46589 16.4636 9.32724 18.2267 10.1895 19.9889C10.3787 20.0438 10.4061 19.882 10.4618 19.7706C11.8023 17.0714 13.1419 14.3705 14.4815 11.6696Z" fill="white"/>
</svg>
