<svg width="27" height="6" viewBox="0 0 27 6" fill="none" xmlns="http://www.w3.org/2000/svg">
<g clip-path="url(#clip0_1386_4221)">
<path d="M2.48472 4.96671C1.96459 4.96671 1.54339 5.22453 1.34007 5.40726C1.34007 5.40726 0.845287 5.83194 0.510277 5.97898C0.495587 5.98596 0.495847 6.00003 0.516257 6.00003H3.54448C4.14313 6.00003 4.42458 5.8244 4.77987 5.54889C4.77987 5.54889 5.29714 5.13255 5.65191 4.99812C5.68766 4.98641 5.67921 4.96671 5.65191 4.96671H2.48472ZM7.68706 4.96671C7.16693 4.96671 6.74612 5.22453 6.54241 5.40726C6.54241 5.40726 6.04776 5.83194 5.71275 5.97898C5.69793 5.98596 5.69819 6.00003 5.71873 6.00003H8.75293C9.35145 6.00003 9.63316 5.8244 9.98832 5.54889C9.98832 5.54889 10.4999 5.13255 10.8544 4.99812C10.8901 4.98641 10.8875 4.96671 10.8604 4.96671H7.68706ZM12.8954 4.96671C12.3754 4.96671 11.9543 5.22453 11.7507 5.40726C11.7507 5.40726 11.2559 5.83194 10.9209 5.97898C10.9064 5.98596 10.9068 6.00003 10.9272 6.00003H13.9614C14.5599 6.00003 14.8354 5.8244 15.1908 5.54889C15.1908 5.54889 15.7081 5.13255 16.0627 4.99812C16.0986 4.98641 16.096 4.96671 16.0688 4.96671H12.8954ZM18.0977 4.96671C17.5778 4.96671 17.1628 5.22453 16.959 5.40726C16.959 5.40726 16.4583 5.83194 16.1231 5.97898C16.1086 5.98596 16.109 6.00003 16.1294 6.00003H19.1635C19.7621 6.00003 20.0437 5.8244 20.399 5.54889C20.399 5.54889 20.9166 5.13255 21.2711 4.99812C21.3072 4.98641 21.2982 4.96671 21.2711 4.96671H18.0977ZM23.3059 4.96671C22.7859 4.96671 22.3646 5.22453 22.1613 5.40726C22.1613 5.40726 21.6662 5.83194 21.3313 5.97898C21.3165 5.98596 21.317 6.00003 21.3373 6.00003H24.3718C24.9703 6.00003 25.2516 5.8244 25.6073 5.54889C25.6073 5.54889 26.119 5.13255 26.4731 4.99812C26.5089 4.98641 26.5066 4.96671 26.4792 4.96671H23.3059Z" fill="white"/>
<path d="M13.0833 -0.0212402C11.9764 -0.0212402 10.897 0.26338 10.897 1.21654C10.897 2.86719 14.2218 1.9952 14.2218 3.00511C14.2218 3.33431 13.6322 3.46671 13.156 3.46671C12.3006 3.46671 11.7111 3.35649 10.9637 2.9684V3.79704C11.5209 3.95613 12.2789 4.03314 13.1015 4.03314C14.2498 4.03314 15.3242 3.77633 15.3242 2.80053C15.3242 1.07705 11.9993 1.85142 11.9993 1.00679C11.9993 0.666668 12.5328 0.550478 12.9987 0.550478C13.7827 0.550478 14.6292 0.749194 15.0942 1.12208V0.240975C14.4924 0.0764855 13.6934 -0.0212402 13.0833 -0.0212402ZM18.9578 -0.0107696C16.9611 -0.0107696 15.639 0.820462 15.639 2.08718C15.639 3.24976 16.8524 4.02785 18.6671 4.02785C19.255 4.02785 19.7796 3.96108 20.393 3.83363V2.85277C19.9594 3.24953 19.4441 3.40873 18.8911 3.40873C17.8194 3.40873 17.0863 2.83048 17.0863 1.99779C17.0863 1.17646 17.8463 0.576373 18.909 0.576373C19.4882 0.576373 19.9524 0.758764 20.3262 1.0748V0.0939365C19.9376 0.0245828 19.4502 -0.0107696 18.9578 -0.0107696ZM23.6148 -0.0107696C21.8942 -0.0107696 20.6776 0.847033 20.6776 2.05566C20.6776 3.24131 21.7701 4.02796 23.3969 4.02796C25.1252 4.02796 26.3158 3.19166 26.3158 1.97718C26.3162 0.78556 25.2335 -0.0107696 23.6148 -0.0107696ZM0.680176 0.109811V1.03821C1.05419 0.787136 1.8364 0.69245 2.69076 0.686821V3.22003C2.69076 3.58842 2.65319 3.69335 2.47275 3.88621H4.16249C3.97282 3.69335 3.94435 3.58842 3.94435 3.22003V0.665655C4.68483 0.671284 5.56883 0.786911 5.94284 1.03832V0.109924H0.680176V0.109811ZM6.39719 0.109811C6.57399 0.302561 6.60909 0.412446 6.60909 0.781169V3.22003C6.60909 3.58842 6.57711 3.69909 6.40928 3.88621H10.4911V2.9684C9.93111 3.31371 8.86524 3.31495 8.43208 3.3092H7.83863V2.25505H8.27465C8.57014 2.25505 9.10327 2.28534 9.41319 2.36527V1.57862C9.10769 1.66363 8.56923 1.68885 8.27465 1.68885H7.83863V0.687271H8.43208C8.96235 0.687271 9.88457 0.782295 10.2308 1.03348V0.110374H6.39719V0.109811ZM23.5001 0.560948C24.4013 0.560948 24.9959 1.20664 24.9959 2.0033C24.9959 2.79997 24.4013 3.44577 23.5001 3.44577C22.5843 3.44577 21.9978 2.79997 21.9978 2.0033C21.998 1.20675 22.5843 0.560948 23.5001 0.560948Z" fill="white"/>
</g>
<defs>
<clipPath id="clip0_1386_4221">
<rect width="26" height="6" fill="white" transform="translate(0.5)"/>
</clipPath>
</defs>
</svg>
