<svg width="21" height="20" viewBox="0 0 21 20" fill="none" xmlns="http://www.w3.org/2000/svg">
<path d="M10.5 0C4.97695 0 0.5 4.47695 0.5 10C0.5 15.523 4.97695 20 10.5 20C16.023 20 20.5 15.523 20.5 10C20.5 4.47695 16.0242 0 10.5 0ZM15.0856 14.4232C14.9065 14.717 14.522 14.8101 14.2282 14.6298C11.8805 13.1956 8.92489 12.8708 5.44387 13.6661C5.10831 13.7425 4.77394 13.5324 4.69752 13.1968C4.62109 12.8612 4.83007 12.5269 5.16683 12.4504C8.97624 11.5799 12.2435 11.9549 14.8802 13.5658C15.174 13.7461 15.2671 14.1294 15.0868 14.4232H15.0856ZM16.3096 11.6993C16.084 12.0659 15.6039 12.1818 15.2373 11.9561C12.5492 10.3033 8.45199 9.82446 5.27191 10.7905C4.85992 10.9147 4.42405 10.6831 4.29866 10.2711C4.17447 9.85909 4.40733 9.42441 4.81813 9.29902C8.44961 8.1968 12.9648 8.7306 16.0517 10.6281C16.4183 10.8538 16.5342 11.3339 16.3085 11.7005L16.3096 11.6993ZM16.4147 8.86315C13.1917 6.94889 7.87402 6.77335 4.79663 7.70719C4.30225 7.85646 3.78039 7.57822 3.62993 7.08383C3.48065 6.58944 3.7589 6.06759 4.25328 5.91712C7.78565 4.84476 13.6586 5.05254 17.3689 7.2546C17.8143 7.51851 17.96 8.09291 17.6961 8.53595C17.4334 8.98018 16.8578 9.12706 16.4147 8.86315Z" fill="#1ED760"/>
</svg>
