<svg width="15" height="20" viewBox="0 0 15 20" fill="none" xmlns="http://www.w3.org/2000/svg">
<path d="M6.13671 0.0162889C6.318 -0.0529059 6.32331 0.115139 6.36841 0.205901C7.80369 3.09411 9.23544 5.98412 10.669 8.87323C11.0581 9.65774 11.4543 10.4395 11.8469 11.2223C11.8301 11.4263 11.6974 11.5053 11.5197 11.5089C10.5991 11.5296 9.67938 11.5323 8.75878 11.5071C8.66946 11.5044 8.58987 11.4631 8.52532 11.3966C7.76832 9.90306 7.01044 8.41043 6.22161 6.8549C5.43985 8.39606 4.67844 9.89588 3.9179 11.3957C3.81532 11.4631 3.70124 11.4829 3.58185 11.4829C2.65683 11.4847 1.7327 11.4874 0.80768 11.4811C0.704212 11.4811 0.600744 11.4748 0.527344 11.3831C1.70617 9.00443 2.88676 6.62754 4.06294 4.24706C4.75891 2.8398 5.44604 1.42715 6.13671 0.0162889Z" fill="#EF5222"/>
<path d="M14.4984 11.6631C13.1577 14.3662 11.8171 17.0693 10.4755 19.7706C10.4198 19.882 10.3924 20.0438 10.2031 19.9889C9.34091 18.2267 8.47956 16.4636 7.61467 14.7023C7.13006 13.7156 6.63748 12.7325 6.14844 11.7467C6.24748 11.5535 6.42612 11.6316 6.57469 11.6227C7.21937 11.584 7.86936 11.6927 8.5114 11.5615L8.52908 11.4708C9.67254 11.433 10.816 11.4025 11.9594 11.4852L12.0479 11.5696C12.59 11.6874 13.1392 11.5858 13.6839 11.6218C13.9554 11.6397 14.2313 11.5741 14.5002 11.6631H14.4984Z" fill="#F8B696"/>
<path d="M0.529012 11.3838C1.6592 11.3874 2.78939 11.3919 3.92046 11.3955C3.88685 11.5617 3.75332 11.5357 3.64189 11.5357C2.66381 11.5384 1.68573 11.5393 0.708533 11.5321C0.640439 11.5321 0.422007 11.6363 0.529012 11.3838Z" fill="#EF4B12"/>
<path d="M11.9604 11.4859C10.8169 11.4814 9.67346 11.476 8.53 11.4715C8.52204 11.4472 8.52116 11.4221 8.52823 11.3969C9.48155 11.3969 10.4349 11.3942 11.3882 11.3969C11.5677 11.3969 11.7419 11.4068 11.8498 11.2217L11.9604 11.485V11.4859Z" fill="#EF4C14"/>
<path d="M8.51217 11.5616C8.37686 11.7378 8.18761 11.6488 8.02136 11.6623C7.3979 11.7117 6.76648 11.5688 6.14922 11.7468C6.03514 11.4322 6.29955 11.5742 6.38268 11.5724C7.0928 11.5589 7.80293 11.5625 8.51305 11.5616H8.51217Z" fill="#F8B391"/>
<path d="M14.4992 11.6631C13.8164 11.6631 13.1346 11.6667 12.4519 11.6631C12.3131 11.6631 12.1565 11.7134 12.0469 11.5705C12.7482 11.5687 13.4486 11.5643 14.1498 11.5705C14.2683 11.5714 14.4187 11.4996 14.4992 11.664V11.6631Z" fill="#F8B290"/>
</svg>
