<svg width="26" height="6" viewBox="0 0 26 6" fill="none" xmlns="http://www.w3.org/2000/svg">
<g clip-path="url(#clip0_130_798)">
<path d="M1.98472 4.9668C1.46459 4.9668 1.04339 5.22462 0.840067 5.40735C0.840067 5.40735 0.345287 5.83203 0.010277 5.97907C-0.00441304 5.98605 -0.00415304 6.00012 0.016257 6.00012H3.04448C3.64313 6.00012 3.92458 5.82449 4.27987 5.54899C4.27987 5.54899 4.79714 5.13264 5.15191 4.99821C5.18766 4.9865 5.17921 4.9668 5.15191 4.9668H1.98472ZM7.18706 4.9668C6.66693 4.9668 6.24612 5.22462 6.04241 5.40735C6.04241 5.40735 5.54776 5.83203 5.21275 5.97907C5.19793 5.98605 5.19819 6.00012 5.21873 6.00012H8.25293C8.85145 6.00012 9.13316 5.82449 9.48832 5.54899C9.48832 5.54899 9.99987 5.13264 10.3544 4.99821C10.3901 4.9865 10.3875 4.9668 10.3604 4.9668H7.18706ZM12.3954 4.9668C11.8754 4.9668 11.4543 5.22462 11.2507 5.40735C11.2507 5.40735 10.7559 5.83203 10.4209 5.97907C10.4064 5.98605 10.4068 6.00012 10.4272 6.00012H13.4614C14.0599 6.00012 14.3354 5.82449 14.6908 5.54899C14.6908 5.54899 15.2081 5.13264 15.5627 4.99821C15.5986 4.9865 15.596 4.9668 15.5688 4.9668H12.3954ZM17.5977 4.9668C17.0778 4.9668 16.6628 5.22462 16.459 5.40735C16.459 5.40735 15.9583 5.83203 15.6231 5.97907C15.6086 5.98605 15.609 6.00012 15.6294 6.00012H18.6635C19.2621 6.00012 19.5437 5.82449 19.899 5.54899C19.899 5.54899 20.4166 5.13264 20.7711 4.99821C20.8072 4.9865 20.7982 4.9668 20.7711 4.9668H17.5977ZM22.8059 4.9668C22.2859 4.9668 21.8646 5.22462 21.6613 5.40735C21.6613 5.40735 21.1662 5.83203 20.8313 5.97907C20.8165 5.98605 20.817 6.00012 20.8373 6.00012H23.8718C24.4703 6.00012 24.7516 5.82449 25.1073 5.54899C25.1073 5.54899 25.619 5.13264 25.9731 4.99821C26.0089 4.9865 26.0066 4.9668 25.9792 4.9668H22.8059Z" fill="#0054A4" stroke="white" stroke-width="0.0787" stroke-miterlimit="11.474"/>
<path d="M12.5829 -0.0214844C11.4759 -0.0214844 10.3965 0.263136 10.3965 1.2163C10.3965 2.86694 13.7213 1.99495 13.7213 3.00486C13.7213 3.33407 13.1317 3.46647 12.6555 3.46647C11.8001 3.46647 11.2106 3.35625 10.4632 2.96816V3.7968C11.0204 3.95589 11.7784 4.0329 12.6011 4.0329C13.7493 4.0329 14.8237 3.77608 14.8237 2.80029C14.8237 1.0768 11.4988 1.85118 11.4988 1.00655C11.4988 0.666424 12.0323 0.550234 12.4982 0.550234C13.2823 0.550234 14.1287 0.74895 14.5937 1.12184V0.240731C13.9919 0.0762414 13.1929 -0.0214844 12.5829 -0.0214844ZM18.4573 -0.0110138C16.4606 -0.0110138 15.1385 0.820218 15.1385 2.08694C15.1385 3.24951 16.3519 4.0276 18.1666 4.0276C18.7545 4.0276 19.2792 3.96084 19.8925 3.83339V2.85253C19.4589 3.24929 18.9436 3.40849 18.3906 3.40849C17.3189 3.40849 16.5858 2.83024 16.5858 1.99754C16.5858 1.17622 17.3458 0.576129 18.4085 0.576129C18.9877 0.576129 19.4519 0.75852 19.8257 1.07455V0.0936924C19.4371 0.0243386 18.9497 -0.0110138 18.4573 -0.0110138ZM23.1143 -0.0110138C21.3937 -0.0110138 20.1771 0.846789 20.1771 2.05541C20.1771 3.24107 21.2696 4.02772 22.8964 4.02772C24.6248 4.02772 25.8153 3.19142 25.8153 1.97694C25.8157 0.785316 24.733 -0.0110138 23.1143 -0.0110138ZM0.179688 0.109567V1.03796C0.553697 0.786892 1.33591 0.692206 2.19027 0.686577V3.21979C2.19027 3.58818 2.1527 3.69311 1.97226 3.88597H3.662C3.47233 3.69311 3.44386 3.58818 3.44386 3.21979V0.66541C4.18434 0.67104 5.06834 0.786667 5.44235 1.03807V0.10968H0.179688V0.109567ZM5.8967 0.109567C6.0735 0.302317 6.1086 0.412202 6.1086 0.780925V3.21979C6.1086 3.58818 6.07662 3.69885 5.90879 3.88597H9.99066V2.96816C9.43062 3.31346 8.36475 3.3147 7.93159 3.30896H7.33814V2.2548H7.77416C8.06965 2.2548 8.60278 2.28509 8.9127 2.36503V1.57838C8.6072 1.66338 8.06874 1.6886 7.77416 1.6886H7.33814V0.687027H7.93159C8.46186 0.687027 9.38408 0.782051 9.73027 1.03323V0.11013H5.8967V0.109567ZM22.9996 0.560704C23.9008 0.560704 24.4954 1.20639 24.4954 2.00306C24.4954 2.79973 23.9008 3.44553 22.9996 3.44553C22.0838 3.44553 21.4973 2.79973 21.4973 2.00306C21.4975 1.2065 22.0838 0.560704 22.9996 0.560704Z" fill="#F02E25" stroke="white" stroke-width="0.03" stroke-miterlimit="3.864"/>
</g>
<defs>
<clipPath id="clip0_130_798">
<rect width="26" height="6" fill="white"/>
</clipPath>
</defs>
</svg>
