<svg width="19" height="20" viewBox="0 0 19 20" fill="none" xmlns="http://www.w3.org/2000/svg">
<g clip-path="url(#clip0_130_780)">
<path d="M5.14144 15.5712L5.22324 15.6509C5.43927 15.8188 5.59237 16.0538 5.8105 16.2216C6.73752 16.9329 7.75264 17.0672 8.79292 16.5678C9.82901 16.0726 10.3743 15.1998 10.3764 14.0395C10.3848 9.79903 10.3806 5.55858 10.3806 1.31812C10.3806 1.00339 10.5407 0.84603 10.8609 0.84603C11.3706 0.84603 11.8802 0.84603 12.3899 0.84603C12.4863 0.84603 12.587 0.831342 12.6709 0.900583C12.6793 0.906877 12.6856 0.913172 12.694 0.917368C12.7926 1.02438 12.7905 1.16915 12.8282 1.29714C13.0694 2.11544 13.4952 2.81624 14.1139 3.40163C14.1999 3.48136 14.2754 3.57159 14.3593 3.65342L14.6403 3.95765C14.7473 4.03109 14.8438 4.11712 14.9319 4.21154C15.5569 4.87037 16.314 5.3005 17.1928 5.52291C17.2683 5.54179 17.348 5.55018 17.4067 5.60684C17.4109 5.61313 17.4151 5.62152 17.4193 5.62782C17.4759 5.70125 17.4696 5.78728 17.4696 5.87121C17.4696 6.4587 17.4696 7.0462 17.4696 7.63579C17.4696 7.90226 17.4277 7.95052 17.1613 7.93583C16.0959 7.87918 15.0661 7.66517 14.095 7.20356C13.6042 6.97066 13.126 6.71888 12.6898 6.37478C12.6269 6.4566 12.652 6.53634 12.652 6.60977C12.652 8.83176 12.652 11.0517 12.652 13.2736C12.652 14.6626 12.1822 15.8859 11.3055 16.9518C10.2925 18.1834 8.97749 18.8905 7.40238 19.0961C6.29079 19.2409 5.21695 19.0794 4.18925 18.6219C3.85577 18.473 3.5181 18.3282 3.23706 18.0869C3.18462 18.0512 3.14058 18.003 3.10073 17.9526L2.92245 17.7869C2.86583 17.7365 2.81339 17.6778 2.76515 17.6211C2.31213 17.0903 2.0164 16.4734 1.81925 15.8104C1.41866 14.4654 1.47738 13.1373 2.01221 11.8406C2.4883 10.6845 3.26432 9.76966 4.31509 9.08984C5.13725 8.559 6.0412 8.26105 7.01018 8.15614C7.18216 8.13726 7.36043 8.11208 7.53032 8.18342C7.53451 8.18971 7.54081 8.19601 7.5471 8.2023C7.60373 8.26945 7.59534 8.34918 7.59534 8.42681C7.59534 9.03948 7.59534 9.65426 7.59534 10.2669C7.59534 10.5313 7.56178 10.5565 7.3101 10.4998C6.30967 10.2711 5.42039 10.5082 4.68632 11.209C3.85158 12.0042 3.5936 13.2086 4.08858 14.3081C4.27734 14.7277 4.5458 15.0802 4.91283 15.3592C4.99673 15.4222 5.06384 15.5019 5.14144 15.5733V15.5712Z" fill="black"/>
<path d="M3.22887 18.0467C4.06361 18.5838 4.96337 18.9489 5.95542 19.0496C7.87449 19.2427 9.54607 18.6825 10.9114 17.3102C12.0503 16.1646 12.6103 14.7651 12.6082 13.1453C12.604 10.9296 12.6019 8.71604 12.5998 6.50034C12.5998 6.429 12.5998 6.35767 12.5998 6.28423C12.6837 6.26744 12.7194 6.33459 12.7676 6.37026C13.982 7.2452 15.3347 7.74248 16.8281 7.85788C17.0168 7.87256 17.2559 7.96279 17.3776 7.85997C17.5034 7.75506 17.4153 7.50328 17.4174 7.31864C17.4237 6.75632 17.4216 6.19401 17.4237 5.63379C17.6754 5.66736 17.9271 5.71142 18.1829 5.70513C18.2962 5.70303 18.3235 5.74499 18.3235 5.8541C18.3193 6.7878 18.3172 7.72359 18.3235 8.65729C18.3235 8.80416 18.2522 8.79367 18.1557 8.78947C16.6812 8.74751 15.318 8.34046 14.07 7.54944C13.8834 7.43194 13.7051 7.30185 13.5205 7.17596C13.4786 7.2431 13.4996 7.30815 13.4996 7.369C13.5163 9.55112 13.5289 11.7332 13.5541 13.9154C13.5877 16.9221 11.5784 19.4 8.61485 19.9057C6.52799 20.2603 4.72218 19.6371 3.22677 18.1306C3.21419 18.1181 3.2058 18.0992 3.19531 18.0824C3.19951 18.0656 3.21209 18.0551 3.22887 18.0509V18.0467Z" fill="#EF0044"/>
<path d="M12.6742 0.902135C11.9947 0.902135 11.3152 0.912626 10.6377 0.902135C10.4699 0.900037 10.4406 0.948295 10.4406 1.10776C10.4448 5.41326 10.4448 9.71875 10.4406 14.0222C10.4406 15.4112 9.55338 16.5295 8.21318 16.8463C7.0911 17.1107 5.75719 16.5778 5.22656 15.6524C5.66071 15.8539 6.10745 16.0049 6.59403 16.0091C8.21738 16.0238 9.49256 14.7796 9.49885 13.1556C9.50515 11.6596 9.50095 10.1636 9.50305 8.66756C9.50305 5.85178 9.50305 3.036 9.49885 0.220221C9.49885 0.0565621 9.52402 -8.91406e-05 9.70649 0.00200905C10.6083 0.0125 11.5081 0.0104018 12.41 0.00200905C12.5526 0.00200905 12.5987 0.033482 12.6029 0.182454C12.6092 0.421648 12.6491 0.662941 12.6742 0.902135Z" fill="#08FEF8"/>
<path d="M7.53231 8.18538C6.58012 8.20637 5.67826 8.42458 4.82674 8.85471C2.67277 9.94367 1.3829 12.3293 1.65346 14.7276C1.77091 15.762 2.12955 16.6957 2.74198 17.5349C2.76505 17.5664 2.78183 17.6 2.8028 17.6336C2.82168 17.6545 2.81958 17.6776 2.8007 17.6965C1.74784 16.8237 1.07878 15.7158 0.801934 14.3772C0.120297 11.1019 2.36446 7.87485 5.65938 7.36919C6.23825 7.28106 6.81502 7.27057 7.39599 7.33142C7.51344 7.34401 7.55329 7.37968 7.547 7.49718C7.53651 7.72588 7.53861 7.95248 7.53441 8.18119L7.53231 8.18538Z" fill="#08FEF8"/>
<path d="M5.14123 15.5704C4.38618 15.1193 3.93735 14.45 3.8241 13.5897C3.62065 12.0391 4.57494 10.7341 6.10601 10.4151C6.52757 10.327 6.95124 10.3438 7.36441 10.4613C7.51752 10.5054 7.54478 10.4697 7.54269 10.3186C7.5364 9.61362 7.54269 8.90653 7.54478 8.20154C7.81954 8.17846 8.09009 8.21623 8.36485 8.23931C8.45923 8.2477 8.4823 8.28756 8.4823 8.37569C8.4802 9.38072 8.4823 10.3837 8.4823 11.4055C8.09219 11.3069 7.71257 11.2523 7.32037 11.2859C5.29014 11.4621 4.11143 13.638 5.07411 15.4319C5.09928 15.4781 5.12025 15.5242 5.14123 15.5704Z" fill="#EF0044"/>
<path d="M14.3624 3.65489C14.1128 3.53739 13.9492 3.32127 13.7773 3.12194C13.2215 2.48619 12.8523 1.75392 12.6992 0.918839C12.9383 0.914643 13.1795 0.912545 13.4186 0.90625C13.4857 0.90625 13.5298 0.916741 13.5319 0.998571C13.5424 1.96164 13.857 2.8282 14.3666 3.6339C14.3687 3.6381 14.3666 3.64649 14.3666 3.65279L14.3624 3.65489Z" fill="#EF0044"/>
<path d="M17.4091 5.6105C16.5094 5.45523 15.7396 5.04189 15.0706 4.42922C14.9133 4.28654 14.756 4.14176 14.6406 3.95922C14.7266 3.95502 14.7874 4.00748 14.8525 4.04735C15.5865 4.50895 16.3898 4.75024 17.256 4.77962C17.3798 4.78381 17.428 4.81319 17.4196 4.94327C17.407 5.16359 17.4112 5.38599 17.4091 5.6084V5.6105Z" fill="#08FEF8"/>
<path d="M2.79507 17.6987C2.79507 17.6777 2.79507 17.6567 2.79716 17.6357C2.8496 17.6777 2.89574 17.7239 2.91881 17.791C2.85589 17.7889 2.82233 17.7469 2.79297 17.6987H2.79507Z" fill="#34FEF9"/>
<path d="M3.2295 18.0464L3.19594 18.0779C3.1477 18.0485 3.11205 18.0108 3.10156 17.9541C3.16448 17.9541 3.18126 18.0254 3.2295 18.0464Z" fill="#EF0044"/>
</g>
<defs>
<clipPath id="clip0_130_780">
<rect width="17.6471" height="20" fill="white" transform="translate(0.675781)"/>
</clipPath>
</defs>
</svg>
