<svg width="18" height="18" viewBox="0 0 18 18" fill="none" xmlns="http://www.w3.org/2000/svg">
<g clip-path="url(#clip0_130_795)">
<circle cx="9" cy="9" r="8.5" fill="white"/>
<path d="M0.5 9.53125C0.5 9.17708 0.5 8.82292 0.5 8.46875C0.524349 8.26643 0.545599 8.06412 0.573932 7.86224C0.817865 6.12771 1.5169 4.60036 2.69495 3.30456C4.00669 1.86221 5.62612 0.961745 7.5519 0.628385C7.8556 0.575703 8.16284 0.5425 8.46875 0.5H9.53125C9.57375 0.509297 9.61581 0.523906 9.65919 0.527005C10.9767 0.626615 12.2096 1.0038 13.3363 1.6931C15.5415 3.04247 16.893 4.98995 17.3698 7.53508C17.4278 7.84365 17.4575 8.15708 17.5 8.46875V9.53125C17.4907 9.57419 17.4761 9.61625 17.4726 9.65964C17.3601 11.1228 16.9068 12.473 16.0855 13.6878C14.7313 15.6907 12.8613 16.924 10.4804 17.3685C10.167 17.427 9.84779 17.4571 9.53125 17.5004H8.46875C8.42625 17.4911 8.38419 17.4765 8.34125 17.473C6.64789 17.3389 5.12409 16.7571 3.78932 15.7088C2.07073 14.3585 1.01133 12.6036 0.627057 10.4485C0.573047 10.1448 0.541615 9.83716 0.5 9.53125ZM9.27271 4.63977C9.27271 4.76195 9.27536 4.85891 9.27227 4.95586C9.26031 5.32552 9.27669 5.69961 9.22711 6.0644C9.10094 6.99099 8.62281 7.67542 7.75245 8.06057C7.45273 8.19339 7.40138 8.1801 7.31151 7.8587C7.22562 7.55102 7.16409 7.23581 7.11096 6.92016C7.08661 6.77628 7.02729 6.76477 6.92503 6.82453C6.82542 6.88297 6.71961 6.94141 6.64081 7.02331C6.423 7.24997 6.19677 7.4731 6.01128 7.725C5.0382 9.04826 5.05901 10.7704 6.06971 12.0184C6.84445 12.9751 7.86622 13.381 9.0912 13.3509C11.121 13.3014 12.7188 11.6788 12.7055 9.65255C12.6913 7.55943 11.2645 5.45523 9.27271 4.63977Z" fill="url(#paint0_linear_130_795)"/>
</g>
<defs>
<linearGradient id="paint0_linear_130_795" x1="3.12792" y1="4.3188" x2="16.414" y2="14.9115" gradientUnits="userSpaceOnUse">
<stop stop-color="#E73E76"/>
<stop offset="1" stop-color="#EC6A5E"/>
</linearGradient>
<clipPath id="clip0_130_795">
<rect width="17" height="17" fill="white" transform="translate(0.5 0.5)"/>
</clipPath>
</defs>
</svg>
