<svg width="18" height="18" viewBox="0 0 18 18" fill="none" xmlns="http://www.w3.org/2000/svg">
<path d="M8.47462 0.5C8.81794 0.5 9.16126 0.5 9.50458 0.5C9.61902 0.513311 9.73305 0.527455 9.84749 0.54035C11.4933 0.722551 12.9669 1.32198 14.274 2.34281C17.1367 4.57872 18.2574 8.55719 16.9711 11.9529C15.4559 15.953 11.3477 18.1968 7.17042 17.3062C3.85622 16.5994 1.20037 13.8356 0.633583 10.5011C0.580732 10.1912 0.544112 9.87877 0.5 9.56719V9.53391H6.33687C6.33687 9.61711 6.33687 9.67701 6.33687 9.73691C6.33687 10.1799 6.33438 10.6225 6.33771 11.0656C6.34062 11.4545 6.54786 11.6592 6.93488 11.6592C8.30816 11.66 9.68145 11.66 11.0547 11.6592C11.4318 11.6592 11.6498 11.4537 11.6507 11.0785C11.6548 9.69448 11.6548 8.31092 11.6507 6.92695C11.6494 6.55173 11.4313 6.34623 11.0547 6.34623C9.68145 6.3454 8.30816 6.3454 6.93488 6.34623C6.54786 6.34623 6.34062 6.55131 6.33771 6.93984C6.33438 7.38827 6.33687 7.8367 6.33687 8.28513C6.33687 8.3442 6.33687 8.40286 6.33687 8.47149H0.5V8.43821C0.509988 8.39537 0.524969 8.35335 0.528714 8.31009C0.656055 6.75265 1.1675 5.33165 2.08469 4.06831C3.44216 2.19804 5.26072 1.04203 7.54204 0.630619C7.8504 0.574877 8.16334 0.542846 8.47462 0.5Z" fill="black"/>
</svg>
