<svg width="24" height="25" viewBox="0 0 24 25" fill="none" xmlns="http://www.w3.org/2000/svg">
<g clip-path="url(#clip0_2032_6803)">
<path d="M4 13.8338C4 11.6533 4 9.47326 4 7.29325C4 6.0108 4.77819 5.16823 5.96187 5.16823C8.75627 5.16823 11.5512 5.16823 14.3456 5.16823C15.5308 5.16823 16.3069 6.00913 16.3069 7.29325C16.3069 11.6538 16.3069 16.0139 16.3069 20.3744C16.3069 21.6586 15.5303 22.4995 14.3456 22.5C11.5512 22.5 8.75627 22.5 5.96187 22.5C4.7787 22.4995 4.00051 21.6563 4 20.3744C4 18.1944 4 16.0139 4 13.8338Z" fill="#322F2F"/>
<path d="M7.81667 3.83466C8.04941 3.05153 8.75429 2.50666 9.53197 2.50278C10.6859 2.49722 11.8394 2.50111 12.9933 2.50111C14.6727 2.50111 16.3521 2.50111 18.0315 2.50111C19.2142 2.50111 20.0001 3.34756 20.0001 4.62336C20.0006 8.98393 20.0001 13.3445 20.0001 17.7051C20.0001 18.9831 19.2157 19.8318 18.0367 19.8329C17.8777 19.8329 17.7188 19.8329 17.5384 19.8329C17.5384 19.7351 17.5384 19.654 17.5384 19.5735C17.5384 15.449 17.5399 11.3245 17.5374 7.19994C17.5363 5.56534 16.5305 4.2279 15.0551 3.90131C14.8311 3.85188 14.5974 3.83744 14.3677 3.83689C12.2654 3.83244 10.163 3.83411 8.06018 3.83411H7.81616L7.81667 3.83466Z" fill="#322F2F"/>
</g>
<defs>
<clipPath id="clip0_2032_6803">
<rect width="16" height="20" fill="white" transform="translate(4 2.5)"/>
</clipPath>
</defs>
</svg>
