<svg width="16" height="16" viewBox="0 0 16 16" fill="none" xmlns="http://www.w3.org/2000/svg">
<path d="M6.15936 1H9.84097C10.0172 1.06234 10.2054 1.10062 10.368 1.19104C10.9509 1.51479 11.2492 2.03979 11.2717 2.74125C11.2778 2.93521 11.2717 3.12953 11.2717 3.33115H11.4421C12.0854 3.33115 12.7286 3.33115 13.3719 3.33115C13.4618 3.3292 13.5514 3.34224 13.6375 3.36979C13.7553 3.41218 13.8556 3.49739 13.9208 3.61062C13.986 3.72386 14.012 3.85794 13.9944 3.98958C13.9528 4.28125 13.7435 4.48651 13.4732 4.4949C13.2782 4.50073 13.0832 4.4949 12.8814 4.4949C12.8565 4.96484 12.8319 5.41911 12.8084 5.87375C12.7539 6.93809 12.6996 8.00243 12.6455 9.06677C12.5725 10.481 12.5016 11.8956 12.4232 13.3098C12.3837 14.0156 12.0612 14.5308 11.4622 14.8345C11.315 14.9092 11.1493 14.9439 10.9922 14.9956H5.00886C4.98665 14.9855 4.96389 14.9769 4.94068 14.9697C4.27731 14.821 3.82734 14.4065 3.64803 13.7079C3.57269 13.4144 3.57303 13.0961 3.55599 12.7881C3.49701 11.7333 3.44588 10.6779 3.39134 9.62313C3.32475 8.36653 3.25885 7.10847 3.19362 5.84896C3.17044 5.40417 3.1459 4.95901 3.12101 4.5C2.92227 4.5 2.73138 4.50401 2.5415 4.5C2.45785 4.49936 2.37545 4.47814 2.30069 4.438C2.22593 4.39785 2.1608 4.33985 2.11035 4.26848C2.0599 4.19711 2.02547 4.11429 2.00974 4.02641C1.994 3.93854 1.99737 3.84797 2.0196 3.76172C2.08403 3.49995 2.30288 3.33333 2.58957 3.33333C3.24987 3.33333 3.91017 3.33333 4.57048 3.33333H4.72763C4.72763 3.11932 4.72592 2.92427 4.72763 2.72922C4.73237 2.35012 4.85176 1.98286 5.06794 1.68238C5.28412 1.38191 5.58546 1.16438 5.92688 1.06234C6.00392 1.03974 6.08198 1.02078 6.15936 1ZM10.1819 3.32458C10.1819 3.14958 10.1819 2.99063 10.1819 2.83167C10.1819 2.39052 9.97505 2.1697 9.56144 2.16922C8.56877 2.16922 7.57621 2.16922 6.58377 2.16922C6.49446 2.16922 6.40446 2.16667 6.31549 2.17286C6.08164 2.18964 5.86177 2.38068 5.83824 2.6275C5.8154 2.85536 5.83313 3.0876 5.83313 3.32458H10.1819ZM6.3639 9.17068C6.3639 8.59719 6.36901 8.0237 6.35946 7.45057C6.35554 7.32444 6.32276 7.20127 6.26402 7.09182C6.14675 6.87635 5.90199 6.78995 5.67394 6.85375C5.55939 6.8859 5.45798 6.95762 5.38548 7.05777C5.31298 7.15793 5.27345 7.28089 5.27305 7.40755C5.26828 8.58187 5.27066 9.7562 5.27305 10.9305C5.27471 10.9941 5.28623 11.0569 5.30714 11.1165C5.34901 11.2473 5.43319 11.3579 5.54453 11.4284C5.65586 11.4988 5.78705 11.5244 5.91446 11.5005C6.04187 11.4767 6.15715 11.405 6.23954 11.2984C6.32193 11.1918 6.36603 11.0572 6.3639 10.9189C6.36628 10.3362 6.3639 9.75328 6.3639 9.17068ZM9.63644 9.16156V10.8959C9.63644 11.1179 9.71927 11.2947 9.8962 11.4114C9.97665 11.4683 10.0705 11.4999 10.1669 11.5026C10.2633 11.5052 10.3585 11.4788 10.4416 11.4264C10.6397 11.3101 10.728 11.1212 10.728 10.8853C10.7293 9.73833 10.7293 8.59135 10.728 7.44437C10.7275 7.36712 10.7151 7.29049 10.6912 7.2176C10.6504 7.09176 10.5697 6.98517 10.4631 6.91631C10.3565 6.84745 10.2307 6.82067 10.1075 6.84062C9.83177 6.88729 9.63951 7.11552 9.6378 7.41375C9.63644 7.99635 9.63644 8.57896 9.63644 9.16156ZM8.54218 9.16156C8.54218 8.57385 8.54661 7.98615 8.54014 7.39807C8.54043 7.32219 8.52674 7.24698 8.49986 7.17675C8.47297 7.10652 8.43342 7.04265 8.38345 6.98877C8.28254 6.87995 8.14534 6.81847 8.00204 6.81784C7.93109 6.81753 7.86077 6.83217 7.7951 6.86092C7.72944 6.88967 7.66971 6.93198 7.61934 6.98542C7.51759 7.09334 7.4601 7.24007 7.45952 7.39333C7.45474 8.57361 7.45577 9.75377 7.46258 10.9338C7.46961 11.0555 7.5086 11.1727 7.57508 11.2718C7.70564 11.4763 7.94733 11.5459 8.1672 11.4708C8.27412 11.436 8.36789 11.3657 8.43494 11.27C8.50199 11.1744 8.53883 11.0584 8.54014 10.9389C8.54559 10.3468 8.54252 9.75437 8.54286 9.16193L8.54218 9.16156Z" fill="#374151"/>
</svg>
